<?xml version="1.0" encoding="utf-8"?>
<!-- Generator: Adobe Illustrator 17.0.0, SVG Export Plug-In . SVG Version: 6.00 Build 0)  -->
<!DOCTYPE svg PUBLIC "-//W3C//DTD SVG 1.1//EN" "http://www.w3.org/Graphics/SVG/1.1/DTD/svg11.dtd">
<svg version="1.1" id="图层_1" xmlns="http://www.w3.org/2000/svg" xmlns:xlink="http://www.w3.org/1999/xlink" x="0px" y="0px"
	 width="531.984px" height="248.114px" viewBox="0 0 531.984 248.114" enable-background="new 0 0 531.984 248.114"
	 xml:space="preserve">
<rect fill="#545454" width="17" height="17"/>
<rect x="21" fill="#545454" width="17" height="17"/>
<rect x="42" fill="#545454" width="17" height="17"/>
<rect x="63" fill="#545454" width="17" height="17"/>
<rect x="84" fill="#545454" width="17" height="17"/>
<rect x="105" fill="#545454" width="17" height="17"/>
<rect x="126" fill="#545454" width="17" height="17"/>
<rect x="147" fill="#545454" width="17" height="17"/>
<rect x="168" fill="#545454" width="17" height="17"/>
<rect x="189" fill="#545454" width="17" height="17"/>
<rect x="210" fill="#545454" width="17" height="17"/>
<rect x="231" fill="#545454" width="17" height="17"/>
<rect x="252" fill="#545454" width="17" height="17"/>
<rect x="273" fill="#545454" width="17" height="17"/>
<rect x="294" fill="#545454" width="17" height="17"/>
<rect x="315" fill="#545454" width="17" height="17"/>
<rect x="336" fill="#545454" width="17" height="17"/>
<rect x="368" fill="#545454" width="17" height="17"/>
<rect x="389" fill="#545454" width="17" height="17"/>
<rect x="410" fill="#545454" width="17" height="17"/>
<rect x="431" fill="#545454" width="17" height="17"/>
<rect x="452" fill="#545454" width="17" height="17"/>
<rect x="473" fill="#545454" width="17" height="17"/>
<rect y="21" fill="#545454" width="17" height="17"/>
<rect x="21" y="21" fill="#545454" width="17" height="17"/>
<rect x="42" y="21" fill="#545454" width="17" height="17"/>
<rect x="63" y="21" fill="#545454" width="17" height="17"/>
<rect x="84" y="21" fill="#545454" width="17" height="17"/>
<rect x="105" y="21" fill="#545454" width="17" height="17"/>
<rect x="126" y="21" fill="#545454" width="17" height="17"/>
<rect x="147" y="21" fill="#545454" width="17" height="17"/>
<rect x="168" y="21" fill="#545454" width="17" height="17"/>
<rect x="189" y="21" fill="#545454" width="17" height="17"/>
<rect x="210" y="21" fill="#545454" width="17" height="17"/>
<rect x="231" y="21" fill="#545454" width="17" height="17"/>
<rect x="252" y="21" fill="#545454" width="17" height="17"/>
<rect x="273" y="21" fill="#545454" width="17" height="17"/>
<rect x="294" y="21" fill="#545454" width="17" height="17"/>
<rect x="315" y="21" fill="#545454" width="17" height="17"/>
<rect x="336" y="21" fill="#545454" width="17" height="17"/>
<rect x="368" y="21" fill="#545454" width="17" height="17"/>
<rect x="389" y="21" fill="#545454" width="17" height="17"/>
<rect x="410" y="21" fill="#545454" width="17" height="17"/>
<rect x="431" y="21" fill="#545454" width="17" height="17"/>
<rect x="452" y="21" fill="#545454" width="17" height="17"/>
<rect x="473" y="21" fill="#545454" width="17" height="17"/>
<rect y="42" fill="#545454" width="17" height="17"/>
<rect x="21" y="42" fill="#545454" width="17" height="17"/>
<rect x="42" y="42" fill="#545454" width="17" height="17"/>
<rect x="63" y="42" fill="#545454" width="17" height="17"/>
<rect x="84" y="42" fill="#545454" width="17" height="17"/>
<rect x="105" y="42" fill="#545454" width="17" height="17"/>
<rect x="126" y="42" fill="#545454" width="17" height="17"/>
<rect x="147" y="42" fill="#545454" width="17" height="17"/>
<rect x="168" y="42" fill="#545454" width="17" height="17"/>
<rect x="189" y="42" fill="#545454" width="17" height="17"/>
<rect x="210" y="42" fill="#545454" width="17" height="17"/>
<rect x="231" y="42" fill="#545454" width="17" height="17"/>
<rect x="252" y="42" fill="#545454" width="17" height="17"/>
<rect x="273" y="42" fill="#545454" width="17" height="17"/>
<rect x="294" y="42" fill="#545454" width="17" height="17"/>
<rect x="315" y="42" fill="#545454" width="17" height="17"/>
<rect x="336" y="42" fill="#545454" width="17" height="17"/>
<rect x="368" y="42" fill="#545454" width="17" height="17"/>
<rect x="389" y="42" fill="#545454" width="17" height="17"/>
<rect x="410" y="42" fill="#545454" width="17" height="17"/>
<rect x="431" y="42" fill="#545454" width="17" height="17"/>
<rect x="452" y="42" fill="#545454" width="17" height="17"/>
<rect x="473" y="42" fill="#545454" width="17" height="17"/>
<rect y="63" fill="#545454" width="17" height="17"/>
<rect x="21" y="63" fill="#545454" width="17" height="17"/>
<rect x="42" y="63" fill="#545454" width="17" height="17"/>
<rect x="63" y="63" fill="#545454" width="17" height="17"/>
<rect x="84" y="63" fill="#545454" width="17" height="17"/>
<rect x="105" y="63" fill="#545454" width="17" height="17"/>
<rect x="126" y="63" fill="#545454" width="17" height="17"/>
<rect x="147" y="63" fill="#545454" width="17" height="17"/>
<rect x="168" y="63" fill="#545454" width="17" height="17"/>
<rect x="189" y="63" fill="#545454" width="17" height="17"/>
<rect x="210" y="63" fill="#545454" width="17" height="17"/>
<rect x="231" y="63" fill="#545454" width="17" height="17"/>
<rect x="252" y="63" fill="#545454" width="17" height="17"/>
<rect x="273" y="63" fill="#545454" width="17" height="17"/>
<rect x="294" y="63" fill="#545454" width="17" height="17"/>
<rect x="315" y="63" fill="#545454" width="17" height="17"/>
<rect x="336" y="63" fill="#545454" width="17" height="17"/>
<rect x="368" y="63" fill="#545454" width="17" height="17"/>
<rect x="389" y="63" fill="#545454" width="17" height="17"/>
<rect x="410" y="63" fill="#545454" width="17" height="17"/>
<rect x="431" y="63" fill="#545454" width="17" height="17"/>
<rect x="452" y="63" fill="#545454" width="17" height="17"/>
<rect x="473" y="63" fill="#545454" width="17" height="17"/>
<rect y="84" fill="#545454" width="17" height="17"/>
<rect x="21" y="84" fill="#545454" width="17" height="17"/>
<rect x="42" y="84" fill="#545454" width="17" height="17"/>
<rect x="63" y="84" fill="#545454" width="17" height="17"/>
<rect x="84" y="84" fill="#545454" width="17" height="17"/>
<rect x="105" y="84" fill="#545454" width="17" height="17"/>
<rect x="126" y="84" fill="#545454" width="17" height="17"/>
<rect x="147" y="84" fill="#545454" width="17" height="17"/>
<rect x="168" y="84" fill="#545454" width="17" height="17"/>
<rect x="189" y="84" fill="#545454" width="17" height="17"/>
<rect x="210" y="84" fill="#27AE60" width="17" height="17"/>
<rect x="231" y="84" fill="#E74C3C" width="17" height="17"/>
<rect x="252" y="84" fill="#E74C3C" width="17" height="17"/>
<rect x="273" y="84" fill="#545454" width="17" height="17"/>
<rect x="294" y="84" fill="#545454" width="17" height="17"/>
<rect x="315" y="84" fill="#545454" width="17" height="17"/>
<rect x="336" y="84" fill="#545454" width="17" height="17"/>
<rect x="368" y="84" fill="#545454" width="17" height="17"/>
<rect x="389" y="84" fill="#545454" width="17" height="17"/>
<rect x="410" y="84" fill="#545454" width="17" height="17"/>
<rect x="431" y="84" fill="#545454" width="17" height="17"/>
<rect x="452" y="84" fill="#999999" width="17" height="17"/>
<rect x="473" y="84" fill="#545454" width="17" height="17"/>
<rect y="105" fill="#545454" width="17" height="17"/>
<rect x="21" y="105" fill="#545454" width="17" height="17"/>
<rect x="42" y="105" fill="#545454" width="17" height="17"/>
<rect x="63" y="105" fill="#545454" width="17" height="17"/>
<rect x="84" y="105" fill="#545454" width="17" height="17"/>
<rect x="105" y="105" fill="#545454" width="17" height="17"/>
<rect x="126" y="105" fill="#545454" width="17" height="17"/>
<rect x="147" y="105" fill="#27AE60" width="17" height="17"/>
<rect x="168" y="105" fill="#27AE60" width="17" height="17"/>
<rect x="189" y="105" fill="#27AE60" width="17" height="17"/>
<rect x="210" y="105" fill="#545454" width="17" height="17"/>
<rect x="231" y="105" fill="#545454" width="17" height="17"/>
<rect x="252" y="105" fill="#545454" width="17" height="17"/>
<rect x="273" y="105" fill="#27AE60" width="17" height="17"/>
<rect x="294" y="105" fill="#545454" width="17" height="17"/>
<rect x="315" y="105" fill="#545454" width="17" height="17"/>
<rect x="336" y="105" fill="#545454" width="17" height="17"/>
<rect x="368" y="105" fill="#545454" width="17" height="17"/>
<rect x="389" y="105" fill="#999999" width="17" height="17"/>
<rect x="410" y="105" fill="#545454" width="17" height="17"/>
<rect x="431" y="105" fill="#999999" width="17" height="17"/>
<rect x="452" y="105" fill="#545454" width="17" height="17"/>
<rect x="473" y="105" fill="#999999" width="17" height="17"/>
<rect y="126" fill="#545454" width="17" height="17"/>
<rect x="21" y="126" fill="#545454" width="17" height="17"/>
<rect x="42" y="126" fill="#545454" width="17" height="17"/>
<rect x="63" y="126" fill="#545454" width="17" height="17"/>
<rect x="84" y="126" fill="#545454" width="17" height="17"/>
<rect x="105" y="126" fill="#545454" width="17" height="17"/>
<rect x="126" y="126" fill="#E74C3C" width="17" height="17"/>
<rect x="147" y="126" fill="#545454" width="17" height="17"/>
<rect x="168" y="126" fill="#545454" width="17" height="17"/>
<rect x="189" y="126" fill="#545454" width="17" height="17"/>
<rect x="210" y="126" fill="#545454" width="17" height="17"/>
<rect x="231" y="126" fill="#545454" width="17" height="17"/>
<rect x="252" y="126" fill="#545454" width="17" height="17"/>
<rect x="273" y="126" fill="#545454" width="17" height="17"/>
<rect x="294" y="126" fill="#E74C3C" width="17" height="17"/>
<rect x="315" y="126" fill="#545454" width="17" height="17"/>
<rect x="336" y="126" fill="#545454" width="17" height="17"/>
<rect x="368" y="126" fill="#999999" width="17" height="17"/>
<rect x="389" y="126" fill="#545454" width="17" height="17"/>
<rect x="410" y="126" fill="#999999" width="17" height="17"/>
<rect x="431" y="126" fill="#545454" width="17" height="17"/>
<rect x="452" y="126" fill="#545454" width="17" height="17"/>
<rect x="473" y="126" fill="#545454" width="17" height="17"/>
<rect y="147" fill="#545454" width="17" height="17"/>
<rect x="21" y="147" fill="#545454" width="17" height="17"/>
<rect x="42" y="147" fill="#545454" width="17" height="17"/>
<rect x="63" y="147" fill="#545454" width="17" height="17"/>
<rect x="84" y="147" fill="#545454" width="17" height="17"/>
<rect x="105" y="147" fill="#E74C3C" width="17" height="17"/>
<rect x="126" y="147" fill="#545454" width="17" height="17"/>
<rect x="147" y="147" fill="#545454" width="17" height="17"/>
<rect x="168" y="147" fill="#545454" width="17" height="17"/>
<rect x="189" y="147" fill="#545454" width="17" height="17"/>
<rect x="210" y="147" fill="#545454" width="17" height="17"/>
<rect x="231" y="147" fill="#545454" width="17" height="17"/>
<rect x="252" y="147" fill="#545454" width="17" height="17"/>
<rect x="273" y="147" fill="#545454" width="17" height="17"/>
<rect x="294" y="147" fill="#545454" width="17" height="17"/>
<rect x="315" y="147" fill="#27AE60" width="17" height="17"/>
<rect x="336" y="147" fill="#E74C3C" width="17" height="17"/>
<rect x="368" y="147" fill="#545454" width="17" height="17"/>
<rect x="389" y="147" fill="#545454" width="17" height="17"/>
<rect x="410" y="147" fill="#545454" width="17" height="17"/>
<rect x="431" y="147" fill="#545454" width="17" height="17"/>
<rect x="452" y="147" fill="#545454" width="17" height="17"/>
<rect x="473" y="147" fill="#545454" width="17" height="17"/>
<rect y="168" fill="#545454" width="17" height="17"/>
<rect x="21" y="168" fill="#545454" width="17" height="17"/>
<rect x="42" y="168" fill="#545454" width="17" height="17"/>
<rect x="63" y="168" fill="#27AE60" width="17" height="17"/>
<rect x="84" y="168" fill="#27AE60" width="17" height="17"/>
<rect x="105" y="168" fill="#545454" width="17" height="17"/>
<rect x="126" y="168" fill="#545454" width="17" height="17"/>
<rect x="147" y="168" fill="#545454" width="17" height="17"/>
<rect x="168" y="168" fill="#545454" width="17" height="17"/>
<rect x="189" y="168" fill="#545454" width="17" height="17"/>
<rect x="210" y="168" fill="#545454" width="17" height="17"/>
<rect x="231" y="168" fill="#545454" width="17" height="17"/>
<rect x="252" y="168" fill="#545454" width="17" height="17"/>
<rect x="273" y="168" fill="#545454" width="17" height="17"/>
<rect x="294" y="168" fill="#545454" width="17" height="17"/>
<rect x="315" y="168" fill="#545454" width="17" height="17"/>
<rect x="336" y="168" fill="#545454" width="17" height="17"/>
<rect x="368" y="168" fill="#545454" width="17" height="17"/>
<rect x="389" y="168" fill="#545454" width="17" height="17"/>
<rect x="410" y="168" fill="#545454" width="17" height="17"/>
<rect x="431" y="168" fill="#545454" width="17" height="17"/>
<rect x="452" y="168" fill="#545454" width="17" height="17"/>
<rect x="473" y="168" fill="#545454" width="17" height="17"/>
<rect y="189" fill="#E74C3C" width="17" height="17"/>
<rect x="21" y="189" fill="#27AE60" width="17" height="17"/>
<rect x="42" y="189" fill="#E74C3C" width="17" height="17"/>
<rect x="63" y="189" fill="#545454" width="17" height="17"/>
<rect x="84" y="189" fill="#545454" width="17" height="17"/>
<rect x="105" y="189" fill="#545454" width="17" height="17"/>
<rect x="126" y="189" fill="#545454" width="17" height="17"/>
<rect x="147" y="189" fill="#545454" width="17" height="17"/>
<rect x="168" y="189" fill="#545454" width="17" height="17"/>
<rect x="189" y="189" fill="#545454" width="17" height="17"/>
<rect x="210" y="189" fill="#545454" width="17" height="17"/>
<rect x="231" y="189" fill="#545454" width="17" height="17"/>
<rect x="252" y="189" fill="#545454" width="17" height="17"/>
<rect x="273" y="189" fill="#545454" width="17" height="17"/>
<rect x="294" y="189" fill="#545454" width="17" height="17"/>
<rect x="315" y="189" fill="#545454" width="17" height="17"/>
<rect x="336" y="189" fill="#545454" width="17" height="17"/>
<rect x="368" y="189" fill="#545454" width="17" height="17"/>
<rect x="389" y="189" fill="#545454" width="17" height="17"/>
<rect x="410" y="189" fill="#545454" width="17" height="17"/>
<rect x="431" y="189" fill="#545454" width="17" height="17"/>
<rect x="452" y="189" fill="#545454" width="17" height="17"/>
<rect x="473" y="189" fill="#545454" width="17" height="17"/>
<rect y="210" fill="#545454" width="17" height="17"/>
<rect x="21" y="210" fill="#545454" width="17" height="17"/>
<rect x="42" y="210" fill="#545454" width="17" height="17"/>
<rect x="63" y="210" fill="#545454" width="17" height="17"/>
<rect x="84" y="210" fill="#545454" width="17" height="17"/>
<rect x="105" y="210" fill="#545454" width="17" height="17"/>
<rect x="126" y="210" fill="#545454" width="17" height="17"/>
<rect x="147" y="210" fill="#545454" width="17" height="17"/>
<rect x="168" y="210" fill="#545454" width="17" height="17"/>
<rect x="189" y="210" fill="#545454" width="17" height="17"/>
<rect x="210" y="210" fill="#545454" width="17" height="17"/>
<rect x="231" y="210" fill="#545454" width="17" height="17"/>
<rect x="252" y="210" fill="#545454" width="17" height="17"/>
<rect x="273" y="210" fill="#545454" width="17" height="17"/>
<rect x="294" y="210" fill="#545454" width="17" height="17"/>
<rect x="315" y="210" fill="#545454" width="17" height="17"/>
<rect x="336" y="210" fill="#545454" width="17" height="17"/>
<rect x="368" y="210" fill="#545454" width="17" height="17"/>
<rect x="389" y="210" fill="#545454" width="17" height="17"/>
<rect x="410" y="210" fill="#545454" width="17" height="17"/>
<rect x="431" y="210" fill="#545454" width="17" height="17"/>
<rect x="452" y="210" fill="#545454" width="17" height="17"/>
<rect x="473" y="210" fill="#545454" width="17" height="17"/>
<rect y="231" fill="#545454" width="17" height="17"/>
<rect x="21" y="231" fill="#545454" width="17" height="17"/>
<rect x="42" y="231" fill="#545454" width="17" height="17"/>
<rect x="63" y="231" fill="#545454" width="17" height="17"/>
<rect x="84" y="231" fill="#545454" width="17" height="17"/>
<rect x="105" y="231" fill="#545454" width="17" height="17"/>
<rect x="126" y="231" fill="#545454" width="17" height="17"/>
<rect x="147" y="231" fill="#545454" width="17" height="17"/>
<rect x="168" y="231" fill="#545454" width="17" height="17"/>
<rect x="189" y="231" fill="#545454" width="17" height="17"/>
<rect x="210" y="231" fill="#545454" width="17" height="17"/>
<rect x="231" y="231" fill="#545454" width="17" height="17"/>
<rect x="252" y="231" fill="#545454" width="17" height="17"/>
<rect x="273" y="231" fill="#545454" width="17" height="17"/>
<rect x="294" y="231" fill="#545454" width="17" height="17"/>
<rect x="315" y="231" fill="#545454" width="17" height="17"/>
<rect x="336" y="231" fill="#545454" width="17" height="17"/>
<rect x="368" y="231" fill="#545454" width="17" height="17"/>
<rect x="389" y="231" fill="#545454" width="17" height="17"/>
<rect x="410" y="231" fill="#545454" width="17" height="17"/>
<rect x="431" y="231" fill="#545454" width="17" height="17"/>
<rect x="452" y="231" fill="#545454" width="17" height="17"/>
<rect x="473" y="231" fill="#545454" width="17" height="17"/>
<rect x="494" fill="#545454" width="17" height="17"/>
<rect x="494" y="21" fill="#545454" width="17" height="17"/>
<rect x="494" y="42" fill="#545454" width="17" height="17"/>
<rect x="494" y="63" fill="#545454" width="17" height="17"/>
<rect x="494" y="84" fill="#545454" width="17" height="17"/>
<rect x="494" y="105" fill="#545454" width="17" height="17"/>
<rect x="494" y="126" fill="#999999" width="17" height="17"/>
<rect x="494" y="147" fill="#545454" width="17" height="17"/>
<rect x="494" y="168" fill="#545454" width="17" height="17"/>
<rect x="494" y="189" fill="#545454" width="17" height="17"/>
<rect x="494" y="210" fill="#545454" width="17" height="17"/>
<rect x="494" y="231" fill="#545454" width="17" height="17"/>
<rect x="515" fill="#545454" width="17" height="17"/>
<rect x="515" y="21" fill="#545454" width="17" height="17"/>
<rect x="515" y="42" fill="#545454" width="17" height="17"/>
<rect x="515" y="63" fill="#545454" width="17" height="17"/>
<rect x="515" y="84" fill="#545454" width="17" height="17"/>
<rect x="515" y="105" fill="#545454" width="17" height="17"/>
<rect x="515" y="126" fill="#545454" width="17" height="17"/>
<rect x="515" y="147" fill="#999999" width="17" height="17"/>
<rect x="515" y="168" fill="#545454" width="17" height="17"/>
<rect x="515" y="189" fill="#545454" width="17" height="17"/>
<rect x="515" y="210" fill="#545454" width="17" height="17"/>
<rect x="515" y="231" fill="#545454" width="17" height="17"/>
</svg>
