<?xml version="1.0" encoding="utf-8"?>
<!-- Generator: Adobe Illustrator 16.0.0, SVG Export Plug-In . SVG Version: 6.00 Build 0)  -->
<!DOCTYPE svg PUBLIC "-//W3C//DTD SVG 1.1//EN" "http://www.w3.org/Graphics/SVG/1.1/DTD/svg11.dtd">
<svg version="1.1" id="图层_1" xmlns="http://www.w3.org/2000/svg" xmlns:xlink="http://www.w3.org/1999/xlink" x="0px" y="0px"
	 width="120px" height="120px" viewBox="0 0 120 120" enable-background="new 0 0 120 120" xml:space="preserve">
<path fill="#FFFFFF" d="M120,100c0,11.046-8.954,20-20,20H20c-11.046,0-20-8.954-20-20V20C0,8.954,8.954,0,20,0h80
	c11.046,0,20,8.954,20,20V100z"/>
<g>
	<g>
		<g>
			<path fill="#FD9A09" d="M82.362,51.359c-1.921,0-3.479,1.563-3.479,3.488c0,1.923,1.559,3.486,3.479,3.486
				s3.479-1.563,3.479-3.486C85.841,52.922,84.283,51.359,82.362,51.359"/>
			<path fill="#FFF8B3" d="M88.779,28.904c-1.813,0-3.271,1.464-3.271,3.278c0,1.813,1.459,3.277,3.271,3.277
				c1.809,0,3.269-1.464,3.269-3.277C92.048,30.368,90.588,28.904,88.779,28.904"/>
			<path fill="#FAE864" d="M88.779,37.97c-1.813,0-3.271,1.463-3.271,3.276c0,1.814,1.459,3.277,3.271,3.277
				c1.809,0,3.269-1.463,3.269-3.277C92.048,39.433,90.588,37.97,88.779,37.97"/>
			<path fill="#FBCB33" d="M88.779,47.035c-1.813,0-3.271,1.466-3.271,3.279s1.459,3.278,3.271,3.278
				c1.809,0,3.269-1.466,3.269-3.278S90.588,47.035,88.779,47.035"/>
			<path fill="#FFF8B3" d="M95.194,39.769c1.683,0,3.063-1.367,3.063-3.054s-1.38-3.07-3.063-3.07c-1.685,0-3.048,1.383-3.048,3.07
				S93.51,39.769,95.194,39.769"/>
			<path fill="#FAE864" d="M95.194,42.727c-1.685,0-3.048,1.366-3.048,3.054c0,1.687,1.363,3.052,3.048,3.052
				c1.683,0,3.063-1.366,3.063-3.052C98.257,44.093,96.877,42.727,95.194,42.727"/>
			<path fill="#FFF8B3" d="M69.53,15.514c-1.684,0-3.062,1.382-3.062,3.069s1.378,3.055,3.062,3.055
				c1.686,0,3.048-1.368,3.048-3.055S71.216,15.514,69.53,15.514"/>
			<path fill="#FFF8B3" d="M63.115,11.205c-1.572,0-2.852,1.268-2.852,2.846c0,1.574,1.28,2.844,2.852,2.844
				c1.559,0,2.839-1.27,2.839-2.844C65.954,12.473,64.674,11.205,63.115,11.205"/>
			<path fill="#FAE864" d="M63.115,20.27c-1.572,0-2.852,1.27-2.852,2.846s1.28,2.844,2.852,2.844c1.559,0,2.839-1.268,2.839-2.844
				S64.674,20.27,63.115,20.27"/>
			<path fill="#FAE864" d="M56.7,15.946c-1.463,0-2.631,1.186-2.631,2.636c0,1.451,1.168,2.636,2.631,2.636
				c1.448,0,2.616-1.185,2.616-2.636C59.315,17.132,58.147,15.946,56.7,15.946"/>
			<path fill="#FBCB33" d="M56.7,25.013c-1.463,0-2.631,1.184-2.631,2.637c0,1.449,1.168,2.635,2.631,2.635
				c1.448,0,2.616-1.186,2.616-2.635C59.315,26.197,58.147,25.013,56.7,25.013"/>
			<path fill="#FBCB33" d="M50.27,20.688c-1.336,0-2.407,1.088-2.407,2.427c0,1.339,1.071,2.426,2.407,2.426
				s2.422-1.087,2.422-2.426C52.692,21.776,51.606,20.688,50.27,20.688"/>
			<path fill="#FD9A09" d="M43.854,25.445c-1.21,0-2.2,0.99-2.2,2.205c0,1.227,0.989,2.202,2.2,2.202
				c1.226,0,2.214-0.975,2.214-2.202C46.068,26.435,45.08,25.445,43.854,25.445"/>
			<path fill="#BC2E2E" d="M24.608,39.67c-0.864,0-1.574,0.71-1.574,1.578c0,0.863,0.71,1.561,1.574,1.561
				c0.862,0,1.572-0.698,1.572-1.561C26.18,40.381,25.47,39.67,24.608,39.67"/>
			<path fill="#962D2D" d="M24.608,48.737c-0.864,0-1.574,0.71-1.574,1.576c0,0.865,0.71,1.563,1.574,1.563
				c0.862,0,1.572-0.698,1.572-1.563C26.18,49.448,25.47,48.737,24.608,48.737"/>
			<path fill="#FAE864" d="M82.362,40.201c1.921,0,3.479-1.561,3.479-3.486s-1.558-3.488-3.479-3.488s-3.479,1.562-3.479,3.488
				S80.441,40.201,82.362,40.201"/>
			<path fill="#FBCB33" d="M78.883,45.781c0,1.922,1.559,3.487,3.479,3.487s3.479-1.564,3.479-3.487
				c0-1.925-1.558-3.487-3.479-3.487S78.883,43.856,78.883,45.781"/>
			<path fill="#FD9A09" d="M75.946,53.59c1.796,0,3.257-1.464,3.257-3.277c0-1.813-1.461-3.279-3.257-3.279
				c-1.81,0-3.269,1.465-3.269,3.279C72.678,52.126,74.137,53.59,75.946,53.59"/>
			<path fill="#FBCB33" d="M75.946,44.524c1.796,0,3.257-1.463,3.257-3.275c0-1.814-1.461-3.278-3.257-3.278
				c-1.81,0-3.269,1.464-3.269,3.278C72.678,43.061,74.137,44.524,75.946,44.524"/>
			<path fill="#EE6909" d="M75.946,56.101c-1.81,0-3.269,1.466-3.269,3.277c0,1.815,1.459,3.278,3.269,3.278
				c1.796,0,3.257-1.463,3.257-3.278C79.203,57.566,77.742,56.101,75.946,56.101"/>
			<path fill="#DE4916" d="M69.53,60.856c-1.697,0-3.062,1.368-3.062,3.058c0,1.684,1.364,3.053,3.062,3.053
				c1.686,0,3.048-1.369,3.048-3.053C72.578,62.225,71.216,60.856,69.53,60.856"/>
			<path fill="#EE6909" d="M69.53,51.792c-1.697,0-3.062,1.368-3.062,3.054c0,1.688,1.364,3.054,3.062,3.054
				c1.686,0,3.048-1.366,3.048-3.054C72.578,53.16,71.216,51.792,69.53,51.792"/>
			<path fill="#FD9A09" d="M69.53,42.727c-1.697,0-3.062,1.366-3.062,3.054c0,1.687,1.364,3.052,3.062,3.052
				c1.686,0,3.048-1.366,3.048-3.052C72.578,44.093,71.216,42.727,69.53,42.727"/>
			<path fill="#DE4916" d="M63.115,56.534c-1.572,0-2.84,1.268-2.84,2.846c0,1.575,1.268,2.843,2.84,2.843
				c1.559,0,2.839-1.268,2.839-2.843C65.954,57.802,64.674,56.534,63.115,56.534"/>
			<path fill="#EE6909" d="M63.115,47.468c-1.572,0-2.84,1.27-2.84,2.846c0,1.576,1.268,2.844,2.84,2.844
				c1.559,0,2.839-1.268,2.839-2.844C65.954,48.737,64.674,47.468,63.115,47.468"/>
			<path fill="#FBCB33" d="M63.115,29.336c-1.572,0-2.84,1.27-2.84,2.845c0,1.575,1.268,2.845,2.84,2.845
				c1.559,0,2.839-1.27,2.839-2.845C65.954,30.606,64.674,29.336,63.115,29.336"/>
			<path fill="#BC2E2E" d="M63.115,65.598c-1.572,0-2.84,1.271-2.84,2.848c0,1.577,1.268,2.845,2.84,2.845
				c1.559,0,2.839-1.268,2.839-2.845C65.954,66.869,64.674,65.598,63.115,65.598"/>
			<path fill="#FD9A09" d="M63.115,38.402c-1.572,0-2.84,1.268-2.84,2.846c0,1.575,1.268,2.846,2.84,2.846
				c1.559,0,2.839-1.271,2.839-2.846C65.954,39.67,64.674,38.402,63.115,38.402"/>
			<path fill="#EE6909" d="M56.7,43.144c-1.463,0-2.631,1.185-2.631,2.637c0,1.449,1.168,2.635,2.631,2.635
				c1.448,0,2.616-1.186,2.616-2.635C59.315,44.329,58.147,43.144,56.7,43.144"/>
			<path fill="#BC2E2E" d="M56.7,61.275c-1.463,0-2.631,1.173-2.631,2.639c0,1.449,1.168,2.635,2.631,2.635
				c1.448,0,2.616-1.186,2.616-2.635C59.315,62.448,58.147,61.275,56.7,61.275"/>
			<path fill="#DE4916" d="M56.7,52.209c-1.463,0-2.631,1.188-2.631,2.636c0,1.451,1.168,2.636,2.631,2.636
				c1.448,0,2.616-1.185,2.616-2.636C59.315,53.397,58.147,52.209,56.7,52.209"/>
			<path fill="#FD9A09" d="M56.7,34.079c-1.463,0-2.631,1.185-2.631,2.636c0,1.45,1.168,2.635,2.631,2.635
				c1.448,0,2.616-1.185,2.616-2.635C59.315,35.264,58.147,34.079,56.7,34.079"/>
			<path fill="#962D2D" d="M56.7,70.343c-1.463,0-2.631,1.171-2.631,2.636c0,1.449,1.168,2.636,2.631,2.636
				c1.448,0,2.616-1.187,2.616-2.636C59.315,71.514,58.147,70.343,56.7,70.343"/>
			<path fill="#962D2D" d="M50.27,66.02c-1.336,0-2.407,1.089-2.407,2.426c0,1.338,1.071,2.428,2.407,2.428s2.422-1.09,2.422-2.428
				C52.692,67.108,51.606,66.02,50.27,66.02"/>
			<path fill="#FD9A09" d="M50.27,29.753c-1.336,0-2.407,1.09-2.407,2.428c0,1.339,1.071,2.427,2.407,2.427s2.422-1.087,2.422-2.427
				C52.692,30.843,51.606,29.753,50.27,29.753"/>
			<path fill="#EE6909" d="M50.27,38.82c-1.336,0-2.407,1.089-2.407,2.428c0,1.337,1.071,2.412,2.407,2.412s2.422-1.075,2.422-2.412
				C52.692,39.91,51.606,38.82,50.27,38.82"/>
			<path fill="#DE4916" d="M50.27,47.887c-1.336,0-2.407,1.087-2.407,2.426c0,1.338,1.071,2.413,2.407,2.413
				s2.422-1.075,2.422-2.413C52.692,48.975,51.606,47.887,50.27,47.887"/>
			<path fill="#EE6909" d="M43.854,34.51c-1.21,0-2.2,0.976-2.2,2.205c0,1.213,0.989,2.204,2.2,2.204
				c1.226,0,2.214-0.991,2.214-2.204C46.068,35.486,45.08,34.51,43.854,34.51"/>
			<path fill="#EE6909" d="M37.438,30.187c-1.1,0-1.99,0.893-1.99,1.995c0,1.102,0.89,1.995,1.99,1.995s1.99-0.893,1.99-1.995
				C39.429,31.079,38.539,30.187,37.438,30.187"/>
			<path fill="#DE4916" d="M37.438,39.253c-1.1,0-1.99,0.893-1.99,1.996c0,1.101,0.89,1.994,1.99,1.994s1.99-0.893,1.99-1.994
				C39.429,40.146,38.539,39.253,37.438,39.253"/>
			<path fill="#BC2E2E" d="M31.022,43.994c-0.988,0-1.782,0.795-1.782,1.787c0,0.976,0.794,1.784,1.782,1.784
				c0.989,0,1.782-0.809,1.782-1.784C32.804,44.79,32.011,43.994,31.022,43.994"/>
			<path fill="#DE4916" d="M31.022,34.929c-0.988,0-1.782,0.794-1.782,1.786c0,0.99,0.794,1.784,1.782,1.784
				c0.989,0,1.782-0.794,1.782-1.784C32.804,35.723,32.011,34.929,31.022,34.929"/>
		</g>
		<g>
			<path d="M33.168,100.33v8.08c0,0.318,0.137,0.535,0.416,0.654c0.277,0.08,0.416,0.219,0.416,0.416
				c0,0.317-0.219,0.475-0.654,0.475h-2.555c-0.516,0-0.753-0.157-0.713-0.475c0-0.197,0.119-0.336,0.356-0.416
				c0.316-0.119,0.475-0.336,0.475-0.654v-3.979h-5.287v3.979c0,0.318,0.139,0.535,0.417,0.654c0.276,0.08,0.416,0.219,0.416,0.416
				c0,0.317-0.218,0.475-0.654,0.475h-2.555c-0.514,0-0.752-0.157-0.712-0.475c-0.04-0.197,0.079-0.336,0.356-0.416
				c0.316-0.119,0.476-0.336,0.476-0.654v-8.08c0-0.238-0.159-0.415-0.476-0.535c-0.239-0.118-0.356-0.296-0.356-0.534
				c-0.08-0.276,0.157-0.416,0.712-0.416H25.8c0.436,0,0.654,0.14,0.654,0.416c0,0.238-0.14,0.416-0.416,0.534
				c-0.278,0.12-0.417,0.297-0.417,0.535v3.029h5.287v-3.029c0-0.238-0.158-0.415-0.475-0.535c-0.237-0.118-0.356-0.296-0.356-0.534
				c-0.08-0.276,0.158-0.416,0.713-0.416h2.555c0.435,0,0.654,0.14,0.654,0.416c0,0.238-0.139,0.416-0.416,0.534
				C33.305,99.915,33.168,100.092,33.168,100.33z"/>
			<path d="M41.724,106.213h-4.457c-0.396,1.029-0.634,1.842-0.713,2.436c0,0.158,0.099,0.279,0.297,0.357
				c0.315,0.117,0.474,0.297,0.474,0.534c0,0.276-0.159,0.415-0.474,0.415h-2.079c-0.238,0-0.357-0.139-0.357-0.415
				c0-0.237,0.119-0.417,0.357-0.534c0.277-0.12,0.454-0.318,0.534-0.596c1.109-3.604,2.376-6.693,3.803-9.269
				c0.158-0.357,0.476-0.535,0.95-0.535c0.436,0,0.693,0.082,0.771,0.238c0.952,1.704,2.041,4.299,3.269,7.783
				c0.238,0.714,0.476,1.347,0.713,1.902c0.039,0.198,0.158,0.335,0.355,0.415c0.277,0.119,0.416,0.295,0.416,0.535
				c-0.04,0.317-0.218,0.475-0.534,0.475h-2.852c-0.317,0-0.456-0.139-0.416-0.415c0-0.237,0.118-0.417,0.357-0.534
				c0.197-0.078,0.297-0.199,0.297-0.357c0-0.118-0.159-0.653-0.476-1.604C41.881,106.806,41.803,106.529,41.724,106.213z
				 M37.624,105.144h3.685l-1.902-4.575L37.624,105.144z"/>
			<path d="M48.496,109.955h-1.901c-0.555,0-0.813-0.157-0.772-0.475c0-0.197,0.177-0.336,0.534-0.416
				c0.436-0.119,0.653-0.336,0.653-0.654v-8.08c0-0.238-0.218-0.415-0.653-0.535c-0.357-0.118-0.534-0.296-0.534-0.534
				c0-0.236,0.177-0.377,0.534-0.416h2.257c0.08-0.831,2.061,1.643,5.942,7.428v-5.942c0-0.238-0.159-0.415-0.475-0.535
				c-0.278-0.118-0.416-0.296-0.416-0.534c-0.08-0.276,0.158-0.416,0.713-0.416h1.544c0.436,0,0.654,0.14,0.654,0.416
				c0,0.238-0.159,0.416-0.475,0.534c-0.279,0.12-0.417,0.297-0.417,0.535v8.793c0.079,0.675-0.139,0.973-0.653,0.894
				c-0.357,0-0.595-0.062-0.712-0.179l-6.12-8.676h-0.061v7.248c-0.04,0.318,0.14,0.535,0.535,0.654
				c0.317,0.08,0.476,0.219,0.476,0.416C49.149,109.798,48.931,109.955,48.496,109.955z"/>
			<path d="M60.083,108.945h1.96c1.227,0,2.14-0.316,2.732-0.95c0.277-0.278,0.515-0.416,0.714-0.416
				c0.238,0.04,0.355,0.179,0.355,0.416c-0.08,1.268-0.296,1.921-0.653,1.96h-7.129c-0.635,0-0.931-0.257-0.892-0.771
				c0.357-1.108,1.525-2.99,3.505-5.646c1.584-2.099,2.377-3.268,2.377-3.504c-0.04-0.08-0.158-0.14-0.356-0.178
				c-1.464,0-2.417,0.059-2.851,0.178c-0.517,0.079-0.892,0.277-1.13,0.593c-0.238,0.318-0.456,0.476-0.653,0.476
				c-0.277,0-0.415-0.157-0.415-0.476c0-1.107,0.275-1.703,0.83-1.782h6.477c0.436,0.039,0.674,0.199,0.712,0.475
				c0,0.754-1.307,2.894-3.92,6.418c-1.308,1.822-1.961,2.833-1.961,3.028C59.785,108.886,59.883,108.945,60.083,108.945z"/>
			<path d="M77.016,100.33v8.08c0,0.318,0.138,0.535,0.417,0.654c0.276,0.08,0.415,0.219,0.415,0.416
				c0,0.317-0.22,0.475-0.653,0.475H74.64c-0.517,0-0.754-0.157-0.713-0.475c0-0.197,0.118-0.336,0.354-0.416
				c0.317-0.119,0.476-0.336,0.476-0.654v-3.979H69.47v3.979c0,0.318,0.14,0.535,0.417,0.654c0.276,0.08,0.415,0.219,0.415,0.416
				c0,0.317-0.217,0.475-0.653,0.475h-2.555c-0.516,0-0.752-0.157-0.713-0.475c-0.039-0.197,0.078-0.336,0.357-0.416
				c0.314-0.119,0.475-0.336,0.475-0.654v-8.08c0-0.238-0.16-0.415-0.475-0.535c-0.24-0.118-0.357-0.296-0.357-0.534
				c-0.081-0.276,0.157-0.416,0.713-0.416h2.555c0.437,0,0.653,0.14,0.653,0.416c0,0.238-0.139,0.416-0.415,0.534
				c-0.277,0.12-0.417,0.297-0.417,0.535v3.029h5.287v-3.029c0-0.238-0.158-0.415-0.476-0.535c-0.236-0.118-0.354-0.296-0.354-0.534
				c-0.081-0.276,0.157-0.416,0.713-0.416h2.555c0.434,0,0.653,0.14,0.653,0.416c0,0.238-0.139,0.416-0.415,0.534
				C77.153,99.915,77.016,100.092,77.016,100.33z"/>
			<path d="M86.641,109.955h-7.308c-0.518,0-0.754-0.157-0.713-0.475c0-0.197,0.117-0.336,0.355-0.416
				c0.317-0.119,0.475-0.336,0.475-0.654v-8.08c0-0.238-0.157-0.415-0.475-0.535c-0.238-0.118-0.355-0.296-0.355-0.534
				c-0.041-0.276,0.195-0.416,0.713-0.416h6.95c0.674-0.118,0.99,0.396,0.951,1.545c-0.041,0.355-0.14,0.516-0.297,0.475
				c-0.12,0-0.259-0.06-0.416-0.177c-0.12-0.158-0.317-0.336-0.595-0.535c-0.238-0.118-0.533-0.198-0.891-0.237
				c-0.277-0.04-0.793-0.059-1.545-0.059c-1.427-0.119-2.021,0.235-1.782,1.068v2.495h2.673c0.316,0,0.614-0.099,0.891-0.297
				c0.16-0.157,0.298-0.238,0.416-0.238c0.277,0,0.417,0.339,0.417,1.01c0.039,0.872-0.101,1.249-0.417,1.129
				c-0.118,0-0.237-0.06-0.355-0.178c-0.238-0.276-0.555-0.415-0.951-0.415h-2.673v2.731c-0.119,1.426,0.216,2.021,1.009,1.783
				c2.298,0.039,3.586-0.197,3.863-0.713c0.236-0.395,0.475-0.595,0.713-0.595c0.237,0.039,0.376,0.218,0.415,0.535
				C87.749,109.362,87.393,109.955,86.641,109.955z"/>
			<path d="M90.858,109.955h-1.901c-0.555,0-0.813-0.157-0.772-0.475c0-0.197,0.177-0.336,0.534-0.416
				c0.437-0.119,0.653-0.336,0.653-0.654v-8.08c0-0.238-0.217-0.415-0.653-0.535c-0.357-0.118-0.534-0.296-0.534-0.534
				c0-0.236,0.177-0.377,0.534-0.416h2.257c0.082-0.831,2.062,1.643,5.943,7.428v-5.942c0-0.238-0.158-0.415-0.475-0.535
				c-0.279-0.118-0.416-0.296-0.416-0.534c-0.081-0.276,0.157-0.416,0.713-0.416h1.545c0.435,0,0.652,0.14,0.652,0.416
				c0,0.238-0.158,0.416-0.475,0.534c-0.278,0.12-0.416,0.297-0.416,0.535v8.793c0.078,0.675-0.139,0.973-0.654,0.894
				c-0.356,0-0.594-0.062-0.711-0.179l-6.121-8.676h-0.06v7.248c-0.04,0.318,0.139,0.535,0.536,0.654
				c0.314,0.08,0.475,0.219,0.475,0.416C91.513,109.798,91.295,109.955,90.858,109.955z"/>
		</g>
		<g>
			<path d="M23.023,94.981v-6.179c0-0.182-0.122-0.317-0.364-0.408c-0.182-0.091-0.272-0.227-0.272-0.409
				c-0.03-0.211,0.152-0.317,0.544-0.317h2.409c3.634,0.03,5.481,1.438,5.542,4.224c-0.121,2.788-1.697,4.209-4.725,4.27h-3.226
				c-0.393,0-0.575-0.12-0.544-0.363c0-0.15,0.091-0.257,0.272-0.318C22.901,95.39,23.023,95.223,23.023,94.981z M24.75,89.528V94.3
				c-0.122,0.878,0.197,1.241,0.954,1.09c2.089-0.06,3.195-1.226,3.316-3.498c-0.091-2.211-1.197-3.361-3.316-3.452
				C24.947,88.318,24.627,88.682,24.75,89.528z"/>
			<path d="M36.787,96.161h-0.908c-0.425,0-0.591-0.212-0.5-0.636h-0.047c-0.363,0.424-0.982,0.651-1.862,0.681
				c-1.303-0.029-1.983-0.574-2.044-1.634c0.091-1.334,1.363-2.061,3.815-2.182c-0.06-0.756-0.438-1.164-1.134-1.226
				c-0.363,0-0.712,0.136-1.045,0.409c-0.272,0.182-0.514,0.272-0.727,0.272c-0.334,0-0.5-0.151-0.5-0.454
				c0.091-0.514,0.818-0.817,2.181-0.907c1.787,0.03,2.695,0.711,2.725,2.041v2.501c0,0.241,0.106,0.423,0.319,0.544
				c0.182,0.091,0.272,0.166,0.272,0.227C37.361,96.041,37.179,96.161,36.787,96.161z M35.241,94.346v-1.364
				c-1.333,0.091-2.073,0.608-2.225,1.546c0.061,0.695,0.423,1.06,1.091,1.09C34.742,95.587,35.121,95.163,35.241,94.346z"/>
			<path d="M39.967,90.621h0.954c0.273,0,0.424,0.122,0.454,0.363c-0.03,0.272-0.181,0.394-0.454,0.363h-0.954v3.362
				c-0.061,0.543,0.196,0.785,0.772,0.726c0.484,0,0.711,0.105,0.681,0.317c0,0.272-0.137,0.408-0.408,0.408h-1.636
				c-0.697,0-0.999-0.257-0.908-0.771v-4.042h-0.501c-0.302,0.03-0.438-0.091-0.408-0.363c0-0.241,0.211-0.363,0.635-0.363
				c0.516-0.03,0.879-0.483,1.091-1.363c0.122-0.455,0.258-0.683,0.409-0.683c0.182,0,0.273,0.152,0.273,0.454V90.621z"/>
			<path d="M47.1,96.161h-0.908c-0.425,0-0.592-0.212-0.5-0.636h-0.047c-0.363,0.424-0.983,0.651-1.862,0.681
				c-1.302-0.029-1.983-0.574-2.043-1.634c0.091-1.334,1.364-2.061,3.816-2.182c-0.061-0.756-0.439-1.164-1.136-1.226
				c-0.363,0-0.712,0.136-1.045,0.409c-0.271,0.182-0.514,0.272-0.726,0.272c-0.334,0-0.5-0.151-0.5-0.454
				c0.09-0.514,0.818-0.817,2.182-0.907c1.786,0.03,2.694,0.711,2.724,2.041v2.501c0,0.241,0.106,0.423,0.32,0.544
				c0.181,0.091,0.272,0.166,0.272,0.227C47.674,96.041,47.493,96.161,47.1,96.161z M45.555,94.346v-1.364
				c-1.333,0.091-2.075,0.608-2.226,1.546c0.061,0.695,0.424,1.06,1.09,1.09C45.055,95.587,45.434,95.163,45.555,94.346z"/>
			<path d="M52.505,88.803v6.179c0,0.241,0.121,0.408,0.363,0.498c0.242,0.062,0.363,0.168,0.363,0.318
				c0,0.243-0.166,0.363-0.499,0.363h-2.134c-0.365,0-0.531-0.12-0.5-0.363c0-0.15,0.105-0.257,0.318-0.318
				c0.272-0.09,0.409-0.257,0.409-0.498v-6.179c0-0.243-0.199-0.363-0.592-0.363c-0.575,0-1.089,0.227-1.543,0.682
				c-0.243,0.211-0.425,0.316-0.546,0.316c-0.212,0.031-0.303-0.09-0.272-0.362c0-0.121,0.045-0.423,0.136-0.907
				c0-0.092,0.015-0.151,0.046-0.183c0.03-0.211,0.181-0.317,0.453-0.317h6.315c0.212,0,0.363,0.106,0.454,0.317
				c0,0.031,0,0.091,0,0.183c0.122,0.453,0.184,0.755,0.184,0.907c0,0.272-0.091,0.394-0.274,0.362
				c-0.151,0.031-0.348-0.074-0.59-0.316c-0.453-0.455-0.955-0.682-1.499-0.682C52.671,88.439,52.475,88.56,52.505,88.803z"/>
			<path d="M55.729,93.526c0.062-1.968,1.167-2.98,3.317-3.041c1.454,0.09,2.21,0.636,2.27,1.634
				c-0.06,1.089-1.346,1.728-3.86,1.908c0.181,0.908,0.71,1.378,1.59,1.408c0.575,0,1.12-0.228,1.635-0.682l0.045-0.044
				c0.122-0.152,0.257-0.228,0.41-0.228c0.149,0.029,0.24,0.121,0.273,0.271c-0.365,0.878-1.273,1.361-2.727,1.452
				C56.836,96.115,55.852,95.223,55.729,93.526z M58.956,91.121c-1.061,0.06-1.605,0.815-1.636,2.269
				c1.605-0.117,2.423-0.605,2.454-1.453C59.743,91.423,59.47,91.15,58.956,91.121z"/>
			<path d="M61.864,93.479c0.119-1.845,1.136-2.843,3.043-2.994c1.271,0.09,1.983,0.499,2.134,1.226
				c-0.03,0.363-0.272,0.543-0.726,0.543c-0.212,0.031-0.425-0.135-0.637-0.498c-0.242-0.424-0.514-0.635-0.815-0.635
				c-0.911,0.09-1.379,0.877-1.41,2.358c0.061,1.215,0.605,1.864,1.636,1.956c0.454,0,0.909-0.198,1.362-0.59
				c0.212-0.213,0.364-0.318,0.454-0.318c0.182,0.03,0.272,0.136,0.272,0.318c-0.332,0.848-1.135,1.3-2.407,1.36
				C62.924,96.146,61.954,95.237,61.864,93.479z"/>
			<path d="M69.722,88.076v3.045c0.515-0.394,1.12-0.605,1.816-0.636c1.394,0,2.091,0.756,2.091,2.269v2.228
				c0,0.302,0.105,0.498,0.317,0.59c0.151,0.061,0.227,0.151,0.227,0.271c0,0.213-0.136,0.318-0.408,0.318h-1.771
				c-0.304,0-0.439-0.105-0.41-0.318c0-0.12,0.061-0.211,0.184-0.271c0.21-0.092,0.332-0.288,0.362-0.59v-2.137
				c0.062-1.028-0.334-1.528-1.181-1.497c-0.756,0.061-1.167,0.483-1.227,1.271v2.363c-0.031,0.302,0.075,0.498,0.318,0.59
				c0.152,0.061,0.227,0.151,0.227,0.271c0,0.213-0.137,0.318-0.409,0.318h-1.771c-0.304,0-0.44-0.105-0.41-0.318
				c0-0.12,0.061-0.211,0.182-0.271c0.242-0.092,0.362-0.288,0.362-0.59v-6.179c0-0.182-0.134-0.348-0.407-0.499
				c-0.151-0.061-0.227-0.151-0.227-0.271c0-0.093,0.06-0.168,0.182-0.228c0.03,0,0.061-0.015,0.09-0.046
				c0.605-0.272,1.091-0.425,1.454-0.454C69.615,87.274,69.752,87.532,69.722,88.076z"/>
		</g>
	</g>
	<path d="M97.78,89.114c-0.055-0.029-0.112-0.066-0.17-0.114c-0.058-0.042-0.121-0.115-0.192-0.213
		c-0.163-0.218-0.299-0.405-0.411-0.56c-0.111-0.151-0.252-0.341-0.423-0.563c0.123-0.036,0.235-0.081,0.338-0.131
		c0.101-0.05,0.188-0.111,0.261-0.181c0.079-0.072,0.139-0.161,0.178-0.264c0.042-0.1,0.061-0.219,0.061-0.351
		c0-0.145-0.03-0.273-0.089-0.375c-0.061-0.104-0.142-0.188-0.241-0.251c-0.103-0.067-0.218-0.115-0.344-0.146
		c-0.127-0.03-0.264-0.043-0.409-0.043h-1.582v0.17c0.046,0.003,0.099,0.012,0.163,0.023c0.066,0.014,0.116,0.025,0.157,0.041
		c0.061,0.022,0.097,0.053,0.115,0.1c0.016,0.042,0.022,0.09,0.022,0.147v2.48c0,0.064-0.011,0.113-0.032,0.155
		c-0.021,0.038-0.057,0.069-0.105,0.091c-0.027,0.015-0.079,0.024-0.154,0.032c-0.072,0.007-0.127,0.013-0.166,0.016v0.173h1.449
		v-0.173c-0.048-0.003-0.111-0.006-0.185-0.016c-0.069-0.012-0.12-0.021-0.151-0.032c-0.058-0.021-0.097-0.055-0.111-0.097
		c-0.021-0.043-0.027-0.094-0.027-0.149v-1.09h0.35c0.194,0.25,0.373,0.491,0.537,0.725c0.166,0.233,0.351,0.511,0.556,0.832h0.923
		v-0.173c-0.042-0.003-0.095-0.009-0.158-0.018C97.875,89.15,97.823,89.133,97.78,89.114 M96.047,87.59H95.73v-1.468h0.412
		c0.214,0,0.383,0.06,0.503,0.182c0.119,0.12,0.178,0.287,0.178,0.493c0,0.245-0.073,0.438-0.222,0.581S96.268,87.59,96.047,87.59"
		/>
	<path d="M96.308,84.506c-1.694,0-3.07,1.377-3.07,3.071c0,1.691,1.376,3.067,3.07,3.067c1.693,0,3.071-1.376,3.071-3.067
		C99.379,85.883,98.001,84.506,96.308,84.506 M96.308,90.389c-1.549,0-2.812-1.262-2.812-2.812c0-1.552,1.263-2.812,2.812-2.812
		c1.55,0,2.812,1.26,2.812,2.812C99.119,89.127,97.857,90.389,96.308,90.389"/>
</g>
</svg>
