<?xml version="1.0" standalone="no"?><!DOCTYPE svg PUBLIC "-//W3C//DTD SVG 1.1//EN" "http://www.w3.org/Graphics/SVG/1.1/DTD/svg11.dtd"><svg t="1481294717154" class="icon" style="" viewBox="0 0 1024 1024" version="1.1" xmlns="http://www.w3.org/2000/svg" p-id="2225" xmlns:xlink="http://www.w3.org/1999/xlink" width="200" height="200"><defs><style type="text/css">.svgcolor{fill:#e84c3d}</style></defs><path class="svgcolor" d="M964.714244 535.036669c-14.601556 14.600533-38.268582 14.600533-52.849672 0L525.983991 150.260236 203.246519 472.084918l23.451108 0c41.280172 0 74.748425 33.460066 74.748425 74.749448l0 39.711444 0.092098 0 0.199545 225.086431c2.499937 24.206308 11.042497 30.940686 37.739533 32.8205 32.977066-2.417049 36.589336-12.574387 36.917818-53.880141l-0.12689-94.950536c0.382717-40.943504 33.633005-74.03825 74.67577-74.03825l37.374212 0 0-0.931209 74.749448-0.107447 0 1.040702 37.372166 0c41.281195 0 74.749448 33.468253 74.749448 74.748425l0 39.711444 0.127913 0 0.071631 47.092551 0.109494-12.618389c0 58.534138-0.36532 71.080895 37.045731 73.835635 31.461549-2.509147 36.681434-12.127202 37.484729-48.587602l-0.329505 48.999994 0.548492 0-0.073678-62.012356c0 4.700045-0.054235 8.996908-0.145309 13.012362l0.145309-21.918195-0.217964-228.727355c0-20.640086 16.71673-37.373189 37.372166-37.373189 20.620643 0 37.373189 16.73515 37.373189 37.373189l0.25685 259.833817-0.274246 0 0 39.71042c0 41.280172-33.469276 74.749448-74.750471 74.749448l-37.373189 0-37.374212 0c-40.256866 0-72.832795-31.891338-74.437339-71.747067l-0.147356-96.383164-0.327458-14.836917c0.146333 1.971911 0.218988 4.214998 0.291642 6.386454l-0.055259-47.593971-20.584827 0.026606 19.435655 0.127913 0.912789 41.050951c-2.300392-32.894178-11.388375-39.718607-45.258787-41.143049l-61.866023 0.092098c-31.352055 1.589195-39.747259 8.541537-41.974997 37.730323l0.822738-37.666878-0.985444 0 0.055259 38.996153c0.037862-0.462534 0.073678-0.873903 0.10847-1.331321l-0.10847 4.816702 0.10847 67.01223-0.23536 0 0 39.71042c0 41.280172-33.469276 74.749448-74.749448 74.749448L338.817194 919.41299l-37.374212 0c-40.186258 0-72.704882-31.782867-74.438363-71.53729l-0.254803-302.114782-15.803941 0.045025 14.674211 0.091074 0.326435 49.967018c-0.857531-40.029692-6.588045-48.315402-42.557258-50.002834l-67.431785 0.154519c-3.155876 0.246617-6.204305-0.147356-9.342786-0.703011-0.291642-0.055259-0.602727-0.10847-0.89437-0.173962-6.933923-1.414209-13.650905-4.124947-19.052938-9.508561-5.40101-5.40101-8.101515-12.144598-9.528004-19.10615-0.035816-0.255827-0.090051-0.511653-0.145309-0.776689-0.729617-4.00522-0.821715-7.90197-0.218988-11.924587 0.218988-1.670036 0.511653-3.304256 0.948605-4.900613 0.530073-1.861394 0.985444-3.648087 1.824555-5.429663 1.660826-3.731998 3.942799-7.099698 6.678096-10.06524 0.184195-0.200568 0.255827-0.465604 0.438998-0.656963L496.620219 73.977875c0.87595-1.122567 1.296529-2.482541 2.336208-3.52222 14.600533-14.59951 38.250162-14.59951 52.849672 0l0.548492 0.538259c0.017396 0.027629 0.034792 0.027629 0.070608 0.045025 0.020466 0.019443 0.020466 0.046049 0.037862 0.064468l412.249135 411.082566C979.313753 496.776274 979.313753 520.446369 964.714244 535.036669zM675.48084 844.926532l17.758456-0.034792-17.758456-0.118704L675.48084 844.926532zM301.756113 844.926532l17.73799-0.034792-17.73799-0.118704L301.756113 844.926532 301.756113 844.926532zM225.948567 595.860966c0.183172 7.67275 0.183172 16.434298 0.183172 26.616194L225.948567 595.860966z" p-id="2226"></path></svg>