<?xml version="1.0" standalone="no"?><!DOCTYPE svg PUBLIC "-//W3C//DTD SVG 1.1//EN" "http://www.w3.org/Graphics/SVG/1.1/DTD/svg11.dtd"><svg t="1481297230266" class="icon" style="" viewBox="0 0 1024 1024" version="1.1" xmlns="http://www.w3.org/2000/svg" p-id="992" xmlns:xlink="http://www.w3.org/1999/xlink" width="200" height="200"><defs><style type="text/css">.svgcolor{fill:#969696}</style></defs><path class="svgcolor" d="M537.6 985.6h-57.6c-115.2 0-128-44.8-128-140.8v-12.8c0-12.8 12.8-25.6 25.6-25.6s25.6 12.8 25.6 25.6v12.8c0 83.2 0 89.6 76.8 89.6h57.6c76.8 0 96-12.8 96-89.6v-12.8c0-12.8 12.8-25.6 25.6-25.6s25.6 12.8 25.6 25.6v12.8c6.4 102.4-38.4 140.8-147.2 140.8z" fill="" p-id="993"></path><path class="svgcolor" d="M972.8 742.4c0 64-51.2 115.2-115.2 115.2h-684.8c-64 0-115.2-51.2-115.2-115.2v-6.4c0-64 51.2-115.2 115.2-115.2h684.8c64 0 115.2 51.2 115.2 115.2v6.4z m-57.6-6.4c0-32-25.6-57.6-57.6-57.6h-684.8c-32 0-57.6 25.6-57.6 57.6v6.4c0 32 25.6 57.6 57.6 57.6h684.8c32 0 57.6-25.6 57.6-57.6v-6.4z" fill="" p-id="994"></path><path class="svgcolor" d="M844.8 672c-12.8 0-25.6-12.8-25.6-25.6v-262.4c0-160-134.4-288-294.4-288h-19.2c-160 0-281.6 128-281.6 288v262.4c0 12.8-12.8 25.6-25.6 25.6s-25.6-12.8-25.6-25.6v-262.4c0-192 147.2-345.6 339.2-345.6h19.2c192 0 345.6 153.6 345.6 345.6v262.4c-6.4 12.8-19.2 25.6-32 25.6z" fill="" p-id="995"></path><path class="svgcolor" d="M755.2 435.2c-6.4 0-12.8-6.4-12.8-12.8 0-102.4-57.6-192-153.6-230.4-6.4 0-12.8-12.8-6.4-19.2 0-6.4 12.8-12.8 19.2-6.4 102.4 44.8 166.4 147.2 166.4 256 0 6.4-6.4 12.8-12.8 12.8zM512 172.8h-25.6c-6.4 0-12.8-6.4-12.8-12.8s6.4-12.8 12.8-12.8h25.6c6.4 0 12.8 6.4 12.8 12.8s-6.4 12.8-12.8 12.8z" fill="" p-id="996"></path></svg>