<?xml version="1.0" standalone="no"?><!DOCTYPE svg PUBLIC "-//W3C//DTD SVG 1.1//EN" "http://www.w3.org/Graphics/SVG/1.1/DTD/svg11.dtd"><svg t="1481375164077" class="icon" style="" viewBox="0 0 1024 1024" version="1.1" xmlns="http://www.w3.org/2000/svg" p-id="9968" xmlns:xlink="http://www.w3.org/1999/xlink" width="200" height="200"><defs><style type="text/css"></style></defs><path d="M853.333333 370.56l0-199.893333-199.893333 0-141.44-141.44-141.44 141.44-199.893333 0 0 199.893333-141.44 141.44 141.44 141.44 0 199.893333 199.893333 0 141.44 141.44 141.44-141.44 199.893333 0 0-199.893333 141.44-141.44-141.44-141.44zM512 768c-141.44 0-256-114.56-256-256s114.56-256 256-256 256 114.56 256 256-114.56 256-256 256zM512 341.333333c-94.293333 0-170.666667 76.373333-170.666667 170.666667s76.373333 170.666667 170.666667 170.666667 170.666667-76.373333 170.666667-170.666667-76.373333-170.666667-170.666667-170.666667z" p-id="9969" fill="#ffffff"></path></svg>