<?xml version="1.0" standalone="no"?><!DOCTYPE svg PUBLIC "-//W3C//DTD SVG 1.1//EN" "http://www.w3.org/Graphics/SVG/1.1/DTD/svg11.dtd"><svg t="1481367299326" class="icon" style="" viewBox="0 0 1025 1024" version="1.1" xmlns="http://www.w3.org/2000/svg" p-id="8329" xmlns:xlink="http://www.w3.org/1999/xlink" width="200.1953125" height="200"><defs><style type="text/css"></style></defs><path d="M1005.248485 309.664l-162.56-162.592c-12-12-28.32-18.752-45.248-18.752l-570.848 0c-16.96 0-33.248 6.752-45.248 18.752l-162.56 162.592c-12.576 12.544-18.848 29.088-18.784 45.664 0.096 15.04 5.472 30.048 16.192 42.112l447.968 477.056c12.16 13.696 29.568 21.504 47.84 21.504s35.68-7.808 47.808-21.504l448-477.056c10.944-12.32 16.32-27.744 16.192-43.136-0.128-16.192-6.432-32.32-18.752-44.64zM583.008485 352.32l-142.048 0 71.04-59.168 71.008 59.168zM537.024485 272.32l87.424-72.896 64.576 64.576-81.024 67.488-70.976-59.168zM416.000485 331.488l-81.024-67.488 64.576-64.576 87.456 72.896-71.008 59.168zM591.680485 384.32l-79.68 398.496-79.68-398.496 159.36 0zM624.320485 384.32l156.992 0-235.488 392.608 78.496-392.608zM632.928485 352.32l78.816-65.632 65.632 65.632-144.448 0zM662.624485 192.32l112.384 0-61.312 51.104-51.072-51.104zM512.000485 251.52l-71.04-59.2 142.016 0-70.976 59.2zM310.272485 243.424l-61.312-51.104 112.416 0-51.104 51.104zM312.256485 286.688l78.784 65.632-144.416 0 65.632-65.632zM399.680485 384.32l78.496 392.608-235.52-392.608 157.024 0zM406.528485 719.616l-314.88-335.296 113.728 0 201.152 335.296zM818.624485 384.32l113.76 0-314.944 335.36 201.184-335.36zM822.624485 352.32l-86.176-86.176 73.504-61.28 147.424 147.456-134.752 0zM213.952485 204.8l73.632 61.344-86.208 86.176-137.184 0 149.76-147.52z" p-id="8330" fill="#ffffff"></path></svg>