<?xml version="1.0" encoding="utf-8"?>
<!-- Generator: Adobe Illustrator 17.0.0, SVG Export Plug-In . SVG Version: 6.00 Build 0)  -->
<!DOCTYPE svg PUBLIC "-//W3C//DTD SVG 1.1//EN" "http://www.w3.org/Graphics/SVG/1.1/DTD/svg11.dtd">
<svg version="1.1" id="图层_1" xmlns="http://www.w3.org/2000/svg" xmlns:xlink="http://www.w3.org/1999/xlink" x="0px" y="0px"
	 width="165.999px" height="166px" viewBox="0 0 165.999 166" enable-background="new 0 0 165.999 166" xml:space="preserve">
<g id="duo">
	<path fill="#ea6868" d="M145.999,0H20.001c-11.046,0-20,8.954-20,20v126c0,11.047,8.954,20,20,20h125.999c11.047,0,20-8.953,20-20
		V20C165.999,8.954,157.048,0,145.999,0z M56.225,51.103l8.906-5.344c1.183,0.891,3.117,2.38,5.789,4.453
		c4.745,3.562,8.607,6.534,11.578,8.906l-1.336,0.891c10.688-4.453,20.331-9.797,28.945-16.031h-42.75
		c-5.942,4.161-14.994,9.06-27.164,14.695c-0.299-0.591-0.891-1.482-1.781-2.672c-1.781-2.964-3.271-5.19-4.453-6.68
		c18.404-7.417,32.8-16.031,43.195-25.828l13.805,1.781c-3.562,3.271-7.125,6.234-10.688,8.906h46.758v10.688
		c-21.974,18.411-52.846,31.917-92.625,40.523c-0.299-0.591-0.744-1.481-1.336-2.672c-0.299-1.481-1.336-4.008-3.117-7.57
		c16.031-3.263,29.683-6.972,40.969-11.132C65.278,58.673,60.379,54.374,56.225,51.103z M131.928,88.064
		c-21.083,22.565-53.438,36.961-97.078,43.195c-0.891-3.271-2.227-6.68-4.008-10.242c20.776-2.964,36.362-6.526,46.758-10.688
		c-1.489-1.481-3.716-3.562-6.68-6.234c-2.971-2.672-5.197-4.745-6.68-6.234l9.797-4.898c1.781,1.489,4.3,3.562,7.57,6.234
		c3.264,2.672,5.636,4.753,7.125,6.234c10.089-4.745,19.295-10.688,27.609-17.812h-35.18c-11.877,7.724-24.938,14.104-39.188,19.148
		c-2.971-5.344-5.052-8.753-6.234-10.242c22.857-7.125,40.815-16.622,53.883-28.5l13.359,2.227c-3.271,2.672-6.234,5.198-8.906,7.57
		h37.852L131.928,88.064L131.928,88.064L131.928,88.064z"/>
</g>
</svg>
