<?xml version="1.0" standalone="no"?><!DOCTYPE svg PUBLIC "-//W3C//DTD SVG 1.1//EN" "http://www.w3.org/Graphics/SVG/1.1/DTD/svg11.dtd"><svg t="1481376620448" class="icon" style="" viewBox="0 0 1024 1024" version="1.1" xmlns="http://www.w3.org/2000/svg" p-id="10909" xmlns:xlink="http://www.w3.org/1999/xlink" width="200" height="200"><defs><style type="text/css"></style></defs><path d="M469.333333 173.653333l0-86.186667c-85.76 8.533333-163.84 42.666667-227.2 94.293333l60.8 60.8c47.36-36.48 104.106667-61.226667 166.4-68.906667zM781.866667 181.76c-63.146667-51.626667-141.44-85.76-227.2-94.293333l0 86.186667c62.293333 7.893333 119.04 32.426667 166.4 69.12l60.8-61.013333zM850.346667 469.333333l86.186667 0c-8.533333-85.76-42.666667-163.84-94.293333-227.2l-60.8 60.8c36.48 47.36 61.226667 104.106667 68.906667 166.4zM242.773333 302.933333l-60.8-60.8c-51.84 63.36-85.973333 141.44-94.506667 227.2l86.186667 0c7.893333-62.293333 32.426667-119.04 69.12-166.4zM173.653333 554.666667l-86.186667 0c8.533333 85.76 42.666667 163.84 94.293333 227.2l60.8-60.8c-36.48-47.36-61.013333-104.32-68.906667-166.4zM640 512c0-70.613333-57.386667-128-128-128s-128 57.386667-128 128 57.386667 128 128 128 128-57.386667 128-128zM781.226667 720.853333l60.8 60.8c51.84-63.146667 85.973333-141.226667 94.506667-226.986667l-86.186667 0c-7.68 62.08-32.426667 119.04-69.12 166.186667zM554.666667 850.346667l0 86.186667c85.76-8.533333 163.84-42.666667 227.2-94.293333l-60.8-60.8c-47.36 36.48-104.106667 61.013333-166.4 68.906667zM242.133333 842.24c63.36 51.626667 141.44 85.76 227.2 94.293333l0-86.186667c-62.293333-7.893333-119.04-32.426667-166.4-69.12l-60.8 61.013333z" p-id="10910" fill="#ffffff"></path></svg>