<?xml version="1.0" standalone="no"?><!DOCTYPE svg PUBLIC "-//W3C//DTD SVG 1.1//EN" "http://www.w3.org/Graphics/SVG/1.1/DTD/svg11.dtd"><svg t="1481296983562" class="icon" style="" viewBox="0 0 1024 1024" version="1.1" xmlns="http://www.w3.org/2000/svg" p-id="2022" xmlns:xlink="http://www.w3.org/1999/xlink" width="200" height="200"><defs><style type="text/css">.svgcolor{fill:#969696}</style></defs><path class="svgcolor" d="M198.4 992c-12.8 0-19.2-6.4-25.6-12.8-12.8-19.2-6.4-38.4 0-44.8l96-345.6h-57.6c-19.2 0-38.4-6.4-51.2-25.6-6.4-19.2-6.4-38.4 0-57.6l230.4-422.4c19.2-32 57.6-51.2 89.6-51.2h339.2c25.6 0 38.4 6.4 44.8 25.6 6.4 19.2 6.4 38.4-6.4 51.2l-243.2 307.2h102.4c32 0 44.8 19.2 44.8 25.6 0 6.4 6.4 32-19.2 51.2l-518.4 480c-6.4 12.8-12.8 19.2-25.6 19.2z m121.6-390.4l-76.8 288 448-416h-83.2c-25.6 0-38.4-6.4-44.8-25.6-6.4-19.2-6.4-38.4 6.4-51.2l243.2-307.2h-320c-12.8 0-32 12.8-38.4 25.6l-230.4 416h51.2c19.2 0 38.4 6.4 51.2 25.6-6.4 6.4 0 25.6-6.4 44.8z" fill="" p-id="2023"></path><path class="svgcolor" d="M377.6 377.6h-6.4c-6.4-6.4-6.4-12.8-6.4-19.2l12.8-25.6c6.4-6.4 12.8-6.4 19.2-6.4 6.4 6.4 6.4 12.8 6.4 19.2l-12.8 25.6c-6.4 0-12.8 6.4-12.8 6.4z m38.4-76.8h-6.4c-6.4-6.4-6.4-12.8-6.4-19.2l64-108.8c12.8-25.6 44.8-38.4 70.4-38.4h38.4c6.4 0 12.8 6.4 12.8 12.8s-6.4 12.8-12.8 12.8h-38.4c-12.8 0-32 12.8-44.8 25.6l-64 108.8c0 6.4-6.4 6.4-12.8 6.4z" fill="" p-id="2024"></path></svg>