<?xml version="1.0" encoding="utf-8"?>
<!-- Generator: Adobe Illustrator 16.0.0, SVG Export Plug-In . SVG Version: 6.00 Build 0)  -->
<!DOCTYPE svg PUBLIC "-//W3C//DTD SVG 1.1//EN" "http://www.w3.org/Graphics/SVG/1.1/DTD/svg11.dtd">
<svg version="1.1" id="图层_1" xmlns="http://www.w3.org/2000/svg" xmlns:xlink="http://www.w3.org/1999/xlink" x="0px" y="0px"
	 width="200px" height="200px" viewBox="0 0 200 200" enable-background="new 0 0 200 200" xml:space="preserve">
<path fill="#E84C3D" d="M168.75,11.25c-1.25-3.75-3.75-5-8.75-5H93.75c-6.25,0-13.75,3.75-17.5,10l-45,82.5
	c-1.25,3.75-1.25,7.5,0,11.25c2.5,3.75,6.25,5,10,5H52.5l-18.75,67.5c-1.25,1.25-2.5,5,0,8.75c1.25,1.25,2.5,2.5,5,2.5
	s3.75-1.25,5-3.75L145,96.25c5-3.75,3.75-8.75,3.75-10s-2.5-5-8.75-5h-20l47.5-60C170,18.75,170,15,168.75,11.25z M76.25,72.5
	c-1.25,0-2.5,1.25-2.5,1.25H72.5c-1.25-1.25-1.25-2.5-1.25-3.75l2.5-5c1.25-1.25,2.5-1.25,3.75-1.25c1.25,1.25,1.25,2.5,1.25,3.75
	L76.25,72.5z M112.5,31.25H105c-2.5,0-6.25,2.5-8.75,5L83.75,57.5c0,1.25-1.25,1.25-2.5,1.25H80c-1.25-1.25-1.25-2.5-1.25-3.75
	l12.5-21.25c2.5-5,8.75-7.5,13.75-7.5h7.5c1.25,0,2.5,1.25,2.5,2.5S113.75,31.25,112.5,31.25z"/>
</svg>
