<?xml version="1.0" encoding="utf-8"?>
<!-- Generator: Adobe Illustrator 16.0.0, SVG Export Plug-In . SVG Version: 6.00 Build 0)  -->
<!DOCTYPE svg PUBLIC "-//W3C//DTD SVG 1.1//EN" "http://www.w3.org/Graphics/SVG/1.1/DTD/svg11.dtd">
<svg version="1.1" id="图层_1" xmlns="http://www.w3.org/2000/svg" xmlns:xlink="http://www.w3.org/1999/xlink" x="0px" y="0px"
	 width="28.35px" height="28.35px" viewBox="0 0 28.35 28.35" enable-background="new 0 0 28.35 28.35" xml:space="preserve">
<g>
	<path fill="#231815" d="M24.26,12.508c-0.63,0-1.14,0.508-1.14,1.139c0,0.625,0.51,1.138,1.14,1.138s1.138-0.513,1.138-1.138
		C25.397,13.017,24.89,12.508,24.26,12.508z"/>
	<path fill="#231815" d="M24.26,9.359c-0.63,0-1.14,0.509-1.14,1.139c0,0.625,0.51,1.138,1.14,1.138s1.138-0.514,1.138-1.138
		C25.397,9.868,24.89,9.359,24.26,9.359z"/>
	<circle fill="#231815" cx="26.492" cy="15.221" r="1.061"/>
	<path fill="#231815" d="M26.492,13.133c0.587,0,1.066-0.475,1.066-1.061c0-0.586-0.479-1.066-1.066-1.066
		c-0.586,0-1.061,0.479-1.061,1.066C25.432,12.658,25.906,13.133,26.492,13.133z"/>
	<circle fill="#231815" cx="22.025" cy="18.371" r="1.211"/>
	<circle fill="#231815" cx="24.26" cy="16.796" r="1.138"/>
	<circle fill="#231815" cx="1.917" cy="13.649" r="0.545"/>
	<circle fill="#231815" cx="22.025" cy="15.222" r="1.211"/>
	<circle fill="#231815" cx="22.025" cy="12.072" r="1.211"/>
	<path fill="#231815" d="M19.792,14.785c0.625,0,1.139-0.513,1.139-1.138c0-0.63-0.514-1.139-1.139-1.139
		c-0.63,0-1.139,0.508-1.139,1.139C18.653,14.272,19.162,14.785,19.792,14.785z"/>
	<path fill="#231815" d="M17.559,14.161c-0.587,0-1.066,0.475-1.066,1.061c0,0.587,0.479,1.061,1.066,1.061
		c0.586,0,1.061-0.474,1.061-1.061C18.619,14.636,18.145,14.161,17.559,14.161z"/>
	<path fill="#231815" d="M17.559,4.712c-0.587,0-1.066,0.474-1.066,1.061c0,0.585,0.479,1.061,1.066,1.061
		c0.586,0,1.061-0.475,1.061-1.061C18.619,5.187,18.145,4.712,17.559,4.712z"/>
	<path fill="#231815" d="M15.324,6.359c-0.547,0-0.988,0.441-0.988,0.989c0,0.547,0.441,0.989,0.988,0.989
		c0.543,0,0.989-0.441,0.989-0.989C16.313,6.8,15.867,6.359,15.324,6.359z"/>
	<path fill="#231815" d="M15.324,3.21c-0.547,0-0.988,0.441-0.988,0.989c0,0.547,0.441,0.988,0.988,0.988
		c0.543,0,0.989-0.44,0.989-0.988C16.313,3.651,15.867,3.21,15.324,3.21z"/>
	<path fill="#231815" d="M15.324,12.658c-0.547,0-0.988,0.441-0.988,0.989c0,0.547,0.441,0.989,0.988,0.989
		c0.543,0,0.989-0.441,0.989-0.989C16.313,13.099,15.867,12.658,15.324,12.658z"/>
	<path fill="#231815" d="M15.324,9.509c-0.547,0-0.988,0.441-0.988,0.989c0,0.547,0.441,0.988,0.988,0.988
		c0.543,0,0.989-0.441,0.989-0.988C16.313,9.95,15.867,9.509,15.324,9.509z"/>
	<path fill="#231815" d="M13.091,14.306c-0.509,0-0.916,0.412-0.916,0.916s0.407,0.915,0.916,0.915c0.503,0,0.911-0.411,0.911-0.915
		S13.595,14.306,13.091,14.306z"/>
	<path fill="#231815" d="M13.091,4.857c-0.509,0-0.916,0.412-0.916,0.916c0,0.503,0.407,0.915,0.916,0.915
		c0.503,0,0.911-0.412,0.911-0.915C14.002,5.269,13.595,4.857,13.091,4.857z"/>
	<path fill="#231815" d="M13.091,11.156c-0.509,0-0.916,0.412-0.916,0.916c0,0.503,0.407,0.915,0.916,0.915
		c0.503,0,0.911-0.412,0.911-0.915C14.002,11.568,13.595,11.156,13.091,11.156z"/>
	<path fill="#231815" d="M13.091,8.006c-0.509,0-0.916,0.413-0.916,0.916c0,0.504,0.407,0.916,0.916,0.916
		c0.503,0,0.911-0.412,0.911-0.916C14.002,8.419,13.595,8.006,13.091,8.006z"/>
	<circle fill="#231815" cx="10.852" cy="13.644" r="0.841"/>
	<circle fill="#231815" cx="10.852" cy="10.495" r="0.841"/>
	<circle fill="#231815" cx="10.852" cy="7.345" r="0.841"/>
	<path fill="#231815" d="M8.618,11.307c-0.421,0-0.765,0.344-0.765,0.766c0,0.421,0.344,0.765,0.765,0.765
		c0.427,0,0.766-0.344,0.766-0.765C9.384,11.65,9.045,11.307,8.618,11.307z"/>
	<path fill="#231815" d="M8.618,8.157c-0.421,0-0.765,0.344-0.765,0.765c0,0.422,0.344,0.766,0.765,0.766
		c0.427,0,0.766-0.344,0.766-0.766C9.384,8.501,9.045,8.157,8.618,8.157z"/>
	<circle fill="#231815" cx="6.385" cy="10.497" r="0.693"/>
	<circle fill="#231815" cx="6.385" cy="13.647" r="0.693"/>
	<path fill="#231815" d="M4.151,14.602c-0.344,0-0.62,0.276-0.62,0.62c0,0.344,0.276,0.62,0.62,0.62c0.339,0,0.62-0.276,0.62-0.62
		C4.771,14.877,4.49,14.602,4.151,14.602z"/>
	<path fill="#231815" d="M4.151,11.452c-0.344,0-0.62,0.277-0.62,0.621c0,0.339,0.276,0.62,0.62,0.62c0.339,0,0.62-0.281,0.62-0.62
		C4.771,11.729,4.49,11.452,4.151,11.452z"/>
	<path fill="#231815" d="M1.917,16.248c-0.301,0-0.543,0.248-0.543,0.548c0,0.301,0.242,0.548,0.543,0.548
		c0.3,0,0.547-0.247,0.547-0.548C2.465,16.496,2.218,16.248,1.917,16.248z"/>
	<path fill="#231815" d="M19.792,18.807c-0.63,0-1.139,0.509-1.139,1.14c0,0.629,0.509,1.138,1.139,1.138
		c0.625,0,1.139-0.509,1.139-1.138C20.931,19.315,20.417,18.807,19.792,18.807z"/>
	<path fill="#231815" d="M19.792,17.935c0.625,0,1.139-0.508,1.139-1.139c0-0.63-0.514-1.138-1.139-1.138
		c-0.63,0-1.139,0.508-1.139,1.138C18.653,17.427,19.162,17.935,19.792,17.935z"/>
	<path fill="#231815" d="M17.559,20.46c-0.587,0-1.066,0.474-1.066,1.061s0.479,1.061,1.066,1.061c0.586,0,1.061-0.474,1.061-1.061
		S18.145,20.46,17.559,20.46z"/>
	<path fill="#231815" d="M17.559,17.311c-0.587,0-1.066,0.475-1.066,1.061s0.479,1.062,1.066,1.062c0.586,0,1.061-0.476,1.061-1.062
		S18.145,17.311,17.559,17.311z"/>
	<path fill="#231815" d="M15.324,18.957c-0.547,0-0.994,0.441-0.994,0.989c0,0.547,0.447,0.987,0.994,0.987
		c0.543,0,0.989-0.44,0.989-0.987C16.313,19.398,15.867,18.957,15.324,18.957z"/>
	<path fill="#231815" d="M15.324,22.107c-0.547,0-0.994,0.439-0.994,0.987s0.447,0.989,0.994,0.989c0.543,0,0.989-0.441,0.989-0.989
		S15.867,22.107,15.324,22.107z"/>
	<path fill="#231815" d="M15.324,15.809c-0.547,0-0.994,0.439-0.994,0.987s0.447,0.989,0.994,0.989c0.543,0,0.989-0.441,0.989-0.989
		S15.867,15.809,15.324,15.809z"/>
	<path fill="#231815" d="M13.091,20.604c-0.509,0-0.916,0.412-0.916,0.916s0.407,0.916,0.916,0.916c0.503,0,0.911-0.412,0.911-0.916
		S13.595,20.604,13.091,20.604z"/>
	<path fill="#231815" d="M13.091,23.754c-0.509,0-0.916,0.413-0.916,0.917c0,0.432,0.3,0.795,0.707,0.89l0.393,0.007
		c0.415-0.086,0.727-0.456,0.727-0.896C14.002,24.167,13.595,23.754,13.091,23.754z"/>
	<path fill="#231815" d="M13.091,17.455c-0.509,0-0.916,0.412-0.916,0.916s0.407,0.915,0.916,0.915c0.503,0,0.911-0.411,0.911-0.915
		S13.595,17.455,13.091,17.455z"/>
	<path fill="#231815" d="M10.852,22.252c-0.465,0-0.838,0.378-0.838,0.843c0,0.466,0.373,0.845,0.838,0.845s0.843-0.379,0.843-0.845
		C11.695,22.63,11.317,22.252,10.852,22.252z"/>
	<ellipse fill="#231815" cx="10.852" cy="16.796" rx="0.838" ry="0.843"/>
</g>
</svg>
