<?xml version="1.0" standalone="no"?><!DOCTYPE svg PUBLIC "-//W3C//DTD SVG 1.1//EN" "http://www.w3.org/Graphics/SVG/1.1/DTD/svg11.dtd"><svg t="1481295191935" class="icon" style="" viewBox="0 0 1024 1024" version="1.1" xmlns="http://www.w3.org/2000/svg" p-id="2453" xmlns:xlink="http://www.w3.org/1999/xlink" width="200" height="200"><defs><style type="text/css">.svgcolor{fill:#969696}</style></defs><path class="svgcolor" d="M934.17472 168.48896c-116.1216-115.07712-301.81376-117.47328-422.11328-9.216-120.32-108.25728-305.95072-105.86112-422.15424 9.216-119.7056 118.51776-119.7056 310.6816 0 429.28128 34.2016 33.8944 353.6896 350.1056 353.6896 350.1056 37.84704 37.49888 99.06176 37.49888 136.88832 0 0 0 349.81888-346.29632 353.6896-350.1056 119.74656-118.59968 119.74656-310.74304-0.04096-429.28128zM888.58624 552.57088l-353.6896 350.1056c-12.57472 12.51328-33.09568 12.51328-45.60896 0l-353.6896-350.1056c-94.39232-93.45024-94.39232-245.47328 0-338.90304 91.01312-90.07104 237.32224-93.24544 333.08672-7.10656l43.39712 39.03488 43.35616-39.03488c95.80544-86.13888 242.11456-83.00544 333.12768 7.10656 94.39232 93.40928 94.39232 245.43232 0.04096 338.90304zM296.09984 240.0256c8.86784 0 15.99488 7.168 15.99488 15.99488s-7.168 15.99488-15.99488 15.99488l-0.04096 0c-57.40544 0-103.97696 46.55104-103.97696 103.97696l0 0.04096c0 8.82688-7.168 15.99488-15.99488 15.99488s-15.99488-7.168-15.99488-15.99488l0 0c0-75.07968 60.8256-135.90528 135.86432-135.96672 0.06144 0 0.06144-0.04096 0.12288-0.04096z" p-id="2454"></path></svg>