<?xml version="1.0" encoding="utf-8"?>
<!-- Generator: Adobe Illustrator 17.0.0, SVG Export Plug-In . SVG Version: 6.00 Build 0)  -->
<!DOCTYPE svg PUBLIC "-//W3C//DTD SVG 1.1//EN" "http://www.w3.org/Graphics/SVG/1.1/DTD/svg11.dtd">
<svg version="1.1" id="图层_1" xmlns="http://www.w3.org/2000/svg" xmlns:xlink="http://www.w3.org/1999/xlink" x="0px" y="0px"
	 width="200px" height="200px" viewBox="0 0 200 200" enable-background="new 0 0 200 200" xml:space="preserve">
<path fill="#E84C3D" d="M7.5,83.75c-1.25,0-3.75-1.25-5-2.5c-1.25-2.5-1.25-6.25,1.25-7.5l92.5-70c2.5-1.25,6.25-1.25,7.5,1.25
	s1.25,6.25-1.25,7.5L10,82.5C10,83.75,8.75,83.75,7.5,83.75z"/>
<path fill="#E84C3D" d="M192.5,83.75c-1.25,0-2.5,0-3.75-1.25l-92.5-70c-2.5-1.25-2.5-5-1.25-7.5s5-2.5,7.5-1.25l92.5,70
	c2.5,1.25,2.5,5,1.25,7.5C196.25,83.75,195,83.75,192.5,83.75L192.5,83.75z"/>
<path fill="#E84C3D" d="M175,167.5v-100c0-1.995-1.594-3.986-3.507-4.71l0.007-0.29l-73-54L32,59.25l-0.067,3.317
	c-0.227-0.04-0.454-0.067-0.683-0.067c-3.75,0-6.25,2.5-6.25,5v100c0,21.25,6.25,28.75,27.5,28.75h21h2.75h51H129h18.5
	C168.75,196.25,177.5,190,175,167.5z M50,123.75c-1.25,0-2.5-1.25-2.5-2.5v-2.5c0-1.25,1.25-2.5,2.5-2.5s2.5,1.25,2.5,2.5v2.5
	C53.75,122.5,52.5,123.75,50,123.75z M50,110c-1.25,0-2.5-1.25-2.5-2.5V75v-2.5l36.25-28.75c1.25-1.25,2.5-1.25,3.75,0
	s1.25,2.5,0,3.75L52.5,75v30C53.75,108.75,52.5,110,50,110z M76.25,190.75V140v-2.5c0-10,2.5-11.25,11.25-11.25H115
	c8.75,0,12.5,1.25,12.5,11.25v53.25H76.25z"/>
</svg>
