<?xml version="1.0" standalone="no"?><!DOCTYPE svg PUBLIC "-//W3C//DTD SVG 1.1//EN" "http://www.w3.org/Graphics/SVG/1.1/DTD/svg11.dtd"><svg t="1481296767440" class="icon" style="" viewBox="0 0 1024 1024" version="1.1" xmlns="http://www.w3.org/2000/svg" p-id="1791" xmlns:xlink="http://www.w3.org/1999/xlink" width="200" height="200"><defs><style type="text/css">.svgcolor{fill:#969696}</style></defs><path class="svgcolor" d="M755.2 1004.8h-486.4c-108.8 0-140.8-38.4-140.8-147.2v-512c0-12.8 12.8-25.6 32-25.6 12.8 0 25.6 12.8 25.6 25.6v512c0 83.2 6.4 89.6 83.2 89.6h486.4c76.8 0 89.6-6.4 89.6-89.6v-512c0-12.8 12.8-25.6 25.6-25.6s25.6 12.8 25.6 25.6v512c12.8 115.2-32 147.2-140.8 147.2z" fill="" p-id="1792"></path><path class="svgcolor" d="M633.6 992c-6.4 0-12.8-6.4-12.8-12.8v-275.2c0-25.6-6.4-32-38.4-32h-140.8c-32 0-25.6 0-25.6 32v275.2c0 6.4-6.4 12.8-12.8 12.8s-12.8-6.4-12.8-12.8v-275.2c0-51.2 12.8-57.6 57.6-57.6h140.8c44.8 0 64 6.4 64 57.6v275.2c-6.4 6.4-12.8 12.8-19.2 12.8zM38.4 428.8c-6.4 0-19.2-6.4-25.6-12.8-6.4-12.8-6.4-32 6.4-38.4l473.6-358.4c12.8-6.4 32-6.4 38.4 6.4 6.4 12.8 6.4 32-6.4 38.4l-473.6 358.4c0 6.4-6.4 6.4-12.8 6.4z" fill="" p-id="1793"></path><path class="svgcolor" d="M985.6 428.8c-6.4 0-12.8 0-19.2-6.4l-473.6-358.4c-12.8-6.4-12.8-25.6-6.4-38.4 6.4-12.8 25.6-12.8 38.4-6.4l473.6 358.4c12.8 6.4 12.8 25.6 6.4 38.4 0 12.8-6.4 12.8-19.2 12.8zM256 563.2c-6.4 0-12.8-6.4-12.8-12.8v-166.4-12.8l185.6-147.2c6.4-6.4 12.8-6.4 19.2 0 6.4 6.4 6.4 12.8 0 19.2l-179.2 140.8v153.6c6.4 19.2 0 25.6-12.8 25.6zM256 633.6c-6.4 0-12.8-6.4-12.8-12.8v-12.8c0-6.4 6.4-12.8 12.8-12.8s12.8 6.4 12.8 12.8v12.8c6.4 6.4 0 12.8-12.8 12.8z" fill="" p-id="1794"></path></svg>