<?xml version="1.0" standalone="no"?><!DOCTYPE svg PUBLIC "-//W3C//DTD SVG 1.1//EN" "http://www.w3.org/Graphics/SVG/1.1/DTD/svg11.dtd"><svg t="1481291905285" class="icon" style="" viewBox="0 0 1024 1024" version="1.1" xmlns="http://www.w3.org/2000/svg" p-id="1997" xmlns:xlink="http://www.w3.org/1999/xlink" width="200" height="200"><defs><style type="text/css">.svgcolor{fill:#2fcc71}</style></defs><path class="svgcolor" d="M151.709749 946.380178l0-87.077218 740.886991 0 0 87.077218L151.709749 946.380178zM674.686754 510.566348l217.907938-174.326351 0 479.482399L674.686754 815.722396 674.686754 510.566348zM413.199275 815.721373 413.199275 336.238974l217.906915 174.325327 0 305.155025L413.199275 815.721373 413.199275 815.721373zM646.386198 367.222639l-0.724501-0.76441-0.041956 0.082888L387.448798 108.373243 173.627944 322.19512l-30.813796-30.81482L389.961014 44.191478l256.425184 261.403568 173.131129-173.134199-57.667398-57.7114 130.745786 0 0 130.830721-42.262546-42.304502L646.386198 367.222639zM369.616664 815.721373 151.709749 815.721373 151.709749 510.566348l217.906915-174.326351L369.616664 815.721373 369.616664 815.721373z" p-id="1998"></path></svg>