<?xml version="1.0" standalone="no"?><!DOCTYPE svg PUBLIC "-//W3C//DTD SVG 1.1//EN" "http://www.w3.org/Graphics/SVG/1.1/DTD/svg11.dtd"><svg t="1481526234777" class="icon" style="" viewBox="0 0 1024 1024" version="1.1" xmlns="http://www.w3.org/2000/svg" p-id="8858" xmlns:xlink="http://www.w3.org/1999/xlink" width="200" height="200"><defs><style type="text/css"></style></defs><path d="M790.114 456.494c-57.302 0-129.004 14.7-185.32 29.036-1.96-6.886-4.642-13.468-8.002-19.634 49.94-29.68 110.974-69.96 151.466-110.448 79.094-79.094 104.046-136.916 80.88-160.084-23.168-23.166-80.99 1.786-160.084 80.88-40.45 40.45-80.686 101.396-110.356 151.308-6.164-3.416-12.746-6.166-19.644-8.178 14.312-56.266 28.95-127.794 28.95-184.984C568.004 122.532 544.764 64 512 64s-56.004 58.532-56.004 170.388c0 57.19 14.638 128.718 28.95 184.984-6.898 2.012-13.48 4.762-19.644 8.178-29.67-49.912-69.906-110.86-110.352-151.306-79.096-79.094-136.916-104.048-160.084-80.88-23.168 23.166 1.788 80.988 80.88 160.082 40.492 40.488 101.524 80.768 151.464 110.448-3.36 6.166-6.042 12.748-8.002 19.634-56.316-14.336-128.016-29.036-185.318-29.036C122.032 456.494 64 479.236 64 512s58.032 56.504 169.888 56.504c57.394 0 129.226-14.742 185.584-29.102 2.02 6.828 4.768 13.342 8.166 19.448-50.018 29.704-111.29 70.098-151.892 110.702-79.094 79.096-104.046 136.918-80.88 160.086 23.168 23.168 80.99-1.79 160.084-80.882 40.646-40.646 81.084-102.002 110.796-152.048 6.106 3.342 12.62 6.02 19.436 7.99-14.384 56.406-29.184 128.414-29.184 185.918 0 111.858 23.24 169.386 56.004 169.386s56.004-57.532 56.004-169.386c0-57.504-14.8-129.512-29.184-185.918 6.816-1.97 13.33-4.648 19.436-7.99 29.71 50.046 70.146 111.402 110.798 152.05 79.094 79.094 136.914 104.048 160.082 80.88s-1.788-80.99-80.878-160.086c-40.608-40.604-101.876-80.998-151.894-110.702 3.398-6.106 6.146-12.62 8.166-19.448 56.36 14.36 128.192 29.102 185.584 29.102 111.858 0 169.886-23.24 169.886-56.004S901.968 456.494 790.114 456.494z" p-id="8859" fill="#ffffff"></path><path d="M592.934 707.89c0 0 14.062 82.118 3.708 151.892 23.356 43.558 52.278 70.506 73.286 70.506 3.498 0 6.864-0.648 10.084-1.952 23.748-9.594 28.77-49.968 9.71-116.982C640.662 776.008 592.934 707.89 592.934 707.89z" p-id="8860" fill="#ffffff"></path><path d="M430.994 316.64c0 0-15.494-81.64-3.636-151.424-26.584-47.02-52.278-70.51-73.288-70.51-3.498 0-6.862 0.65-10.084 1.952-23.736 9.59-28.994 46.422-9.74 116.882C376.75 245.5 430.994 316.64 430.994 316.64z" p-id="8861" fill="#ffffff"></path><path d="M316.612 593.434c0 0-82.616 12.238-151.898 3.704-54.844 31.01-77.672 60.804-68.554 83.374 5.612 13.888 21.826 21.35 47.684 21.35 18.364 0 44.868-3.118 69.344-11.652C247.998 642.34 316.612 593.434 316.612 593.434z" p-id="8862" fill="#ffffff"></path><path d="M707.446 431.558c0 0 81.556-14.56 151.836-3.698 54.848-31.008 77.676-60.804 68.558-83.37-5.612-13.89-21.828-21.35-47.688-21.35-18.356 0-42.8 3.43-69.308 11.644C774.668 382.332 707.446 431.558 707.446 431.558z" p-id="8863" fill="#ffffff"></path><path d="M326.27 817.96c-16.84 60.68-11.912 97.876 10.488 107.38 3.348 1.422 6.874 2.132 10.55 2.132 22.214 0 49.396-26.248 79.056-78.03-8.368-64.44 4.702-141.558 4.702-141.558S387.998 770.672 326.27 817.96z" p-id="8864" fill="#ffffff"></path><path d="M697.54 207.74c16.794-63.74 12.192-98.542-10.294-108.088-3.348-1.42-6.876-2.132-10.548-2.132-22.21 0-52.414 28.574-79.054 78.026 9.028 45.788-4.786 142.106-4.786 142.106S639.334 249 697.54 207.74z" p-id="8865" fill="#ffffff"></path><path d="M175.048 426.864c59.452-7.864 141.376 4.672 141.376 4.672S242 374.134 206.418 326.734C186 319 161.434 316.732 144.914 316.732c-24.534 0-40.084 7.146-45.762 20.522C89.144 360.838 119.092 397.224 175.048 426.864z" p-id="8866" fill="#ffffff"></path><path d="M848.954 598.132c-50.614 11.2-141.56-4.7-141.56-4.7s69.276 51.23 110.028 104.786c23.918 8.446 45.11 10.044 61.666 10.044 24.532 0 40.082-7.146 45.76-20.522C934.856 664.16 908.566 631.602 848.954 598.132z" p-id="8867" fill="#ffffff"></path></svg>