<?xml version="1.0" encoding="utf-8"?>
<!-- Generator: Adobe Illustrator 17.0.0, SVG Export Plug-In . SVG Version: 6.00 Build 0)  -->
<!DOCTYPE svg PUBLIC "-//W3C//DTD SVG 1.1//EN" "http://www.w3.org/Graphics/SVG/1.1/DTD/svg11.dtd">
<svg version="1.1" xmlns="http://www.w3.org/2000/svg" xmlns:xlink="http://www.w3.org/1999/xlink" x="0px" y="0px"
	 width="165.999px" height="166px" viewBox="0 0 165.999 166" enable-background="new 0 0 165.999 166" xml:space="preserve">

	<path fill="#474747" d="M146,0H20C8.955,0,0,8.954,0,20v126c0,11.047,8.954,20,20,20H146c11.047,0,20-8.953,20-20V20
		C166,8.954,157.047,0,146,0z M53.673,130.323H42.12V73.891c-3.263,5.333-6.665,10.665-10.22,15.997
		c-0.299-2.069-0.889-5.033-1.777-8.887c-0.598-2.958-1.042-5.333-1.333-7.11c9.179-14.809,16.44-31.25,21.773-49.323l11.553,3.11
		c-2.666,8.297-5.485,15.997-8.442,23.106V130.323z M69.225,131.212c-2.965-2.666-6.221-5.484-9.775-8.442
		c11.553-7.998,16.885-21.176,15.996-39.547V69.448h11.997v14.219C88.332,104.704,82.257,120.548,69.225,131.212z M118.992,128.99
		H106.55V69.448h12.441V128.99z M131.878,72.558c-15.107-8.887-26.369-19.551-33.771-31.993
		c-7.109,11.553-18.516,22.516-34.214,32.882c-0.889-1.479-2.222-3.701-3.999-6.665c-0.889-2.069-1.632-3.555-2.222-4.443
		c17.177-10.067,29.028-22.662,35.548-37.77l13.773,1.333c-0.596,0.597-1.186,1.486-1.777,2.666
		c-0.297,0.889-0.596,1.486-0.889,1.778c8.59,13.33,19.553,23.55,32.883,30.66C135.134,64.858,133.357,68.712,131.878,72.558z"/>
</svg>
