<?xml version="1.0" encoding="utf-8"?>
<!-- Generator: Adobe Illustrator 16.0.0, SVG Export Plug-In . SVG Version: 6.00 Build 0)  -->
<!DOCTYPE svg PUBLIC "-//W3C//DTD SVG 1.1//EN" "http://www.w3.org/Graphics/SVG/1.1/DTD/svg11.dtd">
<svg version="1.1" id="图层_1" xmlns="http://www.w3.org/2000/svg" xmlns:xlink="http://www.w3.org/1999/xlink" x="0px" y="0px"
	 width="200px" height="200px" viewBox="0 0 200 200" enable-background="new 0 0 200 200" xml:space="preserve">
<path fill="#E84C3D" d="M166.032,33.903h-11.044v23.795c0,5.672-4.615,10.288-10.288,10.288s-10.288-4.615-10.288-10.288V33.903
	h-71.96v23.795c0,5.672-4.615,10.288-10.288,10.288S41.877,63.37,41.877,57.698V33.903h-8.4c-10.121,0-18.326,8.205-18.326,18.326
	v116.693c0,10.121,8.205,18.326,18.326,18.326h132.556c10.12,0,18.326-8.205,18.326-18.326V52.229
	C184.358,42.108,176.153,33.903,166.032,33.903z M54.266,155.521h-2.644c-1.461,0-2.644-1.182-2.644-2.644s1.183-2.644,2.644-2.644
	h2.644c1.461,0,2.644,1.182,2.644,2.644S55.728,155.521,54.266,155.521z M54.266,139.658h-2.644c-1.461,0-2.644-1.182-2.644-2.643
	c0-1.463,1.183-2.645,2.644-2.645h2.644c1.461,0,2.644,1.182,2.644,2.645C56.91,138.477,55.728,139.658,54.266,139.658z
	 M54.266,123.795h-2.644c-1.461,0-2.644-1.182-2.644-2.644c0-1.461,1.183-2.644,2.644-2.644h2.644c1.461,0,2.644,1.183,2.644,2.644
	C56.91,122.613,55.728,123.795,54.266,123.795z M54.266,107.933h-2.644c-1.461,0-2.644-1.183-2.644-2.644
	c0-1.462,1.183-2.645,2.644-2.645h2.644c1.461,0,2.644,1.183,2.644,2.645C56.91,106.75,55.728,107.933,54.266,107.933z
	 M72.773,155.521h-2.644c-1.461,0-2.644-1.182-2.644-2.644s1.183-2.644,2.644-2.644h2.644c1.461,0,2.644,1.182,2.644,2.644
	S74.235,155.521,72.773,155.521z M72.773,139.658h-2.644c-1.461,0-2.644-1.182-2.644-2.643c0-1.463,1.183-2.645,2.644-2.645h2.644
	c1.461,0,2.644,1.182,2.644,2.645C75.417,138.477,74.235,139.658,72.773,139.658z M72.773,123.795h-2.644
	c-1.461,0-2.644-1.182-2.644-2.644c0-1.461,1.183-2.644,2.644-2.644h2.644c1.461,0,2.644,1.183,2.644,2.644
	C75.417,122.613,74.235,123.795,72.773,123.795z M72.773,107.933h-2.644c-1.461,0-2.644-1.183-2.644-2.644
	c0-1.462,1.183-2.645,2.644-2.645h2.644c1.461,0,2.644,1.183,2.644,2.645C75.417,106.75,74.235,107.933,72.773,107.933z
	 M91.28,155.521h-2.644c-1.461,0-2.644-1.182-2.644-2.644s1.183-2.644,2.644-2.644h2.644c1.461,0,2.644,1.182,2.644,2.644
	S92.742,155.521,91.28,155.521z M91.28,139.658h-2.644c-1.461,0-2.644-1.182-2.644-2.643c0-1.463,1.183-2.645,2.644-2.645h2.644
	c1.461,0,2.644,1.182,2.644,2.645C93.924,138.477,92.742,139.658,91.28,139.658z M91.28,123.795h-2.644
	c-1.461,0-2.644-1.182-2.644-2.644c0-1.461,1.183-2.644,2.644-2.644h2.644c1.461,0,2.644,1.183,2.644,2.644
	C93.924,122.613,92.742,123.795,91.28,123.795z M91.28,107.933h-2.644c-1.461,0-2.644-1.183-2.644-2.644
	c0-1.462,1.183-2.645,2.644-2.645h2.644c1.461,0,2.644,1.183,2.644,2.645C93.924,106.75,92.742,107.933,91.28,107.933z
	 M107.144,155.521H104.5c-1.461,0-2.645-1.182-2.645-2.644s1.184-2.644,2.645-2.644h2.644c1.462,0,2.644,1.182,2.644,2.644
	S108.605,155.521,107.144,155.521z M107.144,139.658H104.5c-1.461,0-2.645-1.182-2.645-2.643c0-1.463,1.184-2.645,2.645-2.645h2.644
	c1.462,0,2.644,1.182,2.644,2.645C109.787,138.477,108.605,139.658,107.144,139.658z M107.144,123.795H104.5
	c-1.461,0-2.645-1.182-2.645-2.644c0-1.461,1.184-2.644,2.645-2.644h2.644c1.462,0,2.644,1.183,2.644,2.644
	C109.787,122.613,108.605,123.795,107.144,123.795z M107.144,107.933H104.5c-1.461,0-2.645-1.183-2.645-2.644
	c0-1.462,1.184-2.645,2.645-2.645h2.644c1.462,0,2.644,1.183,2.644,2.645C109.787,106.75,108.605,107.933,107.144,107.933z
	 M125.65,139.658h-2.643c-1.462,0-2.645-1.182-2.645-2.643c0-1.463,1.182-2.645,2.645-2.645h2.643c1.462,0,2.645,1.182,2.645,2.645
	C128.295,138.477,127.112,139.658,125.65,139.658z M125.65,123.795h-2.643c-1.462,0-2.645-1.182-2.645-2.644
	c0-1.461,1.182-2.644,2.645-2.644h2.643c1.462,0,2.645,1.183,2.645,2.644C128.295,122.613,127.112,123.795,125.65,123.795z
	 M125.65,107.933h-2.643c-1.462,0-2.645-1.183-2.645-2.644c0-1.462,1.182-2.645,2.645-2.645h2.643c1.462,0,2.645,1.183,2.645,2.645
	C128.295,106.75,127.112,107.933,125.65,107.933z M165.852,158.166c0,0.154-0.284,0.305-0.311,0.454
	c-0.39,6.718-3.924,10.122-9.988,10.122H138.87c-1.461,0-2.644-1.184-2.644-2.645s1.183-2.645,2.644-2.645h16.683
	c2.617,0,4.469-0.449,4.469-6.237c0-1.462,1.453-2.644,2.914-2.644c1.462,0,2.916,1.182,2.916,2.644V158.166z M141.514,118.508
	h2.645c1.461,0,2.644,1.183,2.644,2.644c0,1.462-1.183,2.644-2.644,2.644h-2.645c-1.461,0-2.644-1.182-2.644-2.644
	C138.87,119.69,140.053,118.508,141.514,118.508z M138.87,105.289c0-1.462,1.183-2.645,2.644-2.645h2.645
	c1.461,0,2.644,1.183,2.644,2.645c0,1.461-1.183,2.644-2.644,2.644h-2.645C140.053,107.933,138.87,106.75,138.87,105.289z
	 M141.514,134.371h2.645c1.461,0,2.644,1.182,2.644,2.645c0,1.461-1.183,2.643-2.644,2.643h-2.645c-1.461,0-2.644-1.182-2.644-2.643
	C138.87,135.553,140.053,134.371,141.514,134.371z M160.232,146.031c0-0.692,0.289-1.379,0.768-1.88c0.979-0.976,2.75-0.976,3.754,0
	c0.475,0.501,0.767,1.188,0.767,1.88c0,0.687-0.292,1.373-0.767,1.875c-0.504,0.475-1.19,0.769-1.877,0.769
	c-0.715,0-1.377-0.294-1.877-0.769C160.521,147.404,160.232,146.744,160.232,146.031z M178.528,84.136H19.896
	c-1.461,0-2.644-1.183-2.644-2.644s1.183-2.644,2.644-2.644h158.632c1.462,0,2.644,1.183,2.644,2.644
	C181.172,82.954,179.99,84.136,178.528,84.136z"/>
<path fill="#E84C3D" d="M52.164,62.985c-2.92,0-5.287-2.368-5.287-5.288V18.04c0-2.92,2.367-5.288,5.287-5.288
	c2.921,0,5.288,2.368,5.288,5.288v39.658C57.452,60.618,55.085,62.985,52.164,62.985z"/>
<path fill="#E84C3D" d="M144.7,62.985c-2.92,0-5.288-2.368-5.288-5.288V18.04c0-2.92,2.368-5.288,5.288-5.288
	c2.921,0,5.288,2.368,5.288,5.288v39.658C149.988,60.618,147.621,62.985,144.7,62.985z"/>
</svg>
