<?xml version="1.0" encoding="utf-8"?>
<!-- Generator: Adobe Illustrator 17.0.0, SVG Export Plug-In . SVG Version: 6.00 Build 0)  -->
<!DOCTYPE svg PUBLIC "-//W3C//DTD SVG 1.1//EN" "http://www.w3.org/Graphics/SVG/1.1/DTD/svg11.dtd">
<svg version="1.1" id="图层_1" xmlns="http://www.w3.org/2000/svg" xmlns:xlink="http://www.w3.org/1999/xlink" x="0px" y="0px"
	 width="165.999px" height="166px" viewBox="17 17.869 165.999 166" enable-background="new 17 17.869 165.999 166"
	 xml:space="preserve">
<g id="图层_1_1_">
	<g>
		<path fill="#C9B381" d="M162.999,17.869H37c-11.046,0-20,8.954-20,20v126c0,11.047,8.954,20,20,20h125.999
			c11.047,0,20-8.953,20-20v-126C182.999,26.823,174.046,17.869,162.999,17.869z M58.9,147.329c-3.574,0-6.854,0-9.828,0
			c-0.6-3.574-1.34-6.854-2.234-9.828c1.787,0,4.468,0,8.042,0c3.867,0.293,5.654-1.494,5.361-5.361v-26.804l-13.849,4.021
			l-0.893-11.169c0.893-0.293,2.527-0.593,4.914-0.894c4.167-0.894,7.441-1.633,9.828-2.234V71.83H46.838v-9.381H60.24V42.345h9.829
			v20.104h11.615v9.381H70.07v20.997c4.467-0.894,8.635-1.934,12.509-3.127c0,3.574,0,7.001,0,10.275
			c-0.894,0.3-2.087,0.6-3.574,0.893c-1.193,0.3-4.174,1.047-8.935,2.234v31.719C70.363,143.155,66.642,147.329,58.9,147.329z
			 M151.375,143.308c-1.493,2.38-2.533,4.021-3.127,4.914c-13.402-5.661-23.53-10.875-30.378-15.636
			c-8.642,5.654-20.104,11.168-34.399,16.529c-0.601-1.193-1.787-3.281-3.574-6.255c-1.193-1.493-1.94-2.533-2.233-3.127
			c14.589-4.467,25.311-9.228,32.165-14.295c-7.447-7.148-13.849-17.717-19.21-31.719l0.894-0.447h-4.021v-8.935h25.465V67.809
			H86.599v-9.382h26.358V41.898h10.274v16.529h29.038v9.382H123.23v16.529h23.678v9.382c-5.361,13.109-12.362,23.831-20.997,32.166
			c7.147,5.36,16.529,9.382,28.145,12.062C153.456,139.134,152.563,140.921,151.375,143.308z"/>
		<path fill="#C9B381" d="M100.895,93.273c4.761,11.022,10.422,19.811,16.977,26.358c7.147-6.255,13.248-15.036,18.316-26.358
			H100.895z"/>
	</g>
</g>
</svg>
