<?xml version="1.0" encoding="utf-8"?>
<!-- Generator: Adobe Illustrator 17.0.0, SVG Export Plug-In . SVG Version: 6.00 Build 0)  -->
<!DOCTYPE svg PUBLIC "-//W3C//DTD SVG 1.1//EN" "http://www.w3.org/Graphics/SVG/1.1/DTD/svg11.dtd">
<svg version="1.1" id="图层_1" xmlns="http://www.w3.org/2000/svg" xmlns:xlink="http://www.w3.org/1999/xlink" x="0px" y="0px"
	 width="165.999px" height="166px" viewBox="0 0 165.999 166" enable-background="new 0 0 165.999 166" xml:space="preserve">
<g id="kong">
	<path fill="#3bbc6f" d="M145.999,0H20.001c-11.046,0-20,8.954-20,20v126c0,11.047,8.954,20,20,20h125.999c11.047,0,20-8.953,20-20
		V20C165.999,8.954,157.048,0,145.999,0z M32.624,37.298h45.867L74.482,25.72l13.359-1.336c1.482,3.862,2.818,8.169,4.008,12.914
		h41.414v22.711h-12.023V48.431H44.647v11.578H32.624V37.298z M68.249,53.33l7.57,9.352c-13.958,8.905-27.61,16.629-40.969,23.155
		c-0.599-1.183-1.489-2.964-2.672-5.344c-1.189-2.073-2.08-3.708-2.672-4.898C41.975,70.251,54.889,62.835,68.249,53.33z
		 M133.264,126.36H32.178v-10.242h44.531V92.516H44.647V81.384h76.594v11.133H89.179v23.602h44.086v10.241H133.264z M130.592,85.837
		c-13.359-8.308-26.872-16.031-40.523-23.156l6.68-9.352c2.073,1.19,5.344,2.971,9.797,5.344
		c13.951,7.424,24.047,13.067,30.281,16.921L130.592,85.837z"/>
</g>
</svg>
