<?xml version="1.0" encoding="utf-8"?>
<!-- Generator: Adobe Illustrator 17.0.0, SVG Export Plug-In . SVG Version: 6.00 Build 0)  -->
<!DOCTYPE svg PUBLIC "-//W3C//DTD SVG 1.1//EN" "http://www.w3.org/Graphics/SVG/1.1/DTD/svg11.dtd">
<svg version="1.1" xmlns="http://www.w3.org/2000/svg" xmlns:xlink="http://www.w3.org/1999/xlink" x="0px" y="0px"
	 width="165.999px" height="166px" viewBox="0 0 165.999 166" enable-background="new 0 0 165.999 166" xml:space="preserve">

		<rect x="88.777" y="79.668" fill="#FFD900" width="25.328" height="6.221"/>
		<rect x="51.452" y="34.789" fill="#FFD900" width="62.653" height="5.332"/>
		<rect x="88.777" y="91.665" fill="#FFD900" width="25.328" height="6.221"/>
		<path fill="#FFD900" d="M146,0H20C8.955,0,0,8.954,0,20v126c0,11.047,8.954,20,20,20H146c11.047,0,20-8.953,20-20V20
			C166,8.954,157.047,0,146,0z M39.898,28.567h85.76v28.438h-85.76V28.567z M29.678,61.894h106.644v6.665H29.678V61.894z
			 M136.765,127.657H29.234v-7.109h47.989v-4.888H37.232v-6.221h39.991v-5.332H40.787V73.447h84.426v30.661H88.777v5.332h39.99
			v6.221h-39.99v4.888h47.988V127.657z"/>
		<rect x="51.452" y="45.453" fill="#FFD900" width="62.653" height="5.332"/>
		<rect x="51.896" y="91.665" fill="#FFD900" width="25.327" height="6.221"/>
		<rect x="51.896" y="79.668" fill="#FFD900" width="25.327" height="6.221"/>

</svg>
