<?xml version="1.0" standalone="no"?><!DOCTYPE svg PUBLIC "-//W3C//DTD SVG 1.1//EN" "http://www.w3.org/Graphics/SVG/1.1/DTD/svg11.dtd"><svg t="1481367332499" class="icon" style="" viewBox="0 0 1024 1024" version="1.1" xmlns="http://www.w3.org/2000/svg" p-id="8627" xmlns:xlink="http://www.w3.org/1999/xlink" width="200" height="200"><defs><style type="text/css"></style></defs><path d="M853.333333 512c0-47.146667 38.186667-85.333333 85.333333-85.333333l0-170.666667c0-47.146667-38.186667-85.333333-85.333333-85.333333l-682.666667 0c-47.146667 0-84.906667 38.186667-84.906667 85.333333l-0.213333 170.666667c47.146667 0.213333 85.12 38.4 85.12 85.333333 0 47.146667-38.186667 85.333333-85.12 85.333333l-0.213333 170.666667c0 47.146667 38.186667 85.333333 85.333333 85.333333l682.666667 0c47.146667 0 85.333333-38.186667 85.333333-85.333333l0-170.666667c-47.146667 0-85.333333-38.186667-85.333333-85.333333zM664.746667 716.8l-152.746667-98.133333-152.746667 98.133333 46.08-175.573333-140.373333-114.773333 181.12-10.666667 65.92-168.32 65.92 168.32 181.12 10.666667-140.373333 114.773333 46.08 175.573333z" p-id="8628" fill="#ffffff"></path></svg>