<?xml version="1.0" standalone="no"?><!DOCTYPE svg PUBLIC "-//W3C//DTD SVG 1.1//EN" "http://www.w3.org/Graphics/SVG/1.1/DTD/svg11.dtd"><svg t="1481377209309" class="icon" style="" viewBox="0 0 1024 1024" version="1.1" xmlns="http://www.w3.org/2000/svg" p-id="11212" xmlns:xlink="http://www.w3.org/1999/xlink" width="200" height="200"><defs><style type="text/css"></style></defs><path d="M853.333333 85.333333l-682.666667 0c-47.146667 0-84.906667 38.186667-84.906667 85.333333l-0.426667 768 170.666667-170.666667 597.333333 0c47.146667 0 85.333333-38.186667 85.333333-85.333333l0-512c0-47.146667-38.186667-85.333333-85.333333-85.333333zM768 597.333333l-512 0 0-85.333333 512 0 0 85.333333zM768 469.333333l-512 0 0-85.333333 512 0 0 85.333333zM768 341.333333l-512 0 0-85.333333 512 0 0 85.333333z" p-id="11213" fill="#ffffff"></path></svg>