<?xml version="1.0" standalone="no"?><!DOCTYPE svg PUBLIC "-//W3C//DTD SVG 1.1//EN" "http://www.w3.org/Graphics/SVG/1.1/DTD/svg11.dtd"><svg t="1481367348990" class="icon" style="" viewBox="0 0 1024 1024" version="1.1" xmlns="http://www.w3.org/2000/svg" p-id="8776" xmlns:xlink="http://www.w3.org/1999/xlink" width="200" height="200"><defs><style type="text/css"></style></defs><path d="M1005.248 242.72l-192-192c-12-12-28.32-18.72-45.248-18.72l-672 0c-52.928 0-96 43.04-96 96l0 768c0 52.928 43.072 96 96 96l832 0c52.928 0 96-43.072 96-96l0-608c0-16.992-6.752-33.28-18.752-45.28zM960 896c0 17.696-14.304 32-32 32l-832 0c-17.696 0-32-14.304-32-32l0-768c0-17.696 14.304-32 32-32l640 0 0 128-0.064 0c0 53.024 43.008 96 96 96l128.064 0 0 576zM863.936 288l-32 0c-35.264 0-64-28.704-64-64l0.064 0 0-128 192 192-96.064 0zM496 256c-8.832 0-16-7.136-16-16s7.168-16 16-16l160 0c8.8 0 16 7.168 16 16s-7.2 16-16 16l-160 0zM496 352c-8.832 0-16-7.168-16-16s7.168-16 16-16l160 0c8.8 0 16 7.168 16 16s-7.2 16-16 16l-160 0zM480 432c0-8.864 7.168-16 16-16l384 0c8.8 0 16 7.168 16 16s-7.2 16-16 16l-384 0c-8.832 0-16-7.168-16-16zM880 608c8.8 0 16 7.136 16 16 0 8.8-7.2 16-16 16l-736 0c-8.832 0-16-7.2-16-16 0-8.864 7.168-16 16-16l736 0zM880 704c8.8 0 16 7.136 16 16 0 8.8-7.2 16-16 16l-736 0c-8.832 0-16-7.2-16-16 0-8.864 7.168-16 16-16l736 0zM880 800c8.8 0 16 7.136 16 16 0 8.8-7.2 16-16 16l-736 0c-8.832 0-16-7.2-16-16 0-8.864 7.168-16 16-16l736 0zM880 512c8.8 0 16 7.168 16 16s-7.2 16-16 16l-736 0c-8.832 0-16-7.136-16-16s7.168-16 16-16l736 0zM160 448l224 0c17.696 0 32-14.304 32-32l0-192c0-17.696-14.304-32-32-32l-224 0c-17.696 0-32 14.304-32 32l0 192c0 17.664 14.304 32 32 32zM192 256l160 0 0 128-160 0 0-128z" p-id="8777" fill="#ffffff"></path></svg>