<?xml version="1.0" standalone="no"?><!DOCTYPE svg PUBLIC "-//W3C//DTD SVG 1.1//EN" "http://www.w3.org/Graphics/SVG/1.1/DTD/svg11.dtd"><svg t="1481367362103" class="icon" style="" viewBox="0 0 1024 1024" version="1.1" xmlns="http://www.w3.org/2000/svg" p-id="8925" xmlns:xlink="http://www.w3.org/1999/xlink" width="200" height="200"><defs><style type="text/css"></style></defs><path d="M1009.360457 5.11984c-5.311834-3.423893-11.359645-5.11984-17.375457-5.11984-6.175807 0-12.383613 1.759945-17.759445 5.375832l-959.970001 639.980001c-9.887691 6.559795-15.327521 18.111434-14.047561 29.951064 1.215962 11.807631 8.895722 22.015312 19.935377 26.367176l250.360176 100.188869 117.724321 206.009562c5.631824 9.887691 16.095497 15.9995 27.423143 16.127496 0.127996 0 0.223993 0 0.351989 0 11.231649 0 21.663323-5.951814 27.423143-15.551514l66.461923-110.812537 310.230305 124.060123c3.807881 1.535952 7.807756 2.271929 11.871629 2.271929 5.43983 0 10.815662-1.375957 15.67951-4.127871 8.447736-4.735852 14.239555-13.055592 15.871504-22.623293l159.995-959.970001c2.079935-12.575607-3.487891-25.183213-14.175557-32.126996zM100.364864 664.843224l741.576826-494.416549-539.183151 577.165964c-2.847911-1.695947-5.375832-3.935877-8.511734-5.183838l-193.881941-77.565576zM326.053811 770.087935c-0.063998-0.127996-0.159995-0.191994-0.223993-0.31999l606.157058-648.779726-516.751852 805.158839-89.181213-156.059123zM806.934783 947.458392l-273.303459-109.308584c-6.495797-2.55992-13.247586-3.423893-19.935377-3.807881l420.850848-652.395613-127.612012 765.512078z" p-id="8926" fill="#ffffff"></path></svg>