<?xml version="1.0" standalone="no"?><!DOCTYPE svg PUBLIC "-//W3C//DTD SVG 1.1//EN" "http://www.w3.org/Graphics/SVG/1.1/DTD/svg11.dtd"><svg t="1482665627935" class="icon" style="" viewBox="0 0 1024 1024" version="1.1" xmlns="http://www.w3.org/2000/svg" p-id="2165" xmlns:xlink="http://www.w3.org/1999/xlink" width="200" height="200"><defs><style type="text/css"></style></defs><path d="M510.847246 956.939675c-246.349711 0-446.784696-200.352097-446.784696-446.633247 0-119.321596 46.499034-231.543494 130.945331-316.003094C279.616884 110.040209 391.771243 63.663972 510.847246 63.663972c89.86982 0 176.559205 26.634614 250.727415 77.042677 122.664737 83.316567 195.906855 221.481324 195.906855 369.599779 0 11.011798-0.38067 20.965497-1.169639 30.454616C940.935678 773.909082 745.258043 956.939675 510.847246 956.939675zM510.847246 119.361505c-104.243179 0-202.434525 40.597627-276.506545 114.369817-73.867358 73.881684-114.587781 172.128289-114.587781 276.575106 0 215.553311 175.444824 390.942877 391.094326 390.942877 205.180056 0 376.450814-160.161746 389.924687-364.648001 0.706081-8.403391 1.01819-16.859993 1.01819-26.294876 0-129.653919-64.11832-250.605641-171.514305-323.535651C665.380808 142.664234 589.499583 119.361505 510.847246 119.361505z" p-id="2166" fill="#969696"></path><path d="M176.787914 550.114063c-7.178493 0-13.269211-5.519714-13.867846-12.780071-0.733711-8.973372-1.101077-18.055215-1.101077-27.027563 0-7.696286 6.226818-13.924127 13.922081-13.924127 7.68196 0 13.923104 6.227842 13.923104 13.924127 0 8.211009 0.340761 16.531512 1.006933 24.744567 0.638543 7.667633-5.072529 14.384615-12.740162 15.010879C177.549254 550.087457 177.168584 550.114063 176.787914 550.114063z" p-id="2167" fill="#969696"></path><path d="M301.452191 773.825171c-2.882654 0-5.791913-0.89744-8.280594-2.746554-55.159274-40.897456-95.281063-96.939843-116.042923-161.984255-2.338255-7.314593 1.713015-15.172561 9.027607-17.511839 7.342222-2.338255 15.160281 1.714038 17.498536 9.055237 18.980283 59.46944 55.663764 110.673635 106.104573 148.089803 6.173606 4.594645 7.465019 13.296841 2.882654 19.469424C309.908794 771.896238 305.707099 773.825171 301.452191 773.825171z" p-id="2168" fill="#969696"></path><path d="M510.847246 524.227486c-3.685949 0-7.232728-1.468444-9.844206-4.078899L207.176015 226.309282c-5.438872-5.438872-5.438872-14.249539 0-19.687388 5.437849-5.438872 14.248516-5.438872 19.687388 0l283.711644 283.698341 277.878798-293.841352c5.288446-5.573949 14.098089-5.818519 19.685341-0.543376 5.589298 5.302773 5.833869 14.113439 0.545422 19.687388l-287.723004 304.256562c-2.582825 2.717901-6.15928 4.294816-9.912767 4.350075C510.983345 524.227486 510.914784 524.227486 510.847246 524.227486z" p-id="2169" fill="#969696"></path><path d="M510.847246 524.227486c-7.504928 0-13.691837-5.983271-13.908778-13.540388-0.232291-7.668657 5.831822-14.087856 13.513782-14.304797l403.317719-11.609409c7.531534-0.055259 14.099113 5.846148 14.31503 13.540388 0.233314 7.668657-5.830799 14.08581-13.512758 14.303774l-403.317719 11.611455C511.119445 524.227486 510.983345 524.227486 510.847246 524.227486z" p-id="2170" fill="#969696"></path></svg>