<?xml version="1.0" encoding="utf-8"?>
<!-- Generator: Adobe Illustrator 16.0.0, SVG Export Plug-In . SVG Version: 6.00 Build 0)  -->
<!DOCTYPE svg PUBLIC "-//W3C//DTD SVG 1.1//EN" "http://www.w3.org/Graphics/SVG/1.1/DTD/svg11.dtd">
<svg version="1.1" id="图层_1" xmlns="http://www.w3.org/2000/svg" xmlns:xlink="http://www.w3.org/1999/xlink" x="0px" y="0px"
	 width="200px" height="200px" viewBox="0 0 200 200" enable-background="new 0 0 200 200" xml:space="preserve">
<path fill="#E84C3D" d="M148.745,27.482c-14.485-9.846-31.417-15.047-48.97-15.047c-23.257,0-45.162,9.058-61.688,25.515
	c-16.493,16.496-25.575,38.415-25.575,61.72c0,48.102,39.147,87.233,87.263,87.233c45.784,0,84.001-35.748,87.004-81.285
	c0.154-1.854,0.229-3.797,0.229-5.948C187.008,70.74,172.703,43.754,148.745,27.482z M31.82,104.948
	c-0.143-1.753-0.215-3.526-0.215-5.279c0-1.503,1.216-2.72,2.719-2.72c1.5,0,2.72,1.216,2.72,2.72c0,1.604,0.066,3.229,0.196,4.833
	c0.125,1.498-0.991,2.81-2.488,2.932c-0.074,0.006-0.149,0.011-0.223,0.011C33.127,107.444,31.937,106.366,31.82,104.948z
	 M61.063,150.039c-0.534,0.723-1.354,1.099-2.186,1.099c-0.563,0-1.131-0.175-1.617-0.536c-10.773-7.988-18.61-18.934-22.665-31.638
	c-0.457-1.429,0.335-2.964,1.764-3.421c1.434-0.456,2.961,0.336,3.417,1.77c3.707,11.615,10.872,21.615,20.724,28.924
	C61.706,147.133,61.958,148.833,61.063,150.039z M178.627,100.121l-78.772,2.268c-0.013,0-0.027,0-0.04,0s-0.026,0-0.04,0
	c-0.368,0-0.719-0.074-1.04-0.207c-0.004-0.002-0.008-0.005-0.012-0.007c-0.156-0.065-0.305-0.145-0.445-0.237
	c-0.076-0.051-0.143-0.114-0.214-0.172c-0.063-0.052-0.131-0.098-0.189-0.155c-0.007-0.007-0.016-0.012-0.023-0.019L40.464,44.201
	c-1.062-1.063-1.062-2.783,0-3.845c1.063-1.063,2.783-1.063,3.845,0l55.413,55.41l54.273-57.391
	c1.032-1.088,2.753-1.136,3.845-0.106c1.092,1.036,1.139,2.757,0.106,3.845l-51.678,54.647l72.202-2.079
	c1.471-0.011,2.754,1.142,2.796,2.645C181.313,98.825,180.128,100.078,178.627,100.121z"/>
</svg>
