<?xml version="1.0" encoding="utf-8"?>
<!-- Generator: Adobe Illustrator 17.0.0, SVG Export Plug-In . SVG Version: 6.00 Build 0)  -->
<!DOCTYPE svg PUBLIC "-//W3C//DTD SVG 1.1//EN" "http://www.w3.org/Graphics/SVG/1.1/DTD/svg11.dtd">
<svg version="1.1" xmlns="http://www.w3.org/2000/svg" xmlns:xlink="http://www.w3.org/1999/xlink" x="0px" y="0px"
	 width="165.999px" height="166px" viewBox="0 0 165.999 166" enable-background="new 0 0 165.999 166" xml:space="preserve">
		<rect x="106.105" y="79.224" fill="#474747" width="15.553" height="14.663"/>
		<rect x="79.889" y="79.224" fill="#474747" width="15.552" height="14.663"/>
		<rect x="83.888" y="38.343" fill="#474747" width="33.771" height="12.442"/>
		<path fill="#474747" d="M146,0H20C8.955,0,0,8.954,0,20v126c0,11.047,8.954,20,20,20H146c11.047,0,20-8.953,20-20V20
			C166,8.954,157.047,0,146,0z M63.449,66.337H43.897L42.12,81.89h20.885c-0.598,15.996-1.042,26.661-1.333,31.993
			c-0.299,10.664-5.776,15.698-16.441,15.107c-4.443,0.292-8.297,0.444-11.553,0.444c0-2.075-0.597-5.776-1.777-11.108
			c3.847,0,7.401,0,10.664,0c5.624,0.292,8.443-1.923,8.443-6.665c0.59-7.7,0.889-14.22,0.889-19.552H31.011l3.11-35.992h19.107
			V39.676H31.456v-10.22h31.993V66.337z M127.878,130.768l-3.109-5.776c-24.592,1.181-44.144,2.222-58.654,3.11l-1.333-10.664
			c10.366,0,20.585-0.292,30.659-0.889v-13.774H69.669V69.892h25.771v-10.22H73.224V29.457h55.1v30.215h-22.219v10.22h25.773v32.882
			h-25.773v13.33c1.48,0,3.701-0.146,6.666-0.444c2.957,0,5.18,0,6.666,0c-1.188-2.367-2.521-4.888-4-7.554l9.775-3.555
			c0.59,1.187,1.625,2.964,3.111,5.332c4.145,7.109,7.256,12.886,9.33,17.329L127.878,130.768z"/>
</svg>
