<?xml version="1.0" encoding="utf-8"?>
<!-- Generator: Adobe Illustrator 16.0.0, SVG Export Plug-In . SVG Version: 6.00 Build 0)  -->
<!DOCTYPE svg PUBLIC "-//W3C//DTD SVG 1.1//EN" "http://www.w3.org/Graphics/SVG/1.1/DTD/svg11.dtd">
<svg version="1.1" id="图层_1" xmlns="http://www.w3.org/2000/svg" xmlns:xlink="http://www.w3.org/1999/xlink" x="0px" y="0px"
	 width="200px" height="200px" viewBox="0 0 200 200" enable-background="new 0 0 200 200" xml:space="preserve">
<g>
	<path fill="#E84C3D" d="M166.253,120.052H33.013c-10.371,1.558-18.331,10.47-18.331,21.274v1.307
		c0,11.904,9.649,21.555,21.555,21.555h33.34h62.609h30.767c11.905,0,21.556-9.65,21.556-21.555v-1.307
		C184.508,130.547,176.587,121.645,166.253,120.052z"/>
	<path fill="#E84C3D" d="M166.219,115.052V76.639c0-35.284-29.455-63.988-64.436-63.988h-3.755
		c-34.98,0-62.445,28.704-62.445,63.988v38.413H166.219z M112.497,37.132c0.577-1.319,2.108-1.931,3.439-1.347
		c18.83,8.224,30.998,26.813,30.998,47.355c-0.001,1.444-1.169,2.612-2.612,2.612c-1.445,0-2.613-1.168-2.613-2.612
		c0-18.465-10.938-35.175-27.864-42.569C112.523,39.995,111.918,38.454,112.497,37.132z M95.283,31.488
		c1.635,0,3.273,0.077,4.868,0.225c1.437,0.135,2.49,1.411,2.357,2.847c-0.127,1.353-1.266,2.368-2.6,2.368
		c-0.082,0-0.164-0.002-0.248-0.01c-1.431-0.135-2.906-0.204-4.378-0.204c-1.444,0-2.613-1.168-2.613-2.613
		S93.838,31.488,95.283,31.488z"/>
	<path fill="#E84C3D" d="M69.804,169.188c1.011,12.946,5.648,18.516,23.866,18.516h10.451c17.501,0,25.593-4.697,27.607-18.516
		H69.804z"/>
</g>
</svg>
