<?xml version="1.0" standalone="no"?><!DOCTYPE svg PUBLIC "-//W3C//DTD SVG 1.1//EN" "http://www.w3.org/Graphics/SVG/1.1/DTD/svg11.dtd"><svg t="1481292436557" class="icon" style="" viewBox="0 0 1024 1024" version="1.1" xmlns="http://www.w3.org/2000/svg" p-id="1376" xmlns:xlink="http://www.w3.org/1999/xlink" width="200" height="200"><defs><style type="text/css"></style></defs><path d="M803.404255 904.172391h32.680851v54.468086h-32.680851z" fill="#6DA8D6" p-id="1377"></path><path d="M187.914894 912.340426l-45.753192 19.063829 45.753192 19.06383z" fill="#F2EBD9" p-id="1378"></path><path d="M220.595745 904.172391h550.127659v54.468086h-550.127659z" fill="#FFCC75" p-id="1379"></path><path d="M898.178723 904.172391h-29.412766v54.468086h29.412766c5.313906 0 9.804255-4.492528 9.804256-9.808613v-34.859575c0-5.311728-4.490349-9.799898-9.804256-9.799898z" fill="#F2484B" p-id="1380"></path><path d="M898.178723 871.49154H204.255319c-0.544681 0-1.087183 0.028323-1.627506 0.082792a16.362213 16.362213 0 0 0-1.270196 0.189549c-0.104579 0.019609-0.213515 0.026145-0.318094 0.047932a16.087694 16.087694 0 0 0-3.204902 0.993498l-104.441464 43.513463a16.344783 16.344783 0 0 0-0.002178 30.166605l104.432749 43.517821a16.166128 16.166128 0 0 0 3.215795 0.997855c0.100221 0.019609 0.2048 0.028323 0.305022 0.045754 0.422672 0.076255 0.847523 0.148153 1.281089 0.191727 0.540323 0.054468 1.082826 0.082791 1.627506 0.082792h693.923405c23.425634 0 42.485106-19.061651 42.485106-42.489464v-34.859575c0.002179-23.423455-19.057294-42.480749-42.482928-42.480749z m9.804256 77.340324c0 5.316085-4.490349 9.808613-9.804256 9.808613h-29.412766v-54.468086h29.412766c5.313906 0 9.804255 4.48817 9.804256 9.799898v34.859575zM187.914894 912.340426v38.127659l-45.753192-19.066008 45.753192-19.061651z m32.680851-8.168035h550.127659v54.468086h-550.127659v-54.468086z m582.80851 0h32.680851v54.468086h-32.680851v-54.468086z" fill="#082947" p-id="1381"></path><path d="M827.914894 620.933991v140.296715l140.296715-140.296715z" fill="#FFCC75" p-id="1382"></path><path d="M795.234043 713.529736h-32.680852a16.340426 16.340426 0 0 1-16.340425 16.340426h-642.723404a16.340426 16.340426 0 0 1-16.340426-16.340426v-577.361702a16.340426 16.340426 0 0 1 16.340426-16.340425h65.361702a16.340426 16.340426 0 0 1 16.340425 16.340425h32.680851a16.340426 16.340426 0 0 1 16.340426-16.340425h686.297872a16.340426 16.340426 0 0 1 16.340426 16.340425v403.06383a16.340426 16.340426 0 0 1-16.340426 16.340425v32.680851H991.319149v-522.893617H32.680851v718.978724h762.553192v-70.808511z" fill="#F2EBD9" p-id="1383"></path><path d="M119.829787 292.417362h239.659575v404.771949H119.829787zM392.170213 292.417362h239.659574v404.771949H392.170213zM904.170213 539.231864V292.417362H664.510638v404.771949h81.702128a16.340426 16.340426 0 0 1 16.340425 16.340425h32.680852v-108.93617a16.340426 16.340426 0 0 1 16.340425-16.340426h108.93617v-32.680851a16.340426 16.340426 0 0 1-16.340425-16.340425z" fill="#FFFFFF" p-id="1384"></path><path d="M1021.239557 613.678843c0.069719-0.1024 0.126366-0.211336 0.191728-0.315915 0.220051-0.346417 0.437923-0.695013 0.634009-1.05886 0.043574-0.078434 0.076255-0.163404 0.117651-0.244017a16.362213 16.362213 0 0 0 0.568646-1.202655l0.065362-0.176477c0.174298-0.433566 0.337702-0.873668 0.474962-1.324664 0.019609-0.065362 0.032681-0.132902 0.050111-0.198264 0.128545-0.442281 0.246196-0.891098 0.337702-1.348629 0.028323-0.13726 0.039217-0.278877 0.063183-0.416136a15.75217 15.75217 0 0 0 0.174298-1.169975c0.054468-0.538145 0.082791-1.082826 0.082791-1.629685v-555.574468a16.340426 16.340426 0 0 0-16.340426-16.340426H16.340426a16.340426 16.340426 0 0 0-16.340426 16.340426v751.659574a16.340426 16.340426 0 0 0 16.340426 16.340426h795.234042c0.54686 0 1.09154-0.028323 1.631864-0.082792 0.396528-0.039217 0.782162-0.106757 1.169974-0.174297 0.13726-0.023966 0.278877-0.03486 0.416137-0.063183 0.457532-0.091506 0.906349-0.209157 1.348629-0.339881 0.065362-0.019609 0.132902-0.030502 0.198264-0.050111 0.450996-0.13726 0.891098-0.300664 1.324664-0.474962 0.058826-0.023966 0.11983-0.041396 0.176477-0.065361 0.411779-0.16994 0.810485-0.366026 1.202655-0.568647 0.080613-0.041396 0.163404-0.074077 0.244017-0.117651 0.363847-0.196085 0.712443-0.411779 1.05886-0.634009 0.104579-0.06754 0.213515-0.124187 0.315914-0.191727 0.328987-0.220051 0.642723-0.461889 0.954281-0.705907 0.108936-0.08497 0.22223-0.159047 0.328987-0.246196 0.411779-0.339881 0.808306-0.697191 1.187405-1.07411l196.07857-196.080749c0.376919-0.376919 0.736409-0.773447 1.074111-1.187404 0.087149-0.106757 0.161226-0.220051 0.246195-0.328988 0.244017-0.311557 0.488034-0.623115 0.708085-0.95428zM32.680851 65.359523h958.638298v522.893617h-179.744681a16.340426 16.340426 0 0 0-16.340425 16.340426v179.744681H32.680851v-718.978724z m795.234043 555.574468h140.296715L827.914894 761.230706v-140.296715z" fill="#082947" p-id="1385"></path><path d="M168.851064 152.50846H119.829787v107.228051h784.340426V152.50846H234.212766a16.340426 16.340426 0 0 1-16.340426-16.340426H185.191489a16.340426 16.340426 0 0 1-16.340425 16.340426z" fill="#FF6E1D" p-id="1386"></path><path d="M746.212766 697.189311H664.510638V292.417362h239.659575v246.814502a16.340426 16.340426 0 0 0 32.680851 0v-403.06383a16.340426 16.340426 0 0 0-16.340426-16.340425h-686.297872a16.340426 16.340426 0 0 0 0 32.680851H904.170213v107.228051H119.829787V152.50846h49.021277a16.340426 16.340426 0 0 0 0-32.680851h-65.361702a16.340426 16.340426 0 0 0-16.340426 16.340425v577.361702a16.340426 16.340426 0 0 0 16.340426 16.340426h642.723404a16.340426 16.340426 0 0 0 0-32.680851z m-114.382979 0H392.170213V292.417362h239.659574v404.771949zM119.829787 292.417362h239.659575v404.771949H119.829787V292.417362z" fill="#082947" p-id="1387"></path></svg>