<?xml version="1.0" standalone="no"?><!DOCTYPE svg PUBLIC "-//W3C//DTD SVG 1.1//EN" "http://www.w3.org/Graphics/SVG/1.1/DTD/svg11.dtd"><svg t="1481375359828" class="icon" style="" viewBox="0 0 1024 1024" version="1.1" xmlns="http://www.w3.org/2000/svg" p-id="10347" xmlns:xlink="http://www.w3.org/1999/xlink" width="200" height="200"><defs><style type="text/css"></style></defs><path d="M703.36 107.306667c139.306667 66.133333 239.36 201.6 254.506667 362.026667l64 0c-21.76-262.826667-241.493333-469.333333-509.866667-469.333333-9.6 0-18.773333 0.853333-28.373333 1.493333l162.773333 162.773333 56.96-56.96zM436.48 74.453333c-24.96-24.96-65.493333-24.96-90.453333 0l-271.573333 271.573333c-24.96 24.96-24.96 65.493333 0 90.453333l512.853333 512.853333c24.96 24.96 65.493333 24.96 90.453333 0l271.573333-271.573333c24.96-24.96 24.96-65.493333 0-90.453333l-512.853333-512.853333zM632.746667 904.106667l-513.066667-512.853333 271.573333-271.573333 512.853333 512.853333-271.36 271.573333zM320.64 916.693333c-139.306667-66.133333-239.36-201.6-254.506667-362.026667l-64 0c21.76 262.826667 241.493333 469.333333 509.866667 469.333333 9.6 0 18.773333-0.853333 28.373333-1.493333l-162.773333-162.773333-56.96 56.96z" p-id="10348" fill="#ffffff"></path></svg>