<?xml version="1.0" standalone="no"?><!DOCTYPE svg PUBLIC "-//W3C//DTD SVG 1.1//EN" "http://www.w3.org/Graphics/SVG/1.1/DTD/svg11.dtd"><svg t="1481298044993" class="icon" style="" viewBox="0 0 1024 1024" version="1.1" xmlns="http://www.w3.org/2000/svg" p-id="1791" xmlns:xlink="http://www.w3.org/1999/xlink" width="200" height="200"><defs><style type="text/css">.svgcolor{fill:#969696}</style></defs><path class="svgcolor" d="M396.8 755.2c-192 0-352-160-352-352s160-352 352-352 352 160 352 352-153.6 352-352 352z m0-646.4c-160 0-294.4 134.4-294.4 294.4s134.4 294.4 294.4 294.4c160 0 294.4-134.4 294.4-294.4s-128-294.4-294.4-294.4z" fill="" p-id="1792"></path><path class="svgcolor" d="M192 294.4h-6.4c-6.4-6.4-6.4-12.8-6.4-19.2 44.8-76.8 128-128 224-128 6.4 0 12.8 6.4 12.8 12.8s-6.4 12.8-12.8 12.8c-83.2 0-153.6 44.8-198.4 108.8-6.4 12.8-12.8 12.8-12.8 12.8zM153.6 409.6c-6.4 0-12.8-6.4-12.8-12.8 0-19.2 0-32 6.4-51.2 0-6.4 6.4-12.8 19.2-12.8 6.4 0 12.8 6.4 12.8 19.2-6.4 19.2-6.4 25.6-6.4 44.8 0 6.4-6.4 12.8-19.2 12.8zM889.6 972.8c-25.6 0-44.8-6.4-64-25.6l-230.4-230.4c-19.2-19.2-25.6-38.4-19.2-64 6.4-19.2 19.2-32 32-44.8 19.2-19.2 38.4-32 64-32 12.8 0 25.6 6.4 44.8 19.2l230.4 230.4c19.2 19.2 25.6 38.4 25.6 64s-6.4 44.8-25.6 64c-12.8 12.8-32 19.2-57.6 19.2z m-256-300.8s6.4 0 0 0l236.8 236.8c12.8 12.8 32 12.8 38.4 0 6.4-6.4 6.4-12.8 6.4-19.2 0-6.4 0-12.8-6.4-19.2l-230.4-230.4h-6.4s-6.4 0-25.6 19.2l-12.8 12.8z" fill="" p-id="1793"></path></svg>