<?xml version="1.0" standalone="no"?><!DOCTYPE svg PUBLIC "-//W3C//DTD SVG 1.1//EN" "http://www.w3.org/Graphics/SVG/1.1/DTD/svg11.dtd"><svg t="1481367389206" class="icon" style="" viewBox="0 0 1024 1024" version="1.1" xmlns="http://www.w3.org/2000/svg" p-id="9223" xmlns:xlink="http://www.w3.org/1999/xlink" width="200" height="200"><defs><style type="text/css"></style></defs><path d="M213.333333 85.333333c0-23.466667-18.986667-42.666667-42.666667-42.666667s-42.666667 19.2-42.666667 42.666667l0 170.666667-85.333333 0 0 256 256 0 0-256-85.333333 0 0-170.666667zM384 682.666667c0 55.68 35.84 102.613333 85.333333 120.106667l0 178.56 85.333333 0 0-178.56c49.493333-17.706667 85.333333-64.426667 85.333333-120.106667l0-85.333333-256 0 0 85.333333zM42.666667 682.666667c0 55.68 35.84 102.613333 85.333333 120.106667l0 178.56 85.333333 0 0-178.56c49.493333-17.706667 85.333333-64.426667 85.333333-120.106667l0-85.333333-256 0 0 85.333333zM896 256l0-170.666667c0-23.466667-18.986667-42.666667-42.666667-42.666667s-42.666667 19.2-42.666667 42.666667l0 170.666667-85.333333 0 0 256 256 0 0-256-85.333333 0zM554.666667 85.333333c0-23.466667-18.986667-42.666667-42.666667-42.666667s-42.666667 19.2-42.666667 42.666667l0 170.666667-85.333333 0 0 256 256 0 0-256-85.333333 0 0-170.666667zM725.333333 682.666667c0 55.68 35.84 102.613333 85.333333 120.106667l0 178.56 85.333333 0 0-178.56c49.493333-17.706667 85.333333-64.426667 85.333333-120.106667l0-85.333333-256 0 0 85.333333z" p-id="9224" fill="#ffffff"></path></svg>