<?xml version="1.0" encoding="utf-8"?>
<!-- Generator: Adobe Illustrator 17.0.0, SVG Export Plug-In . SVG Version: 6.00 Build 0)  -->
<!DOCTYPE svg PUBLIC "-//W3C//DTD SVG 1.1//EN" "http://www.w3.org/Graphics/SVG/1.1/DTD/svg11.dtd">
<svg version="1.1" xmlns="http://www.w3.org/2000/svg" xmlns:xlink="http://www.w3.org/1999/xlink" x="0px" y="0px"
	 width="165.999px" height="166px" viewBox="0 0 165.999 166" enable-background="new 0 0 165.999 166" xml:space="preserve">
		<rect x="52.785" y="54.34" fill="#98D98E" width="23.994" height="7.11"/>
		<rect x="88.777" y="54.34" fill="#98D98E" width="24.439" height="7.11"/>
		<rect x="88.777" y="96.997" fill="#98D98E" width="26.66" height="7.555"/>
		<path fill="#98D98E" d="M146,0H20C8.955,0,0,8.954,0,20v126c0,11.047,8.954,20,20,20H146c11.047,0,20-8.953,20-20V20
			C166,8.954,157.047,0,146,0z M136.765,96.997h-10.219v20.44h-11.109v-5.776h-26.66v2.222c0.59,10.067-4.299,15.107-14.664,15.107
			c-3.263,0.292-9.039,0.444-17.329,0.444c-0.598-3.853-1.333-7.109-2.222-9.775c5.033,0,9.921,0,14.663,0
			c5.624,0.59,8.145-1.777,7.554-7.109v-0.889h-40.88v-7.109h40.88v-7.555H29.678v-7.998h47.101V81.89H36.343v-7.11h40.436v-6.221
			H41.231V47.23h35.548v-6.221H29.678v-7.998h47.101v-8.887h11.998v8.887h47.545v7.998H88.777v6.221h35.547v21.329H88.777v6.221
			h37.77v14.219h10.219V96.997z"/>
		<rect x="88.777" y="81.89" fill="#98D98E" width="26.66" height="7.109"/>
</svg>
