<?xml version="1.0" encoding="utf-8"?>
<!-- Generator: Adobe Illustrator 17.0.0, SVG Export Plug-In . SVG Version: 6.00 Build 0)  -->
<!DOCTYPE svg PUBLIC "-//W3C//DTD SVG 1.1//EN" "http://www.w3.org/Graphics/SVG/1.1/DTD/svg11.dtd">
<svg version="1.1" id="图层_1" xmlns="http://www.w3.org/2000/svg" xmlns:xlink="http://www.w3.org/1999/xlink" x="0px" y="0px"
	 width="165.999px" height="166px" viewBox="17 17.869 165.999 166" enable-background="new 17 17.869 165.999 166"
	 xml:space="preserve">
<g id="图层_4">
	<g>
		<rect x="77.217" y="60.214" fill="#474747" width="45.568" height="7.595"/>
		<rect x="77.217" y="74.51" fill="#474747" width="45.568" height="7.594"/>
		<rect x="77.217" y="88.806" fill="#474747" width="45.568" height="7.595"/>
		<path fill="#474747" d="M162.999,17.869H37c-11.046,0-20,8.954-20,20v126c0,11.047,8.954,20,20,20h125.999
			c11.047,0,20-8.953,20-20v-126C182.999,26.823,174.047,17.869,162.999,17.869z M150.93,128.119
			c-0.601,1.193-1.047,2.087-1.34,2.681c-8.342-3.574-15.343-7.147-20.997-10.722v5.808h-23.678v9.828h41.101v8.041H53.986v-8.041
			h41.101v-9.828H70.963v-5.808c-6.855,4.768-13.703,8.788-20.55,12.062c-0.3-0.593-0.747-1.486-1.34-2.681
			c-0.3-0.893-1.34-2.973-3.127-6.254c11.908-4.467,22.037-10.722,30.378-18.763H46.839V96.4h20.104V60.214h-16.53v-8.042h16.529
			V41.898h10.275v10.275h45.568V41.898h10.274v10.275h16.53v8.042h-16.53v36.186h20.104v8.042h-30.378
			c7.741,7.448,18.163,13.256,31.271,17.423C153.456,123.358,152.415,125.439,150.93,128.119z"/>
		<path fill="#474747" d="M111.616,104.442H87.939c-4.467,5.661-9.382,10.429-14.743,14.296h21.891v-9.382h9.828v9.382h21.891
			C121.145,114.871,116.084,110.103,111.616,104.442z"/>
	</g>
</g>
</svg>
