<?xml version="1.0" standalone="no"?><!DOCTYPE svg PUBLIC "-//W3C//DTD SVG 1.1//EN" "http://www.w3.org/Graphics/SVG/1.1/DTD/svg11.dtd"><svg t="1481294522103" class="icon" style="" viewBox="0 0 1024 1024" version="1.1" xmlns="http://www.w3.org/2000/svg" p-id="2111" xmlns:xlink="http://www.w3.org/1999/xlink" width="200" height="200"><defs><style type="text/css">.svgcolor{fill:#e84c3d}</style></defs><path class="svgcolor" d="M1004.790144 358.392832l-96.00832-127.936001c-3.747765-5.0175-8.191836-9.379652-12.799744-13.537009l0-152.921102c0-35.327293-28.671427-63.99872-63.99872-63.99872l-639.9872 0c-35.368253 0-63.99872 28.671427-63.99872 63.99872l0 152.962061c-4.607908 4.136877-9.051979 8.458071-12.799744 13.434611l-95.967361 127.956481c-12.410632 16.50655-19.230335 36.965661-19.230335 57.629567l0 32.0096c0 52.919262 43.068579 96.00832 96.00832 96.00832l0 0 0 416.00192c0 35.327293 28.671427 63.99872 63.99872 63.99872l703.98592 0c35.327293 0 63.99872-28.671427 63.99872-63.99872l0-416.00192c52.919262 0 96.00832-43.068579 96.00832-96.00832l0-32.0096c0-20.663907-6.819704-41.123018-19.209856-57.609088zM831.98336 63.99872l0 127.99744-639.9872 0 0-127.99744 639.9872 0zM326.178436 480.00064l-134.038919 0 127.99744-224.00576 70.040199 0-63.99872 224.00576zM423.47697 255.99488l72.51823 0 0 224.00576-136.51695 0 63.99872-224.00576zM527.98432 255.99488l72.51823 0 63.99872 224.00576-136.51695 0 0-224.00576zM633.740925 255.99488l70.040199 0 127.99744 224.00576-134.038919 0-63.99872-224.00576zM63.99872 447.99104l0-32.0096c0-6.942581 2.232275-13.659887 6.410112-19.209856l96.00832-127.99744c6.041479-8.068959 15.52353-12.799744 25.599488-12.799744l91.257055 0-127.99744 224.00576-59.267935 0c-17.673887 0-32.0096-14.294754-32.0096-32.0096zM639.9872 959.9808l-240.00032 0 0-319.9936 240.00032 0 0 319.9936zM863.99296 959.9808l-191.99616 0 0-319.9936c0-17.694366-14.376672-32.0096-32.0096-32.0096l-240.00032 0c-17.673887 0-32.0096 14.294754-32.0096 32.0096l0 319.9936-207.99072 0 0-416.00192 703.98592 0 0 416.00192zM959.9808 447.99104c0 17.694366-14.294754 32.0096-32.0096 32.0096l-59.329373 0-127.99744-224.00576 91.318494 0c10.055479 0 19.558009 4.730785 25.558529 12.799744l96.00832 127.99744c4.198316 5.529489 6.430591 12.246795 6.430591 19.209856l0 32.0096z" p-id="2112"></path></svg>