<?xml version="1.0" standalone="no"?><!DOCTYPE svg PUBLIC "-//W3C//DTD SVG 1.1//EN" "http://www.w3.org/Graphics/SVG/1.1/DTD/svg11.dtd"><svg t="1481295313296" class="icon" style="" viewBox="0 0 1025 1024" version="1.1" xmlns="http://www.w3.org/2000/svg" p-id="2567" xmlns:xlink="http://www.w3.org/1999/xlink" width="200.1953125" height="200"><defs><style type="text/css">.svgcolor{fill:#969696}</style></defs><path class="svgcolor" d="M863.916162 448.113918c0-158.778264-129.185256-288.00448-288.00448-287.963521l0-0.122878c-8.806224-0.040959-15.933121-7.208816-15.933121-15.99456 0-8.826703 7.126897-15.99456 15.99456-15.99456 0.327673 0 0.573429 0.122878 0.798704 0.184316 176.247355 0.409592 318.928661 143.254735 319.133457 319.543049 0 0.102398 0.061439 0.163837 0.061439 0.245755 0 8.826703-7.208816 15.974081-15.99456 15.974081s-15.933121-7.106418-15.99456-15.871683l-0.061439 0zM291.880242 28.118478c-18.329233-18.370193-42.904742-28.097998-67.910322-28.097998-12.349193 0-24.800784 2.375632-36.678946 7.290734-35.900722 14.847703-59.288414 49.847323-59.288414 88.697106l-0.040959 440.208796-99.838003 99.899442c-37.49813 37.436691-37.49813 98.240595 0 135.738725l224.00576 224.00576c18.759305 18.759305 43.293854 28.118478 67.869363 28.118478s49.110058-9.379652 67.869363-28.118478l99.878962-99.878962 440.188316 0c38.870263 0 73.890362-23.367213 88.676626-59.267935 14.888662-35.880242 6.696826-77.187576-20.807264-104.630227l-703.924482-703.98592zM442.48715 850.763145l-99.878962 99.878962c-8.150877 8.130397-17.694366 9.379652-22.629947 9.379652s-14.458591-1.249255-22.629947-9.379652l-224.00576-224.00576c-8.150877-8.191836-9.379652-17.694366-9.379652-22.629947s1.208296-14.49955 9.379652-22.629947l99.838003-99.878962c0.286714-0.327673 0.389112-0.675826 0.675826-0.98302l269.593328 269.634287c-0.286714 0.225275-0.696306 0.286714-0.98302 0.614388zM487.747045 832.00384c-4.956061 0-9.563969 1.761245-14.294754 2.826183l-284.318154-284.318154c1.085418-4.730785 2.846663-9.338693 2.846663-14.274275l0.040959-385.466851 681.171657 681.233095-385.425891 0zM957.48741 812.261515c-4.935581 12.00104-16.567989 19.742325-29.572529 19.742325l-9.50253 0-726.411072-726.472511 0-9.50253c0-12.98406 7.741285-24.616468 19.742325-29.572529 3.932081-1.638367 8.027999-2.437071 12.226315-2.437071 8.580948 0 16.608948 3.338173 22.629947 9.338693l703.944961 704.026879c9.174857 9.174857 11.939601 22.875702 6.942581 34.876742zM575.932161 64.0192c-17.632927-0.040959-31.927681-14.376672-31.927681-32.0096 0-17.694366 14.294754-32.0096 32.0096-32.0096 0.327673 0 0.573429 0.122878 0.798704 0.163837 246.942901 0.450551 446.926101 200.597588 447.130897 447.581448 0 0.102398 0.061439 0.163837 0.061439 0.245755 0 17.694366-14.294754 32.0096-32.0096 32.0096-17.632927 0-31.927681-14.274275-32.0096-31.866243l-0.061439 0c0-211.738485-172.253835-383.99232-383.99232-383.99232l0-0.122878z" p-id="2568"></path></svg>