<?xml version="1.0" standalone="no"?><!DOCTYPE svg PUBLIC "-//W3C//DTD SVG 1.1//EN" "http://www.w3.org/Graphics/SVG/1.1/DTD/svg11.dtd"><svg t="1481295984553" class="icon" style="" viewBox="0 0 1024 1024" version="1.1" xmlns="http://www.w3.org/2000/svg" p-id="2909" xmlns:xlink="http://www.w3.org/1999/xlink" width="200" height="200"><defs><style type="text/css">.svgcolor{fill:#969696}</style></defs><path class="svgcolor" d="M1021.56288 590.56128l-128.06144-480.19456c-7.74144-27.29984-33.05472-46.36672-61.50144-46.36672l-640 0c-28.48768 0-53.76 19.06688-61.50144 46.36672l-128.06144 480.19456c-1.6384 5.81632-2.43712 11.6736-2.43712 17.44896l0 224.01024c0 70.69696 57.30304 128 128 128l768 0c70.69696 0 128-57.30304 128-128l0-224.01024c0-5.75488-0.79872-11.61216-2.43712-17.44896zM960 832c0 35.26656-28.73344 64-64 64l-768 0c-35.28704 0-64-28.73344-64-64l0-224.01024 128.04096-480.03072 639.8976 0 128.06144 480.03072 0 224.01024zM759.74656 192l-495.49312 0c-14.49984 0-27.19744 9.76896-30.94528 23.77728l-110.24384 384c-2.51904 9.6256-0.512 19.8656 5.57056 27.7504s15.42144 12.47232 25.33376 12.47232l146.18624 0 46.30528 92.63104c10.87488 21.66784 33.01376 35.36896 57.28256 35.36896l216.51456 0c24.24832 0 46.36672-13.70112 57.2416-35.36896l46.30528-92.63104 146.16576 0c9.95328 0 19.33312-4.64896 25.37472-12.51328s8.06912-18.10432 5.57056-27.7504l-110.24384-384c-3.74784-14.00832-16.44544-23.73632-30.94528-23.73632zM776.99072 576l-53.18656 0c-24.39168 0-46.30528 13.49632-57.2416 35.36896l-46.30528 92.63104-216.51456 0-46.30528-92.63104c-10.93632-21.85216-32.8704-35.36896-57.2416-35.36896l-129.49504 0 93.57312-352.01024 495.49312 0 93.57312 352.01024-76.32896 0z" p-id="2910"></path></svg>