<?xml version="1.0" encoding="utf-8"?>
<!-- Generator: Adobe Illustrator 16.0.0, SVG Export Plug-In . SVG Version: 6.00 Build 0)  -->
<!DOCTYPE svg PUBLIC "-//W3C//DTD SVG 1.1//EN" "http://www.w3.org/Graphics/SVG/1.1/DTD/svg11.dtd">
<svg version="1.1" id="图层_1" xmlns="http://www.w3.org/2000/svg" xmlns:xlink="http://www.w3.org/1999/xlink" x="0px" y="0px"
	 width="200px" height="200px" viewBox="0 0 200 200" enable-background="new 0 0 200 200" xml:space="preserve">
<path fill="#E84C3D" d="M195,75c-2.5-6.25-7.5-11.25-15-12.5l-43.75-6.25l-18.75-40c-2.5-6.25-8.75-10-16.25-10
	C95,6.25,87.5,10,85,16.25l-18.75,40L22.5,62.5C15,63.75,10,68.75,7.5,75s-1.25,13.75,3.75,18.75l32.5,32.5l-7.5,45
	c-1.25,6.25,1.25,13.75,7.5,17.5s13.75,5,20,1.25l37.5-20l37.5,20c2.5,1.25,6.25,2.5,8.75,2.5c3.75,0,7.5-1.25,11.25-3.75
	c6.25-3.75,8.75-10,7.5-17.5l-7.5-45l32.5-32.5C195,88.75,197.5,81.25,195,75z M41.25,88.75h-2.5c-1.25,0-2.5-1.25-2.5-2.5
	s1.25-2.5,2.5-3.75H40c1.25,0,2.5,1.25,3.75,2.5C43.75,86.25,42.5,87.5,41.25,88.75z M95,51.25l-12.5,27.5C82.5,80,81.25,80,80,80
	l-31.25,7.5c-1.25,0-2.5-1.25-2.5-2.5s1.25-2.5,2.5-3.75l30-6.25L90,48.75c0-1.25,2.5-2.5,3.75-1.25C95,47.5,96.25,50,95,51.25z"/>
</svg>
