<?xml version="1.0" standalone="no"?><!DOCTYPE svg PUBLIC "-//W3C//DTD SVG 1.1//EN" "http://www.w3.org/Graphics/SVG/1.1/DTD/svg11.dtd"><svg t="1481296745896" class="icon" style="" viewBox="0 0 1024 1024" version="1.1" xmlns="http://www.w3.org/2000/svg" p-id="1676" xmlns:xlink="http://www.w3.org/1999/xlink" width="200" height="200"><defs><style type="text/css">.svgcolor{fill:#969696}</style></defs><path class="svgcolor" d="M755.2 985.6c-12.8 0-32-6.4-44.8-12.8l-192-102.4-192 102.4c-32 19.2-70.4 12.8-102.4-6.4-32-19.2-44.8-57.6-38.4-89.6l38.4-230.4-166.4-166.4c-25.6-25.6-32-64-19.2-96s38.4-57.6 76.8-64l224-32 96-204.8c12.8-32 51.2-51.2 83.2-51.2 38.4 0 70.4 19.2 83.2 51.2l96 204.8 224 32c38.4 6.4 64 32 76.8 64 12.8 32 0 70.4-19.2 96l-166.4 166.4 38.4 230.4c6.4 38.4-6.4 70.4-38.4 89.6-19.2 12.8-38.4 19.2-57.6 19.2z m-243.2-179.2c6.4 0 6.4 0 12.8 6.4l211.2 115.2c12.8 6.4 25.6 6.4 38.4 0 12.8-6.4 19.2-19.2 12.8-32l-38.4-243.2c0-6.4 0-19.2 6.4-25.6l172.8-172.8c6.4-6.4 12.8-25.6 6.4-38.4-6.4-12.8-12.8-19.2-32-25.6l-236.8-38.4c-6.4 0-19.2-6.4-19.2-12.8l-102.4-217.6c-6.4-12.8-19.2-19.2-32-19.2s-25.6 6.4-32 19.2l-102.4 217.6c-6.4 6.4-12.8 12.8-19.2 12.8l-236.8 38.4c-12.8 0-25.6 12.8-32 25.6-6.4 12.8 0 25.6 6.4 38.4l172.8 172.8c6.4 6.4 6.4 12.8 6.4 25.6l-38.4 243.2c0 12.8 6.4 25.6 12.8 32 12.8 6.4 25.6 6.4 38.4 0l211.2-115.2c6.4-6.4 6.4-6.4 12.8-6.4z" fill="" p-id="1677"></path><path class="svgcolor" d="M198.4 454.4c-6.4 0-12.8-6.4-12.8-12.8s6.4-12.8 12.8-19.2h6.4c6.4 0 12.8 6.4 19.2 12.8 0 6.4-6.4 12.8-12.8 19.2h-12.8z m51.2-6.4c-6.4 0-12.8-6.4-12.8-12.8s6.4-12.8 12.8-19.2l153.6-32 57.6-134.4c0-6.4 12.8-12.8 19.2-6.4 6.4 0 12.8 12.8 6.4 19.2l-64 140.8c0 6.4-6.4 6.4-12.8 6.4l-160 38.4z" fill="" p-id="1678"></path></svg>