<?xml version="1.0" standalone="no"?><!DOCTYPE svg PUBLIC "-//W3C//DTD SVG 1.1//EN" "http://www.w3.org/Graphics/SVG/1.1/DTD/svg11.dtd"><svg t="1481374928404" class="icon" style="" viewBox="0 0 1024 1024" version="1.1" xmlns="http://www.w3.org/2000/svg" p-id="9819" xmlns:xlink="http://www.w3.org/1999/xlink" width="200" height="200"><defs><style type="text/css"></style></defs><path d="M768 170.666667l-170.666667 170.666667 128 0 0 298.666667c0 47.146667-38.186667 85.333333-85.333333 85.333333s-85.333333-38.186667-85.333333-85.333333l0-298.666667c0-94.08-76.586667-170.666667-170.666667-170.666667s-170.666667 76.586667-170.666667 170.666667l0 298.666667-128 0 170.666667 170.666667 170.666667-170.666667-128 0 0-298.666667c0-47.146667 38.186667-85.333333 85.333333-85.333333s85.333333 38.186667 85.333333 85.333333l0 298.666667c0 94.08 76.586667 170.666667 170.666667 170.666667s170.666667-76.586667 170.666667-170.666667l0-298.666667 128 0-170.666667-170.666667z" p-id="9820" fill="#ffffff"></path></svg>