<?xml version="1.0" standalone="no"?><!DOCTYPE svg PUBLIC "-//W3C//DTD SVG 1.1//EN" "http://www.w3.org/Graphics/SVG/1.1/DTD/svg11.dtd"><svg t="1481614617613" class="icon" style="" viewBox="0 0 1024 1024" version="1.1" xmlns="http://www.w3.org/2000/svg" p-id="3351" xmlns:xlink="http://www.w3.org/1999/xlink" width="200" height="200"><defs><style type="text/css"></style></defs><path d="M511.640574 874.011835c-199.937189 0-362.021566-162.085593-362.021566-362.021566 0-199.937189 162.084377-362.017917 362.021566-362.017917 199.93354 0 362.017917 162.084377 362.017917 362.017917C873.659708 711.931107 711.575331 874.011835 511.640574 874.011835L511.640574 874.011835 511.640574 874.011835 511.640574 874.011835zM567.00948 335.604509c0-27.711212-28.453161-50.177691-56.188699-50.177691-27.737971 0-55.367689 22.466479-55.367689 50.177691l0 209.238319c0 27.713644 22.465263 50.200801 50.146067 50.200801 27.739187 0 61.406673-22.487156 61.406673-50.200801L567.005831 335.604509 567.00948 335.604509 567.00948 335.604509 567.00948 335.604509zM512.506588 622.188039c-31.326088 0-56.671575 25.45009-56.671575 56.782259 0 31.322439 25.344271 56.698334 56.671575 56.698334 31.332169 0 56.787124-25.375895 56.787124-56.698334C569.293712 647.638128 543.835108 622.188039 512.506588 622.188039L512.506588 622.188039 512.506588 622.188039 512.506588 622.188039zM512.506588 622.188039" p-id="3352" fill="#d81e06"></path></svg>