<?xml version="1.0" standalone="no"?><!DOCTYPE svg PUBLIC "-//W3C//DTD SVG 1.1//EN" "http://www.w3.org/Graphics/SVG/1.1/DTD/svg11.dtd"><svg t="1481297906318" class="icon" style="" viewBox="0 0 1024 1024" version="1.1" xmlns="http://www.w3.org/2000/svg" p-id="1676" xmlns:xlink="http://www.w3.org/1999/xlink" width="200" height="200"><defs><style type="text/css">.svgcolor{fill:#969696}</style></defs><path class="svgcolor" d="M512 985.6c-243.2 0-435.2-198.4-435.2-435.2 0-243.2 198.4-435.2 435.2-435.2s435.2 198.4 435.2 435.2c0 236.8-192 435.2-435.2 435.2z m0-812.8c-211.2 0-377.6 172.8-377.6 377.6 0 211.2 172.8 377.6 377.6 377.6s377.6-172.8 377.6-377.6c0-211.2-166.4-377.6-377.6-377.6z" fill="" p-id="1677"></path><path class="svgcolor" d="M358.4 838.4h-6.4c-102.4-57.6-166.4-166.4-166.4-288 0-6.4 6.4-12.8 12.8-12.8s12.8 6.4 12.8 12.8c0 108.8 57.6 211.2 153.6 262.4 6.4 6.4 6.4 12.8 6.4 19.2-6.4 0-6.4 6.4-12.8 6.4zM441.6 876.8c-6.4 0-6.4 0 0 0-12.8 0-12.8-6.4-19.2-6.4-6.4 0-12.8-12.8-6.4-19.2 0-6.4 12.8-12.8 19.2-6.4 6.4 0 12.8 6.4 19.2 6.4 6.4 0 12.8 12.8 12.8 19.2-12.8 0-19.2 6.4-25.6 6.4zM902.4 268.8c-6.4 0-12.8 0-19.2-6.4l-76.8-76.8c-12.8-12.8-12.8-32 0-38.4 12.8-12.8 32-12.8 38.4 0l76.8 76.8c12.8 12.8 12.8 32 0 38.4 0 6.4-12.8 6.4-19.2 6.4zM595.2 665.6c-6.4 0-12.8 0-19.2-6.4l-83.2-76.8c-6.4-6.4-12.8-12.8-12.8-19.2v-243.2c0-12.8 12.8-25.6 32-25.6 12.8 0 25.6 12.8 25.6 25.6v230.4l76.8 70.4c12.8 12.8 12.8 32 0 38.4-6.4 0-12.8 6.4-19.2 6.4zM512 153.6c-12.8 0-25.6-12.8-25.6-32v-57.6c0-12.8 12.8-25.6 25.6-25.6s32 12.8 32 25.6v57.6c-6.4 19.2-19.2 32-32 32z" fill="" p-id="1678"></path></svg>