<?xml version="1.0" encoding="utf-8"?>
<!-- Generator: Adobe Illustrator 16.0.0, SVG Export Plug-In . SVG Version: 6.00 Build 0)  -->
<!DOCTYPE svg PUBLIC "-//W3C//DTD SVG 1.1//EN" "http://www.w3.org/Graphics/SVG/1.1/DTD/svg11.dtd">
<svg version="1.1" id="图层_1" xmlns="http://www.w3.org/2000/svg" xmlns:xlink="http://www.w3.org/1999/xlink" x="0px" y="0px"
	 width="200px" height="200px" viewBox="0 0 200 200" enable-background="new 0 0 200 200" xml:space="preserve">
<path fill="#E84C3D" d="M106.25,22.764V12.5c0-2.5-3.75-5-6.25-5s-5,2.5-5,5v10.161C50.992,25.249,15,61.724,15,107.5
	c0,46.25,37.5,85,85,85s85-38.75,85-85C185,63.352,149.686,26.065,106.25,22.764z M70,163.75h-1.25c-20-11.25-32.5-32.5-32.5-56.25
	c0-1.25,1.25-2.5,2.5-2.5s2.5,1.25,2.5,2.5c0,21.25,11.25,41.25,30,51.25c1.25,1.25,1.25,2.5,1.25,3.75
	C71.25,162.5,71.25,163.75,70,163.75z M86.25,171.25c-2.5,0-2.5-1.25-3.75-1.25s-2.5-2.5-1.25-3.75c0-1.25,2.5-2.5,3.75-1.25
	c1.25,0,2.5,1.25,3.75,1.25s2.5,2.5,2.5,3.75C88.75,170,87.5,171.25,86.25,171.25z M120,128.75c-1.25,0-2.5,1.25-3.75,1.25
	s-2.5,0-3.75-1.25l-16.25-15c-1.25-1.25-2.5-2.5-2.5-3.75V62.5c0-2.5,2.5-5,6.25-5c2.5,0,5,2.5,5,5v45l15,13.75
	C122.5,123.75,122.5,127.5,120,128.75z"/>
<path fill="#E84C3D" d="M172.5,51.25c1.25,1.25,2.5,1.25,3.75,1.25s3.75,0,3.75-1.25c2.5-1.25,2.5-5,0-7.5l-15-15
	c-1.25-2.5-5-2.5-7.5,0c-2.5,1.25-2.5,5,0,7.5L172.5,51.25z"/>
</svg>
