<?xml version="1.0" standalone="no"?><!DOCTYPE svg PUBLIC "-//W3C//DTD SVG 1.1//EN" "http://www.w3.org/Graphics/SVG/1.1/DTD/svg11.dtd"><svg t="1481292209514" class="icon" style="" viewBox="0 0 1024 1024" version="1.1" xmlns="http://www.w3.org/2000/svg" p-id="2876" xmlns:xlink="http://www.w3.org/1999/xlink" width="200" height="200"><defs><style type="text/css">.svgcolor{fill:#2fcc71}</style></defs><path class="svgcolor" d="M887.286976 122.88C927.302833 122.88 959.646052 155.814754 959.646052 196.762688L959.646052 663.552 983.843138 638.976 136.713024 638.976C96.697168 638.976 64.353947 606.041246 64.353947 565.093312L64.353947 98.304 40.156863 122.88 887.286976 122.88ZM15.959779 73.728 15.959779 98.304 15.959779 565.093312C15.959779 633.158735 69.941754 688.128 136.713024 688.128L983.843138 688.128 1008.040222 688.128 1008.040222 663.552 1008.040222 196.762688C1008.040222 128.697264 954.058246 73.728 887.286976 73.728L40.156863 73.728 15.959779 73.728Z" p-id="2877"></path><path class="svgcolor" d="M195.578315 964.786556C186.532947 974.777739 187.174803 990.32474 197.011941 999.511755 206.849078 1008.698769 222.156373 1008.046863 231.201741 998.05568L450.40665 755.929948C459.452017 745.938765 458.810161 730.391763 448.973022 721.204749 439.135885 712.017734 423.828591 712.669643 414.783221 722.660826L195.578315 964.786556Z" p-id="2878"></path><path class="svgcolor" d="M798.39181 998.05568C807.437178 1008.046863 822.744474 1008.698769 832.581611 999.511755 842.418748 990.32474 843.060604 974.777739 834.015236 964.786556L614.81033 722.660826C605.76496 712.669643 590.457666 712.017734 580.620529 721.204749 570.78339 730.391763 570.141534 745.938765 579.186903 755.929948L798.39181 998.05568Z" p-id="2879"></path><path class="svgcolor" d="M441.76944 103.615949C441.76944 114.25519 452.602844 122.88 465.966524 122.88 479.330204 122.88 490.163607 114.25519 490.163607 103.615949L490.163607 19.264051C490.163607 8.62481 479.330204 0 465.966524 0 452.602844 0 441.76944 8.62481 441.76944 19.264051L441.76944 103.615949Z" p-id="2880"></path><path class="svgcolor" d="M514.796777 307.058758C528.160457 307.058758 538.99386 296.055708 538.99386 282.482758 538.99386 268.909809 528.160457 257.906758 514.796777 257.906758L158.588801 257.906758C145.225121 257.906758 134.391718 268.909809 134.391718 282.482758 134.391718 296.055708 145.225121 307.058758 158.588801 307.058758L514.796777 307.058758Z" p-id="2881"></path><path class="svgcolor" d="M514.796777 465.249103C528.160457 465.249103 538.99386 454.246054 538.99386 440.673103 538.99386 427.100154 528.160457 416.097103 514.796777 416.097103L158.588801 416.097103C145.225121 416.097103 134.391718 427.100154 134.391718 440.673103 134.391718 454.246054 145.225121 465.249103 158.588801 465.249103L514.796777 465.249103Z" p-id="2882"></path><path class="svgcolor" d="M680.30294 552.391044C728.899441 514.220079 758.198767 456.685922 758.198767 378.258908L758.198767 216.841754C758.198767 203.268804 747.365363 192.265754 734.001683 192.265754 720.638003 192.265754 709.804599 203.268804 709.804599 216.841754L709.804599 378.258908C709.804599 441.071906 687.727774 484.423469 650.697359 513.509651 637.686323 523.729393 623.667934 531.437086 609.678551 536.931187 601.472998 540.153783 595.348683 541.871802 592.405429 542.44976 579.284725 545.026231 570.704734 557.917867 573.241481 571.244036 575.778227 584.570204 588.471098 593.284557 601.591802 590.708085 622.119765 586.677073 651.18515 575.262118 680.30294 552.391044Z" p-id="2883"></path><path class="svgcolor" d="M752.643211 232.510336C761.163307 222.053681 759.724115 206.561827 749.428683 197.908309 739.133252 189.254791 723.880252 190.716521 715.360156 201.173174L605.757702 335.687469C597.237604 346.144122 598.676798 361.635977 608.972228 370.289495 619.267661 378.943012 634.520659 377.481284 643.040757 367.024629L752.643211 232.510336Z" p-id="2884"></path><path class="svgcolor" d="M752.643211 201.173174C744.123113 190.716521 728.870114 189.254791 718.574682 197.908309 708.279251 206.561827 706.84006 222.053681 715.360156 232.510336L824.962609 367.024629C833.482707 377.481284 848.735706 378.943012 859.031136 370.289495 869.326569 361.635977 870.76576 346.144122 862.245664 335.687469L752.643211 201.173174Z" p-id="2885"></path></svg>