<?xml version="1.0" standalone="no"?><!DOCTYPE svg PUBLIC "-//W3C//DTD SVG 1.1//EN" "http://www.w3.org/Graphics/SVG/1.1/DTD/svg11.dtd"><svg t="1481297105464" class="icon" style="" viewBox="0 0 1024 1024" version="1.1" xmlns="http://www.w3.org/2000/svg" p-id="2137" xmlns:xlink="http://www.w3.org/1999/xlink" width="200" height="200"><defs><style type="text/css">.svgcolor{fill:#969696}</style></defs><path class="svgcolor" d="M512 646.4c-134.4 0-236.8-249.6-236.8-377.6 0-128 108.8-236.8 236.8-236.8s236.8 108.8 236.8 236.8-96 377.6-236.8 377.6z m0-556.8c-96 0-179.2 83.2-179.2 179.2 0 108.8 89.6 320 179.2 320s179.2-204.8 179.2-320c0-102.4-76.8-179.2-179.2-179.2z" fill="" p-id="2138"></path><path class="svgcolor" d="M390.4 288c-6.4 0-12.8-6.4-12.8-12.8 0-76.8 64-140.8 140.8-140.8 6.4 0 12.8 6.4 12.8 12.8s-6.4 12.8-12.8 12.8c-64 0-115.2 51.2-115.2 115.2 6.4 6.4 0 12.8-12.8 12.8zM396.8 345.6c-6.4 0-6.4 0-12.8-6.4 0 0-6.4-6.4-6.4-12.8s0-6.4 6.4-12.8 12.8-6.4 19.2 0c0 0 6.4 6.4 6.4 12.8s0 6.4-6.4 12.8c0 0 0 6.4-6.4 6.4z" fill="" p-id="2139"></path><path class="svgcolor" d="M512 992c-83.2 0-345.6-6.4-345.6-115.2 0-153.6 102.4-294.4 243.2-332.8l19.2-6.4 12.8 12.8c44.8 51.2 96 51.2 147.2 0l12.8-12.8 19.2 6.4c140.8 44.8 243.2 185.6 243.2 339.2-6.4 102.4-268.8 108.8-352 108.8z m-102.4-390.4c-108.8 44.8-185.6 153.6-185.6 275.2 0 12.8 89.6 57.6 288 57.6s288-44.8 288-57.6c0-121.6-76.8-230.4-185.6-275.2-32 25.6-64 44.8-102.4 44.8-38.4 0-70.4-12.8-102.4-44.8z" fill="" p-id="2140"></path></svg>