<?xml version="1.0" encoding="utf-8"?>
<!-- Generator: Adobe Illustrator 16.0.0, SVG Export Plug-In . SVG Version: 6.00 Build 0)  -->
<!DOCTYPE svg PUBLIC "-//W3C//DTD SVG 1.1//EN" "http://www.w3.org/Graphics/SVG/1.1/DTD/svg11.dtd">
<svg version="1.1" id="图层_1" xmlns="http://www.w3.org/2000/svg" xmlns:xlink="http://www.w3.org/1999/xlink" x="0px" y="0px"
	 width="200px" height="200px" viewBox="0 0 200 200" enable-background="new 0 0 200 200" xml:space="preserve">
<path fill="#E84C3D" d="M71.068,117.242"/>
<path fill="#E84C3D" d="M100.167,187.693h-58.17c-8.782,0-16.486-7.475-16.486-16.001c0-19.521,20.276-48.327,40.933-58.155
	c2.523-1.205,5.551-0.131,6.755,2.398c1.203,2.528,0.127,5.553-2.399,6.755c-18.602,8.85-35.152,34.772-35.152,49.002
	c0,2.96,3.145,5.865,6.35,5.865h58.169c2.799,0,5.068,2.269,5.068,5.068C105.234,185.424,102.965,187.693,100.167,187.693z"/>
<path fill="#E84C3D" d="M129.265,117.242"/>
<path fill="#E84C3D" d="M158.336,187.693h-58.169c-2.799,0-5.068-2.269-5.068-5.067s2.27-5.068,5.068-5.068h58.169
	c3.205,0,6.35-2.905,6.35-5.864c0-14.23-16.551-40.152-35.152-49.002c-2.527-1.203-3.602-4.228-2.399-6.756
	c1.202-2.525,4.226-3.604,6.755-2.398c20.656,9.828,40.934,38.636,40.934,58.156C174.822,180.218,167.118,187.693,158.336,187.693z"
	/>
<path fill="#E84C3D" d="M129.625,117.242"/>
<path fill="#E84C3D" d="M129.625,117.242"/>
<path fill="#E84C3D" d="M102.542,34.42"/>
<path fill="#E84C3D" d="M100.926,13.198c-27.473,0-49.825,22.351-49.825,49.824c0,27.474,22.352,49.824,49.825,49.824
	c27.473,0,49.824-22.351,49.824-49.823C150.75,35.549,128.398,13.198,100.926,13.198z M75.063,75.826
	c-1.413,0-2.56-1.147-2.56-2.562c0-1.413,1.147-2.56,2.56-2.56c1.414,0,2.561,1.147,2.561,2.56
	C77.625,74.679,76.478,75.826,75.063,75.826z M100.926,36.998c-14.35,0-26.024,11.674-26.024,26.023
	c0,1.399-1.135,2.534-2.534,2.534s-2.534-1.135-2.534-2.534c0-17.145,13.949-31.091,31.093-31.091c1.4,0,2.535,1.134,2.535,2.534
	S102.326,36.998,100.926,36.998z"/>
<path fill="#E84C3D" d="M128.75,113.75c-29.75,20.25-57.583,0-57.583,0l-7.917,5L47,137.25l-11.25,19.5L30,171.5l8.5,9.25L104,183
	l62.25-3l5.75-14.5L128.75,113.75z"/>
</svg>
