<?xml version="1.0" encoding="utf-8"?>
<!-- Generator: Adobe Illustrator 16.0.0, SVG Export Plug-In . SVG Version: 6.00 Build 0)  -->
<!DOCTYPE svg PUBLIC "-//W3C//DTD SVG 1.1//EN" "http://www.w3.org/Graphics/SVG/1.1/DTD/svg11.dtd">
<svg version="1.1" id="图层_1" xmlns="http://www.w3.org/2000/svg" xmlns:xlink="http://www.w3.org/1999/xlink" x="0px" y="0px"
	 width="200px" height="200px" viewBox="0 0 200 200" enable-background="new 0 0 200 200" xml:space="preserve">
<path fill="#E84C3D" d="M127.39,108.58c11.803-16.474,18.86-40.744,18.86-56.08c0-25-21.25-46.25-46.25-46.25S53.75,27.5,53.75,52.5
	c0,15.34,7.532,39.62,19.416,56.095C49.251,118.451,32.5,143.799,32.5,171.25c0,21.25,51.25,22.5,67.5,22.5s67.5-1.25,68.75-21.25
	C168.75,144.784,151.674,119.215,127.39,108.58z M78.75,66.25c0,0,0,1.25-1.25,1.25s-1.25,0-2.5-1.25c0,0-1.25-1.25-1.25-2.5
	s0-1.25,1.25-2.5s2.5-1.25,3.75,0c0,0,1.25,1.25,1.25,2.5S80,65,78.75,66.25z M101.25,31.25c-12.5,0-22.5,10-22.5,22.5
	c1.25,1.25,0,2.5-2.5,2.5c-1.25,0-2.5-1.25-2.5-2.5c0-15,12.5-27.5,27.5-27.5c1.25,0,2.5,1.25,2.5,2.5S102.5,31.25,101.25,31.25z"/>
</svg>
