<?xml version="1.0" encoding="utf-8"?>
<!-- Generator: Adobe Illustrator 17.0.0, SVG Export Plug-In . SVG Version: 6.00 Build 0)  -->
<!DOCTYPE svg PUBLIC "-//W3C//DTD SVG 1.1//EN" "http://www.w3.org/Graphics/SVG/1.1/DTD/svg11.dtd">
<svg version="1.1" id="图层_1" xmlns="http://www.w3.org/2000/svg" xmlns:xlink="http://www.w3.org/1999/xlink" x="0px" y="0px"
	 width="159px" height="39px" viewBox="0 0 159 39" enable-background="new 0 0 159 39" xml:space="preserve">
<g>
	<path d="M85.154,33.858c0.143-0.202,0.125-0.434-0.036-0.589c0.077-0.274-0.214-0.541,0.077-0.815
		c-0.113,0.321,0.125,0.381,0.256,0.529c0.226,0.285,0.422-0.024,0.619,0.089c0.036-0.178,0.083-0.357,0.113-0.523
		c0.024,0,0.036,0,0.059,0c0.03,0.077,0.036,0.125,0.083,0.268c0.071-0.089,0.125-0.137,0.143-0.19
		c0.107-0.256,0.184-0.529,0.303-0.797c0.03-0.077,0.125-0.107,0.19-0.161c0.024,0.024,0.036,0.048,0.054,0.059
		c-0.054,0.178-0.119,0.351-0.149,0.529c-0.042,0.155-0.089,0.321-0.095,0.476c-0.036,0.297,0.19,0.422,0.482,0.357
		c0.387-0.089,0.791-0.113,1.184-0.172c0.202-0.018,0.44-0.012,0.601-0.119c0.565-0.41,1.219-0.732,1.647-1.326
		c0.059-0.077,0.143-0.125,0.214-0.178c0.297-0.291,0.517-0.619,0.666-0.999c0.054-0.125,0.137-0.244,0.202-0.363
		c-0.018-0.036-0.036-0.048-0.054-0.071c-0.077,0.083-0.161,0.149-0.208,0.238c-0.137,0.25-0.303,0.22-0.494,0.077
		c-0.036-0.024-0.077-0.036-0.178-0.101c0.101-0.03,0.161-0.054,0.238-0.089c-0.018-0.03-0.042-0.059-0.059-0.095
		c-0.161,0.054-0.321,0.095-0.535,0.172c-0.03,0.125-0.059,0.327-0.101,0.559c-0.244,0.119-0.393,0.363-0.452,0.678
		c-0.006,0.048-0.042,0.089-0.071,0.107c-0.113,0.089-0.238,0.149-0.357,0.214c-0.125,0.065-0.274,0.202-0.375,0.178
		c-0.125-0.03-0.178-0.232-0.262-0.351c-0.03-0.048-0.054-0.065-0.095-0.089c-0.535-0.321-0.642-0.41-0.868-0.72
		c-0.208,0.012-0.369,0.018-0.517,0.03c-0.095,0-0.184-0.012-0.274,0.024c-0.41,0.095-0.827,0.202-1.231,0.297
		c-0.125,0.036-0.262,0-0.44,0c0.065,0.042,0.095,0.054,0.101,0.054c-0.089,0.089-0.196,0.172-0.321,0.291
		c-0.119-0.077-0.262-0.077-0.345,0.22c-0.006-0.256-0.101-0.256-0.25-0.178c-0.232,0.119-0.47,0.232-0.714,0.333
		c-0.113,0.042-0.238,0.042-0.363,0.065c-0.048,0-0.101,0-0.125,0.018c-0.256,0.268-0.619,0.244-0.928,0.363
		c-0.303,0.113-0.601,0.256-0.904,0.333c-0.339,0.089-0.69,0.089-1.035,0.137c-0.107,0.012-0.19,0.054-0.321,0.095
		c-0.143-0.488-0.345-0.993-0.137-1.505c0.125-0.309,0.381-0.607,0.66-0.779c0.357-0.232,0.797-0.339,1.201-0.488
		c0.03-0.006,0.065-0.018,0.095-0.042c0.25-0.202,0.458-0.119,0.654,0.071c0.042,0.036,0.143,0.083,0.149,0.059
		c0.184-0.256,0.488-0.065,0.72-0.184c0.226-0.125,0.476-0.184,0.72-0.262c0.761-0.244,1.529-0.47,2.284-0.714
		c0.375-0.119,0.732-0.22,1.088-0.381c0.113-0.036,0.202-0.172,0.244-0.291c0.226-0.577,0.44-1.136,0.648-1.707
		c0.113-0.285,0.214-0.577,0.309-0.862c0.077-0.268-0.042-0.452-0.262-0.589c-0.351-0.226-0.416-0.69-0.077-0.91
		c0.523-0.345,0.321-0.797,0.357-1.249c-0.833,0.161-1.511,0.523-2.111,1.16c-0.155-0.012-0.381-0.054-0.613-0.036
		c-0.268,0.024-0.398-0.125-0.535-0.291c-0.494,0.071-0.63,0.048-0.755-0.315c-0.089-0.244-0.083-0.541-0.024-0.797
		c0.125-0.488,0.327-0.922,0.708-1.308c0.416-0.434,0.88-0.743,1.427-0.964c0.202-0.089,0.381-0.232,0.553-0.375
		c0.452-0.381,0.892-0.773,1.332-1.166c0.089-0.071,0.184-0.149,0.256-0.232c0.167-0.208,0.25-0.381,0.036-0.648
		c-0.161-0.196-0.161-0.511-0.244-0.779c-0.274-0.946-0.589-1.879-0.797-2.837c-0.161-0.678-0.172-1.392-0.238-2.1
		c-0.036-0.351,0.125-0.648,0.327-0.922c0.131-0.178,0.268-0.363,0.422-0.511c0.226-0.214,0.511-0.208,0.803-0.149
		c0.214,0.042,0.44,0.125,0.648,0.095c0.303-0.059,0.607-0.184,0.892-0.321c0.41-0.19,0.619-0.565,0.761-0.981
		c0.262-0.755,0.535-1.499,0.797-2.248c0.065-0.178,0.119-0.363,0.155-0.547c0.208-0.797,0.624-1.493,1.195-2.07
		c0.22-0.226,0.541-0.357,0.833-0.494c0.214-0.107,0.404,0.042,0.607,0.113c0.422,0.143,0.446,0.476,0.434,0.815
		c-0.012,0.131-0.113,0.309-0.226,0.375c-0.398,0.256-0.517,0.642-0.636,1.065c-0.202,0.737-0.506,1.451-0.761,2.177
		c-0.083,0.238-0.125,0.488-0.184,0.755c0.815,0.22,1.576,0.428,2.337,0.619c0.393,0.107,0.809,0.161,1.201,0.244
		c0.03,0,0.059,0,0.077,0.006c0.541,0.244,1.071,0.47,1.445,0.964c0.339,0.428,0.143,1.374-0.47,1.606
		c-0.137,0.054-0.25,0.196-0.375,0.297c-0.28,0.238-0.624,0.333-0.946,0.47c-0.119,0.042-0.172,0.202-0.285,0.297
		c-0.22,0.208-0.458,0.416-0.684,0.63c-0.196,0.19-0.381,0.393-0.571,0.595c-0.101,0.095-0.167,0.196-0.256,0.309
		c0.006,0-0.048-0.048-0.077-0.03c-0.333,0.095-0.535,0.529-0.416,0.868c0.119,0.321-0.018,0.779-0.291,0.993
		c-0.303,0.25-0.595,0.517-0.898,0.761c-0.149,0.113-0.321,0.196-0.476,0.232c-0.315,0.071-0.297,0.333-0.369,0.541
		c-0.006,0.012,0.125,0.113,0.167,0.101c0.226-0.059,0.458-0.125,0.678-0.22c0.833-0.369,1.683-0.678,2.593-0.666
		c0.541,0.012,1.106,0.113,1.594,0.309c0.434,0.178,0.809,0.571,0.898,1.053c0.054,0.291-0.083,0.619-0.155,0.916
		c-0.012,0.071-0.101,0.143-0.167,0.172c-0.274,0.101-0.488,0.315-0.815,0.363c-0.327,0.059-0.702,0.113-0.946,0.416
		c-0.184,0.232-0.404,0.422-0.619,0.63c0.321,0.274,0.577,0.565,0.969,0.654c0.042,0.006,0.077,0.095,0.089,0.149
		c0.036,0.327-0.101,0.607-0.315,0.779c-0.25,0.208-0.583,0.315-0.886,0.434c-0.065,0.024-0.149-0.006-0.232-0.018
		c-0.143,0.22-0.357,0.327-0.619,0.333c-0.036,0-0.071,0.036-0.107,0.059c-0.042,0.036-0.083,0.095-0.119,0.095
		c-0.476-0.048-0.821,0.381-1.291,0.345c-0.083-0.018-0.161,0.113-0.256,0.155c-0.19,0.113-0.398,0.208-0.607,0.303
		c-0.03,0.012-0.089-0.059-0.137-0.095c-0.077,0.089-0.137,0.196-0.226,0.274c-0.095,0.077-0.208,0.119-0.315,0.167
		c-0.125,0.059-0.256,0.107-0.375,0.172c-0.178,0.101-0.363,0.208-0.565,0.339c0.012,0.024,0.03,0.083,0.048,0.137
		c-0.012,0.012-0.03,0.042-0.036,0.042c-0.25-0.012-0.303,0.172-0.297,0.357c0.03,0.351,0.089,0.696,0.131,1.065
		c0.511-0.131,0.987-0.238,1.457-0.375c0.357-0.119,0.535-0.41,0.69-0.726c0.071-0.131,0.125-0.262,0.244-0.47
		c0.101,0.172,0.184,0.303,0.244,0.428c0.125,0.303,0.452,0.458,0.732,0.41c0.393-0.077,0.785-0.125,1.172-0.184
		c0.042,0,0.095-0.012,0.125-0.03c0.327-0.226,0.714-0.238,1.088-0.303c0.131-0.024,0.274,0.012,0.416,0
		c0.488-0.059,0.981-0.125,1.469-0.184c0.149-0.024,0.309-0.054,0.452-0.095c0.036-0.006,0.083-0.089,0.089-0.125
		c0-0.048-0.042-0.125-0.089-0.131c-0.732-0.19-0.743-0.856-0.845-1.41c-0.095-0.553,0.065-1.1,0.315-1.6
		c0.101-0.184,0.297-0.327,0.446-0.488c0.167-0.172,0.369-0.333,0.535-0.517c0.285-0.297,0.595-0.601,0.851-0.922
		c0.44-0.571,0.868-1.16,1.273-1.743c0.321-0.47,0.636-0.94,0.916-1.427c0.149-0.256,0.297-0.547,0.321-0.833
		c0.012-0.291-0.095-0.619-0.214-0.88c-0.161-0.315-0.25-0.63-0.285-0.981c-0.059-0.565,0.387-1.142,1.065-1.172
		c0.767-0.036,1.35,0.339,1.755,0.952c0.268,0.398,0.327,0.868,0.315,1.356c0,0.452-0.083,0.898-0.285,1.314
		c-0.089,0.167-0.202,0.315-0.297,0.482c-0.291,0.482-0.619,0.952-0.862,1.469c-0.161,0.315-0.511,0.404-0.642,0.732
		c-0.125,0.303-0.327,0.571-0.482,0.851c-0.018,0.042-0.012,0.095-0.036,0.226c0.619-0.161,1.172-0.315,1.737-0.458
		c0.458-0.119,0.928-0.214,1.392-0.345c0.309-0.089,0.607-0.226,0.922-0.297c0.404-0.095,0.821-0.172,1.231-0.208
		c0.398-0.036,0.821-0.036,1.225,0c0.381,0.018,0.72,0.202,0.952,0.506c0.077,0.101,0.083,0.244,0.131,0.41
		c-0.024,0.244-0.059,0.571-0.101,0.868c0,0.059-0.012,0.125-0.03,0.184c-0.178,0.696-0.482,0.684-1.112,0.619
		c-0.172-0.024-0.357,0.042-0.529,0.059c-0.167,0-0.333-0.012-0.494,0.012c-0.256,0.036-0.506,0.018-0.779,0.149
		c-0.244,0.125-0.595,0.071-0.88,0.083c-0.042,0.012-0.083,0.012-0.125,0.024c-0.143,0.059-0.303,0.131-0.464,0.161
		c-0.184,0.042-0.238,0.143-0.167,0.297c0.416,0.821,0.345,1.671,0.214,2.54c-0.024,0.202,0,0.422,0,0.553
		c0.196,0.208,0.363,0.375,0.517,0.553c0.369,0.41,0.839,0.577,1.362,0.654c0.268,0.048,0.535,0.119,0.803,0.184
		c0.345,0.083,0.684,0.172,1.029,0.25c0.434,0.101,0.904,0.125,1.326,0.285c0.696,0.268,1.457,0.428,2.1,0.862
		c0.125,0.089,0.327,0.107,0.446,0.202c0.137,0.101,0.226,0.274,0.369,0.381c0.333,0.232,0.791,0.398,1.172,0.054
		c0.208-0.19,0.452-0.351,0.666-0.511c0.137,0.048,0.268,0.089,0.44,0.149c-0.107,0.125-0.226,0.256-0.321,0.404
		c-0.054,0.083-0.101,0.208-0.101,0.315c0,0.214,0.012,0.416,0.048,0.625c0.059,0.351-0.226,0.69-0.523,0.619
		c-0.065,0.125-0.125,0.256-0.202,0.375c-0.065,0.119-0.137,0.232-0.232,0.375c-0.024-0.03-0.071-0.065-0.143-0.137
		c-0.065,0.172-0.155,0.321-0.178,0.482c-0.048,0.321-0.25,0.529-0.488,0.72c-0.167,0.137-0.327,0.297-0.506,0.404
		c-0.065,0.042-0.19,0-0.333-0.024c-0.167,0.125-0.398,0.309-0.625,0.476c-0.018,0.012-0.036,0.036-0.054,0.036
		c-0.595-0.036-1.142,0.351-1.76,0.178c-0.107-0.036-0.25,0.083-0.333,0.107c-0.208-0.024-0.404-0.03-0.583-0.095
		c-0.268-0.077-0.529-0.19-0.785-0.309c-0.172-0.077-0.363-0.125-0.5-0.214c-0.131-0.089-0.232-0.232-0.363-0.345
		c-0.101-0.095-0.22-0.178-0.327-0.262c-0.309-0.28-0.607-0.547-0.904-0.809c-0.107-0.089-0.256-0.125-0.363-0.214
		c-0.244-0.202-0.464-0.387-0.702-0.583c-0.059-0.048-0.119-0.101-0.178-0.137c-0.184-0.149-0.375-0.321-0.583-0.434
		c-0.178-0.107-0.398-0.19-0.607-0.202c-0.19,0-0.268,0.202-0.339,0.381c-0.107,0.268-0.232,0.529-0.375,0.773
		c-0.042,0.065-0.178,0.077-0.226,0.149c-0.125,0.155-0.214,0.351-0.339,0.523c-0.208,0.309-0.393,0.619-0.785,0.749
		c-0.184,0.065-0.339,0.202-0.506,0.321c-0.042,0.024-0.089,0.036-0.131,0.048c-0.398,0.054-0.827,0.178-1.207,0.131
		c-0.321-0.054-0.69-0.065-0.975-0.339c-0.137-0.149-0.375-0.232-0.589-0.297c-0.375-0.101-0.577-0.375-0.791-0.636
		c-0.303-0.381-0.517-0.809-0.672-1.267c-0.083-0.285-0.28-0.529-0.375-0.809c-0.095-0.274-0.125-0.559-0.167-0.851
		c0.024-0.012,0.048-0.012,0.071-0.036c0.054,0.048,0.125,0.101,0.208,0.161c0.024-0.095,0.059-0.167,0.083-0.256
		c0.101,0.077,0.178,0.125,0.256,0.202c0.048,0.042,0.054,0.107,0.071,0.167c0.036,0.107,0.054,0.22,0.107,0.321
		c0.018,0.03,0.149,0.042,0.172,0.03c0.077-0.119,0.101-0.256,0.178-0.375c0.036-0.048,0.149-0.107,0.196-0.095
		c0.5,0.202,0.969,0.083,1.439-0.083c0.101-0.048,0.196-0.059,0.303-0.089c0.125-0.042,0.256-0.113,0.381-0.155
		c0.25-0.113,0.512-0.208,0.743-0.327c0.125-0.071,0.274-0.172,0.363-0.291c0.095-0.149,0.19-0.315-0.089-0.452
		c-0.196-0.095-0.339-0.315-0.488-0.476c-0.095-0.089-0.125-0.256-0.315-0.184c-0.03,0.012-0.125-0.107-0.131-0.172
		c-0.036-0.184-0.184-0.208-0.339-0.232c-0.054-0.012-0.172,0.059-0.178,0.095c-0.024,0.244-0.131,0.351-0.375,0.357
		c-0.196,0.012-0.393,0.071-0.595,0.089c-0.202,0.018-0.381,0.119-0.577-0.048c-0.036-0.042-0.167,0-0.238,0.03
		c-0.488,0.214-0.999,0.202-1.511,0.19c-0.095,0-0.226,0.012-0.262,0.071c-0.149,0.208-0.351,0.184-0.553,0.208
		c-0.327,0.036-0.66,0.024-0.969,0.196c-0.184,0.113-0.44,0.137-0.654,0.137c-0.161-0.012-0.214,0.048-0.238,0.161
		c-0.042,0.208-0.089,0.422-0.083,0.636c0.036,0.773-0.214,1.493-0.351,2.236c-0.083,0.428-0.291,0.809-0.547,1.148
		c-0.077,0.095-0.095,0.208-0.161,0.297c-0.143,0.167-0.339,0.309-0.458,0.488c-0.22,0.321-0.375,0.678-0.613,0.987
		c-0.083,0.172-0.339,0.262-0.535,0.381c-0.054,0.048-0.125,0.065-0.149,0.113c-0.077,0.083-0.113,0.196-0.184,0.297
		c-0.387,0.452-0.827,0.862-1.41,1.082c-0.303,0.113-0.595,0.065-0.898-0.042c-0.458-0.167-0.916-0.333-1.421-0.089
		c-0.149,0.065-0.428-0.042-0.619-0.155c-0.244-0.137-0.446-0.351-0.666-0.541c-0.048-0.048-0.095-0.089-0.125-0.137
		c-0.167-0.357-0.547-0.601-0.47-1.077c-0.065,0.042-0.107,0.089-0.161,0.119c-0.065-0.232-0.125-0.452-0.184-0.678L85.154,33.858z
		 M94.325,14.201c0,0,0.024,0.012,0.036,0.006c0.357-0.345,0.726-0.684,1.071-1.053c0.232-0.25,0.422-0.541,0.63-0.809
		c0.167-0.226,0.155-0.41,0-0.636c-0.244-0.321-0.589-0.5-0.928-0.678c-0.125-0.065-0.262-0.101-0.381-0.167
		c-0.678-0.41-0.69-0.387-1.047,0.321c-0.006,0.012-0.012,0.036-0.012,0.048c-0.262,0.654-0.244,0.738,0.131,1.065
		c0.19,0.167,0.321,0.428,0.523,0.565c0.274,0.19,0.321,0.416,0.238,0.684C94.516,13.785,94.415,13.993,94.325,14.201z
		 M89.615,16.265c0.184-0.268,0.381-0.494,0.535-0.755c0.167-0.285,0.333-0.589,0.44-0.904c0.048-0.131-0.006-0.351-0.095-0.47
		c-0.25-0.363-0.41-0.72-0.268-1.166c0.03-0.095,0.048-0.19,0.071-0.25c-0.375-0.006-0.589,0.5-1.053,0.25
		C88.574,14.147,88.99,15.188,89.615,16.265z M103.503,23.872c-0.006,0-0.083-0.018-0.125,0.012c-0.22,0.149-0.44,0.309-0.666,0.47
		c-0.042,0.024-0.095,0.054-0.143,0.077c0.059,0.054,0.107,0.107,0.167,0.125c0.274,0.125,0.571,0.238,0.856,0.339
		c0.149,0.048,0.274,0.018,0.357-0.149c0.161-0.28,0.345-0.559,0.517-0.827c0.149-0.238,0.315-0.47,0.511-0.761
		c-0.363,0.184-0.642,0.339-0.934,0.488c-0.03,0.018-0.071,0.036-0.113,0.059C103.8,23.747,103.681,23.806,103.503,23.872z
		 M91.114,11.852c-0.345,0.048-0.381,0.398-0.583,0.607C90.87,12.405,91.013,12.143,91.114,11.852z M92.66,21.124
		c-0.024-0.03-0.059-0.071-0.077-0.101c-0.125,0.101-0.262,0.208-0.387,0.315c0.018,0.03,0.042,0.059,0.065,0.095
		C92.392,21.332,92.535,21.225,92.66,21.124z"/>
	<path d="M21.996,29.587c-0.065,0.065-0.125,0.137-0.161,0.178c-0.333,0-0.66,0-0.987,0c-0.042,0.024-0.101,0.083-0.167,0.083
		c-0.619,0.101-1.243,0.172-1.862,0.268c-0.363,0.059-0.714,0.149-1.077,0.226c-0.089,0.018-0.208,0.018-0.291-0.024
		c-0.178-0.077-0.161,0.042-0.167,0.089c-0.262,0.042-0.506,0.095-0.755,0.125c-0.125,0.018-0.256,0-0.393,0
		c-0.042,0-0.101-0.036-0.119-0.012c-0.327,0.321-0.779,0.214-1.166,0.339c-0.309,0.101-0.63,0.101-0.952,0.238
		c-0.333,0.167-0.743,0.131-1.13,0.196c-0.089,0-0.184,0.048-0.28,0.065c-0.19,0.036-0.387,0.048-0.601,0.065
		c0.071,0.036,0.125,0.054,0.119,0.054c-0.476,0.137-0.987,0.321-1.505,0.446C10.25,31.99,9.946,32.038,9.72,31.96
		c-0.309-0.143-0.636-0.226-0.934-0.363c-0.19-0.095-0.321-0.309-0.488-0.482c-0.196-0.196-0.375-0.41-0.589-0.595
		c-0.339-0.291-0.595-0.625-0.714-1.047c-0.054-0.172-0.083-0.375-0.083-0.553c-0.006-0.63-0.321-1.166-0.506-1.743
		c-0.125-0.381-0.232-0.767-0.387-1.136c-0.488-1.178-0.809-2.391-1.207-3.598c-0.44-1.344-0.309-2.676-0.137-4.027
		c0.03-0.25,0.149-0.511,0.262-0.749c0.196-0.404,0.506-0.511,0.916-0.291c0.19,0.107,0.446,0.155,0.511,0.422
		c0.339,0.024,0.375,0.339,0.523,0.547c0.404,0.577,0.613,1.19,0.262,1.891c-0.137,0.291-0.161,0.648-0.178,0.975
		c-0.036,0.452-0.048,0.922,0.006,1.38c0.048,0.464,0.172,0.94,0.291,1.398c0.113,0.446,0.28,0.886,0.529,1.273
		c0.065,0.101,0.071,0.232,0.125,0.333c0.28,0.63,0.565,1.243,0.874,1.862c0.101,0.196,0.28,0.369,0.446,0.535
		c0.083,0.095,0.196,0.208,0.357,0.113c0.042-0.03,0.137,0,0.19,0.03c0.422,0.226,0.874,0.113,1.303,0.101
		c0.845-0.012,1.683-0.101,2.528-0.19c0.297-0.024,0.583-0.149,0.916-0.244c0-0.018,0.042-0.083,0.042-0.149
		c0.018-1.416,0.333-2.825,0.256-4.259c-0.048-0.969,0.172-1.897,0.428-2.819c0.125-0.446,0.161-0.892,0.101-1.362
		c-0.131-1.011-0.077-2.034-0.054-3.057c0.012-0.779,0.113-1.576-0.006-2.337c-0.095-0.63,0.006-1.201,0.113-1.778
		c0.143-0.743,0.595-1.332,1.195-1.808c0.268-0.208,0.494-0.464,0.791-0.755c-0.143-0.024-0.214-0.054-0.25-0.03
		c-0.726,0.506-1.624,0.66-2.409,1.166c-0.012-0.006-0.071-0.042-0.137-0.065c-0.196,0.095-0.268,0.488-0.559,0.238
		c-0.178,0.107-0.333,0.238-0.506,0.297c-0.226,0.071-0.333,0.357-0.642,0.28c-0.107-0.03-0.274,0.167-0.398,0.262
		c-0.03,0.018-0.065,0.071-0.089,0.059c-0.327-0.119-0.387,0.333-0.66,0.321c0.095,0.208-0.131,0.155-0.172,0.161
		c-0.315,0.03-0.529,0.226-0.738,0.434c-0.012,0.018-0.018,0.036-0.036,0.042c-0.315,0.024-0.583,0.327-0.946,0.161
		c-0.113-0.048-0.244-0.036-0.375-0.065c-0.488-0.107-0.702-0.523-0.738-0.916c-0.059-0.595-0.024-1.207,0.155-1.802
		c0.256-0.839,0.839-1.338,1.54-1.778c0.416-0.256,0.785-0.595,1.178-0.892c0.03-0.03,0.048-0.077,0.089-0.095
		c0.083-0.03,0.172-0.054,0.256-0.077c0.018,0.083,0.059,0.167,0.059,0.256c0.024,0.404,0.042,0.809,0.065,1.297
		c0.434-0.167,0.827-0.315,1.213-0.464c0.726-0.291,1.433-0.625,2.171-0.874c1.035-0.351,2.094-0.642,3.14-0.952
		c0.387-0.113,0.767-0.244,1.16-0.321c0.262-0.048,0.547-0.03,0.815-0.024c0.28,0.006,0.583-0.024,0.821,0.077
		c0.333,0.143,0.708,0.244,0.898,0.642c0.357,0.743,0.065,1.386-0.238,2.046c-0.054,0.131-0.125,0.25-0.19,0.381
		c-0.184,0.327-0.476,0.523-0.791,0.708c-0.345,0.196-0.666,0.452-1.011,0.66c-0.285,0.167-0.577,0.291-0.868,0.446
		c-0.042,0.018-0.101,0.048-0.101,0.071c0.024,0.178-0.131,0.172-0.238,0.232c-0.41,0.25-0.595,0.636-0.696,1.088
		c-0.19,0.862-0.375,1.725-0.589,2.581c-0.095,0.398-0.262,0.779-0.339,1.184c-0.071,0.351-0.059,0.714-0.095,1.071
		c-0.03,0.452-0.036,0.91-0.089,1.362c-0.036,0.387-0.143,0.767-0.196,1.166c-0.03,0.161-0.059,0.339,0.119,0.47
		c0.042,0.03,0.036,0.131,0.03,0.214c-0.006,0.107-0.03,0.208-0.03,0.315c0.565-0.559,0.969-1.195,1.225-1.939
		c0.321-0.922,0.619-1.85,0.922-2.783c0.172-0.517,0.113-1.053,0.024-1.582c-0.012-0.083-0.071-0.167-0.119-0.238
		c-0.214-0.321-0.214-0.654-0.077-0.993c0.095-0.238,0.351-0.387,0.595-0.369c0.244,0.024,0.517,0,0.726,0.095
		c0.434,0.208,0.975,0.303,1.166,0.833c0.309,0.839,0.339,1.677-0.101,2.498c-0.523,0.969-0.868,1.992-0.975,3.081
		c-0.03,0.303-0.119,0.595-0.178,0.88c-0.036,0.178,0.018,0.22,0.19,0.19c0.404-0.083,0.797,0.018,1.136,0.22
		c0.22,0.125,0.404,0.303,0.577,0.482c0.059,0.059,0.042,0.184,0.054,0.285c0.018,0.107-0.012,0.256,0.042,0.315
		c0.238,0.208,0.19,0.47,0.161,0.72c-0.048,0.333-0.25,0.523-0.589,0.619c-0.274,0.065-0.517,0.226-0.785,0.345
		c-0.244,0.095-0.494,0.208-0.749,0.244c-0.345,0.048-0.517,0.351-0.803,0.47c-0.083,0.048-0.172,0.095-0.268,0.107
		c-0.107,0.024-0.22,0.024-0.339,0.036c0.054,0.059,0.119,0.137,0.172,0.196c-0.054-0.036-0.107-0.059-0.149-0.089
		c-0.077,0.095-0.137,0.22-0.226,0.297c-0.167,0.149-0.357,0.28-0.535,0.416c-0.059,0.048-0.113,0.095-0.155,0.167
		c-0.113,0.149-0.238,0.25-0.446,0.226c-0.077-0.012-0.155,0.077-0.244,0.119c-0.03-0.024-0.095-0.083-0.155-0.119
		c-0.03,0.071-0.107,0.167-0.095,0.238c0.048,0.333-0.054,0.672,0.137,1.011c0.184,0.333,0.137,0.369,0.535,0.297
		c0.856-0.161,1.701-0.339,2.546-0.523c0.172-0.03,0.345-0.107,0.511-0.178c0.684-0.297,1.392-0.387,2.129-0.345
		c0.101,0.012,0.208,0,0.309,0.012c0.196,0.024,0.297-0.095,0.345-0.262c0.339-1.005,0.654-2.004,1.017-3.004
		c0.214-0.589,0.517-1.154,0.738-1.743c0.19-0.529,0.321-1.082,0.47-1.63c0.095-0.351,0.208-0.696,0.238-1.053
		c0.054-0.678-0.006-1.362,0.077-2.034c0.083-0.642,0.178-1.314,0.571-1.868c0.143-0.208,0.375-0.363,0.607-0.494
		c0.184-0.101,0.708,0.089,0.839,0.274c0.03,0.036,0.054,0.095,0.101,0.113c0.458,0.161,0.654,0.601,0.868,0.94
		c0.232,0.357,0.553,0.66,0.708,1.071c0.03,0.089,0.065,0.184,0.077,0.285c0.042,0.226,0.119,0.458,0.089,0.678
		c-0.101,0.714-0.232,1.416-0.369,2.123c-0.107,0.547-0.238,1.077-0.393,1.606c-0.143,0.458-0.327,0.904-0.506,1.344
		c-0.214,0.535-0.458,1.047-0.66,1.594c-0.155,0.44-0.268,0.898-0.398,1.35c-0.065,0.22-0.149,0.434-0.214,0.654
		c-0.143,0.428-0.291,0.868-0.404,1.308c-0.363,1.392-0.571,2.795-0.702,4.205c-0.089,0.999-0.297,1.987-0.654,2.932
		c-0.167,0.446-0.303,0.928-0.511,1.362c-0.113,0.244-0.398,0.375-0.636,0.44c-0.226,0.089-0.488,0.048-0.726,0.101
		c-0.161,0.042-0.262-0.024-0.375-0.119c-0.208-0.202-0.422-0.404-0.624-0.601c-0.048-0.048-0.071-0.113-0.095-0.178
		c-0.048-0.143-0.071-0.291-0.274-0.268c-0.042,0-0.113-0.054-0.137-0.107c-0.172-0.291-0.339-0.577-0.482-0.892
		c-0.095-0.19-0.125-0.428-0.22-0.619c-0.309-0.625-0.226-1.231,0.065-1.814c0.28-0.541,0.381-1.13,0.523-1.719
		c0.03-0.131,0.006-0.268,0.006-0.41C22.079,29.605,22.038,29.599,21.996,29.587z"/>
	<path d="M55.921,10.626c-0.143,0.083-0.274,0.178-0.422,0.238c-0.137,0.054-0.297,0.059-0.44,0.083
		c-0.125,0.024-0.256,0.042-0.375,0.065c-0.125,0.018-0.244,0.054-0.375,0.077c-0.024,0.012-0.077-0.018-0.101,0
		c-0.285,0.244-0.666,0.25-1.005,0.375c-0.208,0.071-0.428,0.089-0.636,0.137c-0.25,0.059-0.494,0.131-0.743,0.178
		c-0.274,0.048-0.541,0.077-0.815,0.113c-0.059,0.012-0.119,0.012-0.178,0.024c-0.416,0.054-0.761-0.25-0.726-0.672
		c0.048-0.476,0.149-0.946,0.601-1.219c0.101-0.059,0.256-0.107,0.357-0.065c0.975,0.393,1.945,0.232,2.914-0.024
		c0.571-0.149,1.154-0.268,1.737-0.398c0.113-0.024,0.226-0.065,0.345-0.095c0.297-0.077,0.5-0.226,0.654-0.541
		c0.363-0.761,0.815-1.487,1.207-2.242c0.506-0.981,0.975-1.981,1.475-2.962c0.214-0.422,0.464-0.827,0.72-1.219
		c0.226-0.339,0.47-0.666,0.738-0.981c0.333-0.393,0.761-0.654,1.255-0.797c0.535-0.155,1.136,0.309,1.118,0.868
		c-0.006,0.339-0.095,0.648-0.309,0.934c-0.196,0.268-0.327,0.583-0.494,0.874c-0.042,0.077-0.101,0.155-0.19,0.208
		c0.006-0.172,0.018-0.357,0.024-0.529c-0.018-0.006-0.036-0.012-0.054-0.018c-0.071,0.131-0.131,0.268-0.22,0.393
		c-0.488,0.708-0.975,1.427-1.475,2.123c-0.589,0.815-1.059,1.689-1.404,2.629c-0.036,0.089-0.054,0.184-0.077,0.274
		c-0.012,0.048-0.012,0.095-0.024,0.202c0.22-0.059,0.416-0.101,0.607-0.155c1.005-0.291,2.01-0.571,3.004-0.904
		c0.398-0.131,0.755-0.387,1.124-0.613c0.089-0.054,0.125-0.178,0.202-0.262c0.03-0.042,0.089-0.065,0.137-0.095
		c0.03,0.042,0.048,0.095,0.089,0.131c0.054,0.059,0.119,0.149,0.178,0.155c0.303,0.024,0.511,0.375,0.494,0.678
		c-0.042,0.553-0.315,0.91-0.827,1.118c-0.375,0.149-0.743,0.208-1.148,0.172c-0.297-0.03-0.607,0.107-0.91,0.19
		c-0.44,0.113-0.868,0.25-1.314,0.357c-0.363,0.083-0.732,0.131-1.088,0.208c-0.642,0.149-1.148,0.494-1.416,1.118
		c-0.184,0.458-0.369,0.922-0.529,1.392c-0.048,0.137-0.006,0.309-0.006,0.506c0.327-0.113,0.613-0.22,0.892-0.297
		c0.351-0.095,0.714-0.161,1.065-0.244c0.172-0.036,0.333-0.101,0.5-0.113c0.285-0.03,0.583-0.083,0.851-0.012
		c0.393,0.095,0.767,0.274,1.142,0.434c0.327,0.137,0.511,0.434,0.654,0.726c0.178,0.363,0.232,0.791,0.428,1.136
		c0.285,0.517,0.256,1.082,0.309,1.612c0.077,0.743,0.036,1.487,0.048,2.23c0,0.208,0.059,0.404,0.054,0.619
		c-0.006,1.011-0.036,2.022-0.048,3.033c0,0.428,0,0.856,0,1.243c0.28,0.351,0.571,0.125,0.856,0.095
		c0.393-0.048,0.797-0.071,1.19-0.119c0.125-0.012,0.256-0.048,0.381-0.071c0.72-0.125,1.439-0.167,2.153-0.107
		c0.375,0.036,0.743,0.095,1.112,0.172c0.28,0.059,0.535,0.172,0.809,0.274c0.149,0.054,0.393,0.63,0.357,0.839
		c-0.089,0.464-0.167,0.928-0.268,1.386c-0.083,0.369-0.208,0.726-0.315,1.13c-0.125-0.089-0.19-0.119-0.184-0.119
		c-0.184,0.048-0.303,0.089-0.416,0.107c-0.363,0.042-0.732,0.149-1.088,0.119c-0.345-0.036-0.66,0.024-0.993,0.042
		c-0.363,0.024-0.726,0.042-1.082,0.054c-0.535,0.03-1.053,0.137-1.552,0.345c-0.167,0.071-0.369,0.101-0.541,0.077
		c-0.226-0.036-0.291,0.107-0.375,0.244c-0.22,0.416-0.434,0.851-0.666,1.249c-0.125,0.226-0.28,0.244-0.5,0.125
		c-0.065-0.018-0.137-0.054-0.208-0.065c-0.381-0.012-0.541-0.137-0.607-0.511c0-0.03,0-0.059-0.006-0.071
		c-0.178-0.797-0.214-0.702-0.922-0.607c-0.458,0.059-0.868,0.196-1.273,0.393c-0.143,0.083-0.321,0.095-0.494,0.113
		c-0.256,0.012-0.5,0.077-0.743,0.178c-0.357,0.149-0.755,0.202-1.118,0.321c-0.369,0.119-0.72,0.274-1.071,0.41
		c-0.083,0.036-0.155,0.077-0.244,0.107c-0.101,0.024-0.274,0-0.303,0.071c-0.077,0.143-0.119,0.339-0.119,0.511
		c0,0.351,0.095,0.696,0.036,1.029c-0.161,0.964-0.262,1.939-0.648,2.873c-0.232,0.541-0.321,1.136-0.464,1.701
		c-0.131,0.517-0.256,1.059-0.381,1.582c-0.042,0.167-0.131,0.232-0.309,0.232c-0.083-0.018-0.167,0.054-0.244,0.119
		c-0.065,0.036-0.119,0.137-0.167,0.137c-0.333-0.054-0.666-0.119-0.999-0.161c-0.077-0.012-0.149-0.012-0.232-0.03
		c-0.155-0.018-0.303,0.042-0.482-0.042c-0.25-0.131-0.434-0.268-0.565-0.511c-0.059-0.131-0.208-0.22-0.345-0.256
		c-0.285-0.083-0.446-0.262-0.535-0.529c-0.125-0.393-0.25-0.767-0.393-1.148c-0.226-0.595-0.065-1.166,0.083-1.731
		c0.131-0.5,0.22-0.999,0.327-1.487c0.012-0.065,0.012-0.119,0.006-0.184c-0.018-0.369-0.101-0.422-0.428-0.256
		c-0.315,0.178-0.678,0.077-1.011,0.155c-0.065,0.024-0.131,0-0.202,0.012c-0.238,0.03-0.458,0.077-0.696,0.089
		c-0.404,0.036-0.815,0.065-1.219,0.048c-0.595-0.012-1.178-0.089-1.683-0.428c-0.297-0.19-0.589-0.41-0.839-0.654
		c-0.143-0.155-0.25-0.363-0.315-0.553c-0.167-0.529-0.333-1.065-0.297-1.63c0.024-0.428,0.25-0.672,0.595-0.868
		c0.196-0.119,0.327-0.178,0.517-0.024c0.178,0.149,0.369,0.339,0.589,0.416c0.393,0.155,0.815,0.28,1.237,0.339
		c0.785,0.095,1.564-0.065,2.331-0.226c0.476-0.089,0.946-0.178,1.421-0.268c0.036,0,0.065-0.054,0.107-0.059
		c0.589-0.22,1.106-0.583,1.63-0.904c0.184-0.119,0.303-0.244,0.303-0.488c0-0.315,0.089-0.619,0.149-0.928
		c0.107-0.553,0.22-1.088,0.321-1.642c0.095-0.541,0.172-1.077,0.28-1.606c0.03-0.125,0.125-0.232,0.178-0.363
		c0.054-0.125,0.107-0.256,0.119-0.381c0.071-0.773,0.167-1.534,0.404-2.278c0.137-0.416,0.125-0.88,0.256-1.308
		c0.113-0.375,0.101-0.809,0.369-1.148c0.071-0.089,0.101-0.22,0.125-0.339c0.214-0.922,0.404-1.856,0.648-2.766
		c0.131-0.494,0.351-0.975,0.565-1.439c0.125-0.274,0.345-0.506,0.5-0.773c0.065-0.107,0.071-0.244,0.107-0.375
		C55.981,10.656,55.951,10.644,55.921,10.626z M55.226,19.982c-0.054,0.351-0.131,0.684-0.167,1.029
		c-0.024,0.202-0.054,0.458,0.285,0.446c0.012,0,0.03,0.024,0.036,0.036c0.208,0.232,0.547,0.244,0.797,0.464
		c0.184,0.167,0.583,0.149,0.886,0.137c0.506,0,1.017-0.071,1.529-0.101c0.054,0,0.131,0.054,0.155,0.101
		c0.155,0.303,0.464,0.428,0.696,0.559c-0.107,0.291-0.22,0.577-0.315,0.815c-0.291,0.018-0.583-0.024-0.833,0.071
		c-0.274,0.089-0.523,0.208-0.749,0.036c-0.125,0.071-0.208,0.125-0.297,0.172c-0.107,0.048-0.22,0.083-0.327,0.101
		c-0.262,0.042-0.517,0.101-0.714,0.303c-0.012,0-0.036,0-0.048,0c-0.476,0.208-0.958-0.077-1.433,0c0,0-0.012,0-0.024,0
		c-0.167-0.125-0.232,0-0.268,0.131c-0.065,0.274-0.149,0.535-0.184,0.815c-0.03,0.303-0.006,0.607-0.006,0.886
		c0.232-0.03,0.434-0.059,0.63-0.095c0.345-0.059,0.702-0.095,1.029-0.184c0.416-0.119,0.809-0.309,1.225-0.44
		c0.506-0.155,1.029-0.291,1.54-0.44c0.291-0.083,0.583-0.184,0.856-0.297c0.452-0.167,0.892-0.363,1.344-0.541
		c0.059-0.03,0.143-0.018,0.22-0.018c0.018,0.018,0.042,0.036,0.065,0.065c0.059-0.202,0.143-0.404,0.167-0.613
		c0.036-0.268,0.036-0.553,0.024-0.827c-0.048-1.118-0.089-2.254-0.155-3.366c-0.036-0.72-0.107-1.439-0.184-2.153
		c-0.077-0.755-0.172-1.517-0.63-2.153c-0.868-0.077-1.647,0.309-2.516,0.422c0.048,0.149,0.048,0.309,0.125,0.398
		c0.089,0.107,0.256,0.149,0.369,0.238c0.161,0.125,0.285,0.309,0.464,0.375c0.565,0.232,0.975,0.636,1.297,1.13
		c0.089,0.137,0.137,0.41,0.065,0.529c-0.119,0.178-0.357,0.285-0.547,0.422c-0.012,0.012-0.071-0.018-0.083-0.048
		c-0.131-0.232-0.416-0.184-0.607-0.327c-0.226-0.161-0.482-0.285-0.72-0.428c-0.172-0.119-0.321-0.303-0.512-0.357
		c-0.393-0.101-0.749-0.274-1.118-0.428c-0.113-0.042-0.214-0.107-0.357-0.167c-0.196,0.351-0.351,0.743-0.345,1.136
		c0.172,0.083,0.303,0.125,0.428,0.196c0.375,0.19,0.743,0.393,1.118,0.607c0.101,0.048,0.25,0.107,0.28,0.184
		c0.083,0.256,0.238,0.422,0.458,0.559c0.03,0.012,0.03,0.071,0.048,0.107c0.107,0.28,0.196,0.553,0.315,0.815
		c0.089,0.184,0.071,0.363-0.095,0.44c-0.268,0.125-0.517,0.297-0.851,0.196c-0.155-0.048-0.339-0.024-0.506-0.054
		c-0.327-0.065-0.666-0.042-0.958-0.297C55.88,20.357,55.582,20.214,55.226,19.982z"/>
	<path d="M147.17,18.144c-0.619,1.374-1.713,2.236-2.968,2.98c0.065,0.089,0.167,0.19,0.25,0.309
		c0.143,0.196,0.262,0.404,0.404,0.607c0.125,0.196,0.095,0.488-0.149,0.72c-0.208,0.226-0.47,0.404-0.708,0.619
		c-0.184,0.161-0.375,0.327-0.541,0.511c-0.167,0.184-0.113,0.398,0.089,0.547c0.434,0.321,0.886,0.63,1.308,0.987
		c0.226,0.19,0.387,0.47,0.577,0.72c0.238,0.321,0.458,0.654,0.702,0.958c0.125,0.167,0.25,0.125,0.375-0.024
		c0.256-0.291,0.476-0.583,0.488-0.999c0.006-0.095,0.131-0.172,0.196-0.28c0.083-0.107,0.178-0.22,0.214-0.363
		c0.065-0.214,0.077-0.44,0.125-0.672c0-0.024,0.03-0.048,0.089-0.119c0.012,0.155,0.018,0.25,0.03,0.363
		c0.018,0,0.03,0.012,0.059,0.012c0.024-0.083,0.101-0.167,0.095-0.238c-0.054-0.488,0.208-0.868,0.369-1.297
		c0.256-0.672,0.619-1.32,0.732-2.052c0.054-0.375,0.048-0.708-0.184-1.041c-0.107-0.155-0.113-0.387-0.137-0.589
		c-0.006-0.036,0.125-0.137,0.167-0.125c0.428,0.089,0.886,0.125,1.273,0.315c0.755,0.363,1.047,0.874,0.856,1.778
		c-0.131,0.696-0.303,1.38-0.434,2.088c-0.048,0.232-0.036,0.476-0.048,0.708c0,0.036,0.006,0.059,0,0.089
		c-0.178,0.666-0.119,1.41-0.553,2.016c-0.089,0.125-0.107,0.315-0.161,0.5c0.012,0.012,0.048,0.036,0.083,0.036
		c0.345-0.048,0.684-0.107,1.023-0.149c0.071,0,0.125-0.012,0.196,0c0.345,0.048,0.678,0.089,1.011,0.149
		c0.19,0.048,0.375,0.125,0.565,0.172c0.363,0.071,0.559,0.404,0.856,0.583c0.119,0.059,0.178,0.22,0.268,0.339
		c0.024,0.036,0.024,0.083,0.048,0.119c0.44,0.452,0.422,1.053,0.535,1.606c0.059,0.339-0.214,0.565-0.642,0.553
		c-0.167,0-0.333,0.048-0.5,0.054c-0.048,0-0.089,0.012-0.125,0c-0.381-0.178-0.732,0.048-1.1,0.101
		c-0.024,0.012-0.048,0.03-0.071,0.03c-0.387-0.077-0.726,0.161-1.082,0.226c-0.178,0.03-0.375,0-0.547,0.042
		c-0.196,0.042-0.381,0.155-0.571,0.214c-0.363,0.119-0.72,0.184-1.082,0.327c-0.303,0.119-0.589,0.28-0.868,0.416
		c-0.184,0.095-0.464,0.143-0.5,0.262c-0.101,0.345-0.131,0.702-0.125,1.077c0.036,0.958,0.036,1.885-0.351,2.807
		c-0.155,0.363-0.274,0.743-0.458,1.106c-0.184,0.381-0.506,0.72-0.886,0.898c-0.375,0.178-0.785,0.101-1.178-0.125
		c-0.595-0.351-1.053-0.839-1.463-1.368c-0.351-0.464-0.63-0.987-0.958-1.475c-0.137-0.196-0.333-0.375-0.44-0.595
		c-0.172-0.345-0.339-0.678-0.428-1.041c-0.06-0.19-0.119-0.333-0.167-0.488c-0.024-0.077-0.012-0.155-0.012-0.309
		c0.143,0.149,0.238,0.244,0.321,0.333c0.018,0,0.042-0.012,0.054-0.024c-0.006-0.065-0.012-0.137-0.03-0.22
		c0.036,0,0.071-0.012,0.101-0.012c0.672-0.024,1.326,0.274,1.998,0.083c0.422-0.125,0.791-0.309,0.987-0.761
		c0.309-0.755,0.523-1.523,0.375-2.337c-0.048-0.303-0.107-0.357-0.363-0.214c-0.339,0.19-0.684,0.381-0.946,0.654
		c-0.339,0.345-0.732,0.553-1.142,0.755c-0.244,0.125-0.428,0.345-0.63,0.523c-0.208,0.19-0.404,0.381-0.607,0.595
		c-0.054,0.042-0.125,0.101-0.155,0.167c-0.071,0.19-0.19,0.309-0.363,0.446c-0.256,0.178-0.446,0.47-0.619,0.743
		c-0.184,0.297-0.506,0.363-0.773,0.113c-0.244-0.25-0.244-0.25-0.488,0.119c-0.036-0.089-0.071-0.137-0.083-0.202
		c-0.048-0.149-0.113-0.161-0.244-0.089c-0.238,0.113-0.553-0.095-0.583-0.363c-0.083-0.678,0.25-1.142,0.779-1.529
		c0.738-0.565,1.463-1.136,2.183-1.719c0.41-0.333,0.809-0.684,1.201-1.059c0.172-0.155,0.327-0.363,0.5-0.559
		c-0.131-0.077-0.208-0.107-0.285-0.149c-0.131,0.083-0.262,0.172-0.393,0.268c-0.036-0.077-0.054-0.119-0.054-0.119
		c-0.333,0.083-0.636,0.137-0.934,0.256c-0.172,0.059-0.327,0.196-0.476,0.303c-0.054,0.036-0.077,0.113-0.119,0.125
		c-0.345,0.119-0.702,0.244-1.065,0.357c-0.149,0.054-0.339,0-0.452,0.167c-0.006,0.024-0.054,0.036-0.065,0.024
		c-0.172-0.161-0.339-0.024-0.506,0.012c-0.285,0.048-0.571,0.071-0.851,0.125c-0.083,0.03-0.155,0.119-0.214,0.172
		c-0.345,0.339-0.571,0.339-0.868-0.018c-0.107-0.125-0.571-0.202-0.696-0.113c-0.327-0.161-0.381-0.387-0.202-0.732
		c0.41-0.732,1.005-1.207,1.85-1.374c0.369-0.065,0.702-0.232,1.059-0.345c0.125-0.036,0.244-0.059,0.375-0.083
		c0.732-0.19,1.451-0.381,2.177-0.571c0.25-0.071,0.494-0.137,0.732-0.238c-0.357-0.184-0.613-0.874-0.458-1.344
		c0.125-0.375,0.315-0.743,0.476-1.112c0.059-0.125,0.125-0.244,0.172-0.404c-0.827,0.172-1.624,0.375-2.403,0.886
		c-0.059-0.226-0.137-0.428-0.143-0.642c-0.018-0.666,0.238-1.231,0.714-1.695c0.125-0.119,0.25-0.244,0.357-0.375
		c0.196-0.256,0.494-0.19,0.749-0.262c0.214-0.054,0.428-0.119,0.619-0.22c0.553-0.315,1.088-0.648,1.618-0.975
		c0.375-0.226,0.642-0.547,0.779-0.964c0.03-0.083-0.03-0.196-0.048-0.303c-0.077,0.018-0.161,0.024-0.238,0.059
		c-0.226,0.113-0.44,0.232-0.678,0.351c-0.048,0.024-0.095,0.059-0.131,0.048c-0.25-0.036-0.434,0.059-0.595,0.244
		c-0.048,0.059-0.167,0.089-0.25,0.083c-0.048-0.012-0.125-0.113-0.113-0.172c0.018-0.636-0.024-1.314,0.553-1.778
		c0.262-0.208,0.577-0.357,0.868-0.547c0.512-0.327,0.874-0.755,0.946-1.416c-0.155,0.042-0.297,0.059-0.41,0.119
		c-0.131,0.054-0.226,0.042-0.351-0.048c-0.315-0.238-0.327-0.268-0.095-0.583c0.196-0.274,0.381-0.547,0.595-0.809
		c0.089-0.101,0.214-0.167,0.285-0.297c-0.024,0.006-0.065,0.012-0.083,0.024c-0.393,0.315-0.845,0.589-1.184,0.952
		c-0.297,0.303-0.589,0.666-0.714,1.059c-0.333,0.981-0.868,1.85-1.249,2.783c-0.125,0.309-0.202,0.63-0.285,0.958
		c-0.077,0.28-0.125,0.547-0.44,0.672c-0.065,0.012-0.125,0.059-0.155,0.119c-0.178,0.345-0.512,0.274-0.791,0.256
		c-0.125-0.012-0.232-0.137-0.351-0.196c-0.059-0.048-0.125-0.089-0.19-0.119c-0.512-0.167-0.666-0.511-0.613-1.059
		c0.083-0.791,0.381-1.511,0.511-2.272c0.143-0.827,0.535-1.552,0.779-2.337c0.167-0.559,0.601-0.916,0.94-1.326
		c0.285-0.333,0.434-0.285,0.678,0.107c0.119,0.184,0.375,0.256,0.595,0.137c0.529-0.303,1.047-0.625,1.582-0.922
		c0.589-0.333,1.154-0.678,1.665-1.136c0.345-0.309,0.464-0.732,0.619-1.136c0.024-0.054,0.006-0.131,0.006-0.178
		c-0.309,0-0.601,0-0.886,0c-0.059,0-0.131,0.018-0.178,0.065c-0.214,0.214-0.47,0.149-0.726,0.113
		c-0.125-0.018-0.256-0.059-0.387-0.095c-0.155-0.036-0.327-0.024-0.416-0.226c-0.036-0.071-0.22-0.071-0.333-0.119
		c-0.208-0.107-0.434-0.208-0.63-0.351c-0.268-0.19-0.523-0.404-0.779-0.619c-0.375-0.315-0.553-0.88-0.333-1.273
		c0.155-0.274,0.393-0.523,0.666-0.69c0.321-0.208,0.702-0.297,1.053-0.47c0.975-0.494,2.07-0.589,3.099-0.88
		c0.773-0.214,1.564-0.315,2.349-0.036c0.428,0.155,0.856,0.369,1.237,0.613c0.506,0.315,0.672,1.487,0.202,1.915
		c-0.19,0.172-0.309,0.434-0.488,0.625c-0.226,0.256-0.512,0.476-0.726,0.743c-0.22,0.28-0.393,0.577-0.517,0.874
		c-0.125,0.285,0.054,0.44,0.363,0.416c0.315-0.024,0.624,0.024,0.946,0.018c0.851-0.03,1.582,0.321,2.308,0.66
		c0.19,0.083,0.327,0.244,0.494,0.363c0.137,0.107,0.303,0.184,0.434,0.297c0.256,0.232,0.565,0.44,0.732,0.726
		c0.41,0.672,0.523,1.398,0.28,2.183c-0.25,0.761-0.636,1.416-1.249,1.945c-0.321,0.28-0.642,0.529-1.035,0.708
		c-0.095,0.036-0.161,0.125-0.244,0.19c-0.042,0.036-0.083,0.107-0.125,0.113c-0.446,0.054-0.904,0.107-1.362,0.131
		c-0.369,0.03-0.743,0.054-1.118,0.048C147.705,18.459,147.426,18.424,147.17,18.144z M150.388,14.433
		c0.006-0.357-0.214-0.749-0.577-1.011c-0.125-0.095-0.238-0.22-0.381-0.28c-0.172-0.071-0.375-0.101-0.565-0.125
		c-0.184-0.036-0.375-0.077-0.553-0.054c-0.291,0.03-0.571,0.101-0.862,0.155c-0.202,0.036-0.363,0.274-0.321,0.482
		c0.196,0.815,0.101,1.582-0.375,2.284c-0.089,0.125-0.137,0.274-0.19,0.422c-0.077,0.155-0.042,0.274,0.125,0.351
		c0.095,0.054,0.238,0.119,0.262,0.202c0.083,0.274,0.297,0.268,0.512,0.268c0.416,0.006,0.785-0.161,1.16-0.297
		C149.513,16.497,150.394,15.444,150.388,14.433z"/>
	<path d="M135.376,14.284c0.202-0.143,0.482-0.232,0.619-0.422c0.41-0.613,1.011-0.553,1.612-0.523
		c0.059,0.006,0.125,0.03,0.172,0.036c0.059,0.006,0.125,0.006,0.172,0.006c0.333,0.434,0.095,0.827-0.101,1.201
		c-0.238,0.47-0.636,0.738-1.172,0.856c-0.291,0.065-0.547,0.262-0.815,0.404c-0.131,0.065-0.285,0.131-0.393,0.232
		c-0.416,0.381-0.577,0.916-0.803,1.416c-0.321,0.714-0.458,1.469-0.523,2.242c-0.018,0.268,0,0.541,0,0.827
		c0.363,0.012,0.577-0.208,0.827-0.351c0.184-0.095,0.345-0.256,0.523-0.363c0.119-0.071,0.268-0.048,0.381-0.107
		c0.196-0.101,0.375-0.238,0.571-0.351c0.077-0.048,0.155-0.095,0.244-0.137c0.03,0.024,0.059,0.048,0.077,0.059
		c-0.089,0.19-0.167,0.381-0.262,0.559c-0.238,0.416-0.47,0.839-0.714,1.249c-0.19,0.345-0.393,0.684-0.595,1.029
		c-0.077,0.125-0.149,0.268-0.25,0.381c-0.095,0.119-0.167,0.232-0.345,0.321c-0.202,0.113-0.339,0.393-0.446,0.625
		c-0.357,0.69-0.381,1.451-0.464,2.195c-0.065,0.589-0.155,1.184-0.19,1.766c-0.024,0.488,0.059,0.964,0.042,1.439
		c-0.006,0.66-0.107,1.32-0.113,1.975c0,0.916,0.048,1.832,0.065,2.742c0.012,0.363,0.012,0.732-0.256,1.035
		c-0.065,0.083-0.101,0.196-0.143,0.309c-0.167,0.375-0.458,0.517-0.833,0.297c-0.214-0.119-0.398-0.268-0.648-0.363
		c-0.398-0.161-0.494-0.589-0.506-0.969c-0.006-0.309,0.054-0.607,0.095-0.922c0.071-0.529,0.131-1.082,0.214-1.624
		c0.036-0.309,0.077-0.607,0.137-0.886c0.071-0.375,0.065-0.738-0.059-1.1c-0.018-0.071-0.012-0.155-0.03-0.232
		c0.024-0.012,0.054-0.024,0.077-0.024c0.042,0.089,0.077,0.184,0.119,0.268c0.208-1.285,0.387-2.593,0.274-3.902
		c-0.024-0.018-0.059-0.03-0.089-0.054c-0.178,0.172-0.357,0.375-0.565,0.5c-0.25,0.125-0.375,0.482-0.738,0.404
		c-0.077-0.012-0.184,0.107-0.262,0.172c-0.404,0.339-0.886,0.625-1.207,1.035c-0.226,0.291-0.535,0.452-0.785,0.702
		c-0.149,0.131-0.506,0.065-0.767,0.077c-0.03,0-0.065-0.071-0.107-0.071c-0.607-0.036-0.696-0.535-0.904-0.94
		c-0.393-0.773-0.28-1.558-0.113-2.343c0.119-0.506,0.613-0.773,1.124-0.654c0.077,0.024,0.161-0.024,0.232-0.006
		s0.125,0.077,0.256,0.155c0.036-0.024,0.119-0.107,0.208-0.155c0.143-0.065,0.291-0.089,0.428-0.149
		c0.44-0.22,0.892-0.422,1.314-0.684c0.5-0.339,0.958-0.708,1.439-1.082c0.446-0.339,0.761-0.761,0.916-1.338
		c0.208-0.862,0.381-1.707,0.434-2.593c0.018-0.345,0-0.69,0-1.118c-0.333,0.19-0.595,0.339-0.839,0.488
		c-0.059-0.012-0.137-0.048-0.19-0.024c-0.256,0.137-0.506,0.303-0.761,0.452c-0.381,0.22-0.779,0.44-1.166,0.654
		c-0.036,0.018-0.095,0.042-0.113,0.024c-0.262-0.178-0.506,0.131-0.833-0.048c-0.024-0.155-0.071-0.398-0.071-0.63
		c-0.018-0.743,0.333-1.344,0.862-1.796c0.28-0.244,0.702-0.303,1.065-0.452c0.458,0.244,0.845-0.036,1.237-0.19
		c0.494-0.214,0.898-0.494,1.059-1.088c0.161-0.595,0.244-1.178,0.274-1.796c0.059-0.946,0.202-1.891,0.315-2.837
		c0.089-0.69,0.238-1.356,0.595-1.963c0.238-0.422,0.595-0.749,1.047-0.958c0.202-0.089,0.387-0.012,0.517,0.137
		c0.297,0.369,0.648,0.708,0.773,1.178c0.167,0.636,0.22,1.249-0.232,1.856c-0.297,0.387-0.44,0.91-0.601,1.386
		c-0.244,0.755-0.428,1.523-0.398,2.32c0,0.054,0.006,0.107,0.012,0.149C135.328,14.237,135.352,14.266,135.376,14.284z"/>
	<path d="M11.742,20.499c0.137,0.042,0.244,0.083,0.363,0.107c0.506,0.107,0.993,0.119,1.457-0.208
		c0.03,0.071,0.054,0.131,0.089,0.22c0.149-0.048,0.297-0.095,0.398-0.125c0.024,0.137,0.059,0.25,0.071,0.357
		c0.012,0.059-0.03,0.119-0.042,0.172c-0.065,0.345-0.345,0.583-0.523,0.845c-0.19,0.274-0.172,0.553-0.232,0.821
		s-0.107,0.494-0.291,0.696c-0.113,0.131-0.19,0.315-0.232,0.482c-0.101,0.428-0.315,0.785-0.553,1.154
		c-0.262,0.375-0.589,0.66-1.011,0.845c-0.297,0.125-0.333,0.119-0.565-0.214c-0.131,0.083-0.268,0.131-0.339-0.077
		c-0.018-0.054-0.101-0.059-0.137-0.119c-0.083-0.065-0.161-0.161-0.244-0.25c-0.101-0.101-0.208-0.184-0.297-0.297
		c-0.369-0.422-0.553-0.94-0.63-1.487c-0.089-0.678-0.137-1.356,0.131-1.998c0.071-0.172,0.184-0.339,0.321-0.464
		c0.398-0.375,0.714-0.809,1.16-1.136c0.446-0.339,0.714-0.88,0.755-1.451c0.024-0.262-0.226-0.547-0.333-0.827
		c-0.28-0.678-0.666-1.332-0.369-2.117c0.161-0.404,0.345-0.743,0.845-0.767c0.22-0.012,0.446-0.089,0.66-0.107
		c0.19-0.006,0.393,0.006,0.565,0.059c0.422,0.137,0.845,0.19,1.237,0.47c0.309,0.226,0.506,0.511,0.755,0.773
		c0.101,0.095,0.202,0.256,0.196,0.375c-0.018,0.506,0.184,1.011-0.065,1.505c-0.149,0.315-0.274,0.63-0.422,0.934
		c-0.03,0.059-0.101,0.095-0.155,0.137c-0.048,0.03-0.125,0.03-0.143,0.065c-0.143,0.25-0.416,0.268-0.648,0.327
		c-0.333,0.089-0.666,0.065-0.969-0.167c-0.059-0.042-0.28,0.012-0.321,0.089c-0.155,0.256-0.274,0.547-0.398,0.821
		c-0.012,0.03-0.006,0.065-0.024,0.077C11.647,20.178,11.629,20.357,11.742,20.499z"/>
	<path d="M94.308,35.868c0.113-0.375,0.226-0.726,0.327-1.088c0.065-0.22,0.125-0.452,0.161-0.69
		c0.089-0.63,0.131-1.273,0.244-1.874c0.065-0.345,0.226-0.648,0.381-0.969c0.113-0.244,0.619-0.488,0.886-0.398
		c0.143,0.042,0.238,0.232,0.375,0.297c0.535,0.22,0.72,0.767,1.1,1.142c0.107,0.101,0.107,0.303,0.143,0.458
		c0.054,0.137,0.077,0.268,0.119,0.41c0.184,0.619,0.083,1.225-0.19,1.79c-0.327,0.619-0.511,1.273-0.541,1.975
		c-0.006,0.363-0.089,0.743-0.262,1.041c-0.119,0.19-0.452,0.244-0.69,0.339c-0.119,0.048-0.256,0.024-0.375,0.024
		c-0.107-0.024-0.208-0.077-0.303-0.077c-0.345,0.024-0.333-0.285-0.446-0.464c-0.012-0.018-0.018-0.054-0.03-0.054
		c-0.488-0.131-0.464-0.595-0.619-0.928C94.444,36.51,94.397,36.195,94.308,35.868z"/>
	<path d="M62.72,34.803c-0.048-0.958-0.083-1.903-0.149-2.849c-0.036-0.434-0.155-0.862-0.196-1.297
		c-0.024-0.226,0.012-0.47,0.054-0.714c0.054-0.309,0.274-0.488,0.565-0.517c0.184-0.024,0.393,0.048,0.577,0.125
		c0.22,0.083,0.452,0.172,0.63,0.339c0.184,0.161,0.363,0.375,0.434,0.595c0.137,0.434,0.244,0.892,0.28,1.356
		c0.089,1.017,0.268,2.016,0.494,3.015c0.113,0.5,0.113,1.017,0.143,1.529c0.006,0.113-0.024,0.268-0.208,0.268
		c-0.018,0-0.054,0.024-0.059,0.054c-0.196,0.458-0.619,0.458-1.017,0.458c-0.351,0.012-0.654-0.178-0.851-0.434
		c-0.25-0.333-0.44-0.726-0.607-1.1c-0.113-0.25-0.143-0.529-0.208-0.815C62.642,34.815,62.678,34.803,62.72,34.803z"/>
	<path d="M85.16,33.846c-0.357-0.018-0.321-0.375-0.476-0.577c-0.048-0.071,0.042-0.244,0.059-0.375c0.03,0,0.048,0.012,0.077,0.012
		c0.107,0.321,0.226,0.625,0.339,0.946V33.846z"/>
	<path d="M83.043,29.7c-0.006-0.113-0.024-0.226-0.024-0.345c0-0.012,0.113-0.024,0.178-0.03c-0.012,0.119-0.03,0.244-0.036,0.363
		C83.126,29.688,83.09,29.688,83.043,29.7z"/>
	<path d="M91.114,11.852"/>
	<path d="M90.531,12.458"/>
	<path d="M92.196,21.344c0.125-0.107,0.268-0.214,0.387-0.315"/>
</g>
</svg>
