<?xml version="1.0" encoding="utf-8"?>
<!-- Generator: Adobe Illustrator 17.0.0, SVG Export Plug-In . SVG Version: 6.00 Build 0)  -->
<!DOCTYPE svg PUBLIC "-//W3C//DTD SVG 1.1//EN" "http://www.w3.org/Graphics/SVG/1.1/DTD/svg11.dtd">
<svg version="1.1" id="图层_1" xmlns="http://www.w3.org/2000/svg" xmlns:xlink="http://www.w3.org/1999/xlink" x="0px" y="0px"
	 width="200px" height="200px" viewBox="0 0 200 200" enable-background="new 0 0 200 200" xml:space="preserve">
<path fill="#FFFFFF" d="M99.875,2C46.369,2,3,45.369,3,98.875s43.369,96.875,96.875,96.875s96.875-43.369,96.875-96.875
	S153.381,2,99.875,2z M184.094,95.75h-37.475c-0.344-13.844-2.806-27.069-7.175-39.175c8.438-3.519,16.238-8.2,23.35-13.731
	C175.438,57.037,183.344,75.469,184.094,95.75L184.094,95.75z M96.419,183.075c-10.387-8.65-19.1-19.881-25.475-32.925
	c8.181-2.556,16.85-3.956,25.806-4.244v37.181C96.638,183.087,96.531,183.081,96.419,183.075L96.419,183.075z M103.319,14.675
	c11.787,9.812,21.406,22.956,27.912,38.287c-8.912,3.044-18.381,4.812-28.237,5.125V14.656
	C103.112,14.663,103.213,14.669,103.319,14.675z M113.731,15.737c17.25,2.869,32.725,10.925,44.775,22.588
	c-6.544,5.019-13.694,9.269-21.425,12.488C131.394,37.331,123.412,25.413,113.731,15.737z M96.75,14.656v43.431
	c-9.856-0.319-19.331-2.081-28.237-5.125c6.506-15.331,16.125-28.475,27.912-38.287C96.537,14.669,96.638,14.663,96.75,14.656z
	 M62.662,50.819C54.944,47.6,47.787,43.35,41.244,38.331c12.044-11.663,27.525-19.719,44.775-22.588
	C76.331,25.412,68.356,37.331,62.662,50.819z M66.156,58.725c9.637,3.344,19.906,5.294,30.594,5.619V95.75H59.381
	C59.719,82.662,62.038,70.156,66.156,58.725z M96.75,102v37.656c-9.856,0.3-19.388,1.912-28.369,4.806
	c-5.413-12.887-8.606-27.244-9-42.463L96.75,102L96.75,102z M86.019,182.012c-15.456-2.569-29.494-9.3-40.906-19.075
	c6.156-4.269,12.812-7.881,19.925-10.625C70.487,163.613,77.619,173.644,86.019,182.012L86.019,182.012z M103,183.094v-37.181
	c8.95,0.287,17.625,1.688,25.806,4.244c-6.381,13.044-15.087,24.275-25.475,32.925C103.225,183.081,103.112,183.088,103,183.094
	L103,183.094z M134.712,152.312c7.106,2.744,13.756,6.362,19.925,10.625c-11.413,9.769-25.45,16.506-40.906,19.075
	C122.131,173.644,129.256,163.613,134.712,152.312z M131.369,144.463c-8.987-2.894-18.519-4.506-28.369-4.806V102h37.369
	C139.975,117.219,136.775,131.575,131.369,144.463L131.369,144.463z M103,95.75V64.344c10.681-0.325,20.95-2.269,30.594-5.612
	c4.113,11.431,6.431,23.938,6.775,37.025H103V95.75z M36.963,42.844c7.112,5.531,14.912,10.212,23.344,13.731
	c-4.369,12.106-6.831,25.331-7.175,39.175H15.656C16.406,75.469,24.312,57.037,36.963,42.844z M15.656,102h37.475
	c0.388,15.969,3.725,31.05,9.394,44.606c-7.919,3.087-15.3,7.2-22.113,12.069C25.737,144.069,16.475,124.1,15.656,102z
	 M159.337,158.669c-6.812-4.863-14.194-8.981-22.119-12.069c5.675-13.556,9.006-28.637,9.4-44.606h37.475
	C183.275,124.1,174.006,144.069,159.337,158.669z"/>
</svg>
