<?xml version="1.0" encoding="utf-8"?>
<!-- Generator: Adobe Illustrator 17.0.0, SVG Export Plug-In . SVG Version: 6.00 Build 0)  -->
<!DOCTYPE svg PUBLIC "-//W3C//DTD SVG 1.1//EN" "http://www.w3.org/Graphics/SVG/1.1/DTD/svg11.dtd">
<svg version="1.1" xmlns="http://www.w3.org/2000/svg" xmlns:xlink="http://www.w3.org/1999/xlink" x="0px" y="0px"
	 width="165.999px" height="166px" viewBox="0 0 165.999 166" enable-background="new 0 0 165.999 166" xml:space="preserve">

		<rect x="51.896" y="98.774" fill="#F08300" width="25.327" height="7.11"/>
		<rect x="88.332" y="112.55" fill="#F08300" width="25.773" height="6.665"/>
		<rect x="51.896" y="112.55" fill="#F08300" width="25.327" height="6.665"/>
		<rect x="88.332" y="98.774" fill="#F08300" width="25.773" height="7.11"/>
		<path fill="#F08300" d="M146,0H20C8.955,0,0,8.954,0,20v126c0,11.047,8.954,20,20,20H146c11.047,0,20-8.953,20-20V20
			C166,8.954,157.047,0,146,0z M125.212,130.768h-11.107v-4.443H51.896v4.443H40.787V91.665h84.426V130.768z M134.544,55.673H83.888
			c-6.221,2.666-12.886,5.332-19.995,7.999l30.659-1.333c2.07-0.889,5.18-2.069,9.332-3.555c2.367-0.889,4.145-1.625,5.332-2.222
			l12.441,4.888c-16.594,6.519-34.068,12.594-52.433,18.218l39.991-0.889c-2.076-1.778-4.443-3.555-7.109-5.333l8.443-4.888
			c7.998,5.041,15.844,10.665,23.549,16.885l-8.441,6.221c-2.666-2.367-5.188-4.443-7.555-6.221
			c-27.258,0.299-48.878,0.889-64.874,1.777c-2.965,0-7.263,0.299-12.887,0.889c3.847-0.59,3.402-0.59-1.333,0l-2.666-7.998
			c5.332-0.889,10.366-1.777,15.108-2.666c7.699-2.368,15.996-5.034,24.883-7.999c-8.297,0-15.851,0.444-22.661,1.333
			c-4.152,0-7.999,0.299-11.554,0.889l-2.666-7.109c4.146-0.889,8.145-2.069,11.998-3.555c4.443-1.479,8.733-3.256,12.886-5.332
			H31.456v-7.998h47.101l-1.777-5.333l10.664-0.444c0.291,0.597,0.736,1.486,1.334,2.666c0.291,1.486,0.59,2.521,0.889,3.111h44.879
			V55.673z M136.322,39.232h-27.105v5.777H98.552v-5.777H67.448v5.777H56.784v-5.777H29.678v-7.998h27.105v-6.666h10.664v6.666
			h31.104v-6.666h10.664v6.666h27.105V39.232z"/>
</svg>
