<?xml version="1.0" standalone="no"?><!DOCTYPE svg PUBLIC "-//W3C//DTD SVG 1.1//EN" "http://www.w3.org/Graphics/SVG/1.1/DTD/svg11.dtd"><svg t="1481296473926" class="icon" style="" viewBox="0 0 1024 1024" version="1.1" xmlns="http://www.w3.org/2000/svg" p-id="773" xmlns:xlink="http://www.w3.org/1999/xlink" width="200" height="200"><defs><style type="text/css">.svgcolor{fill:#969696}</style></defs><path class="svgcolor" d="M356.7 868.2c16.6 0 30.1 13.3 30.1 30.1s-13.5 30.1-30.1 30.1h-90.5c-59 0-129.2-50-129.2-113V208.5c0-61 47.4-108.3 109.2-108.3h461.4c56.7 0 90.9 40.1 90.9 108.3V666c0 16.8-14.1 30.3-30.8 30.3-16.6 0-30.8-13.6-30.8-30.3V208.5c0-48.2-18.8-48.2-29.4-48.2H246.1c-28 0-49.5 21.2-49.5 48.2v606.8c0 23.8 38.2 52.9 69.6 52.9h90.5z" p-id="774"></path><path class="svgcolor" d="M603.6 248c-7.8-7.8-20.5-7.8-28.4 0L467.7 355.6 360.1 248c-7.8-7.8-20.5-7.8-28.4 0-7.8 7.8-7.8 20.5 0 28.4l90.8 90.8h-75.2c-11.1 0-20.1 8.8-20.1 19.9s9 19.9 20.1 19.9h101.1v59.6H347.3c-11.1 0-20.1 8.8-20.1 19.9s9 19.9 20.1 19.9h101.1V567c0 11.1 8.8 20.1 19.9 20.1s19.9-9 19.9-20.1v-60.6h99.9c11.1 0 20.1-8.8 20.1-19.9s-9-19.9-20.1-19.9h-99.9V407h99.9c11.1 0 20.1-8.8 20.1-19.9s-9-19.9-20.1-19.9h-75.2l90.8-90.8c7.8-7.9 7.8-20.6-0.1-28.4zM392.1 789.5h327.5l-43.4-43.3c-9.9-9.9-9.9-26 0-36 9.9-9.9 26-9.9 36 0L795 793c7.4 4.4 12.4 12.4 12.4 21.6 0 8.8-4.4 16.4-11.2 20.9L713 918.8c-5 5-11.5 7.4-18 7.4s-13-2.5-18-7.4c-9.9-9.9-9.9-26 0-36l43-43H392.1c-14 0-25.4-11.1-25.4-25.2s11.4-25.1 25.4-25.1z" p-id="775"></path></svg>