<?xml version="1.0" standalone="no"?><!DOCTYPE svg PUBLIC "-//W3C//DTD SVG 1.1//EN" "http://www.w3.org/Graphics/SVG/1.1/DTD/svg11.dtd"><svg t="1481614297272" class="icon" style="" viewBox="0 0 1024 1024" version="1.1" xmlns="http://www.w3.org/2000/svg" p-id="1203" xmlns:xlink="http://www.w3.org/1999/xlink" width="200" height="200"><defs><style type="text/css"></style></defs><path d="M511.390621 61.049424c61.599963 0 119.311363 11.68104 173.128059 35.041074 53.81772 23.362081 100.862175 55.355749 141.140531 95.985098 40.278355 40.628326 72.093968 88.027869 95.448886 142.198629 23.353894 54.17076 35.030841 112.065332 35.030841 173.685761 0 61.619406-11.676947 119.683846-35.030841 174.194344-23.354917 54.508451-55.17053 102.07684-95.448886 142.706189-40.277332 40.627303-87.322811 72.623018-141.140531 95.983051-53.816696 23.363104-111.527073 35.042097-173.128059 35.042097-61.600987 0-119.479185-11.678994-173.634596-35.042097-54.155411-23.360034-101.371782-55.355749-141.649114-95.983051-40.278355-40.629349-72.093968-88.197738-95.448886-142.706189C77.304132 627.644857 65.626161 569.580416 65.626161 507.959987c0-61.620429 11.67797-119.515001 35.031864-173.685761 23.354917-54.171784 55.17053-101.570303 95.448886-142.198629 40.277332-40.629349 87.493703-72.623018 141.649114-95.984075C391.911436 72.730465 449.788611 61.049424 511.390621 61.049424zM790.62837 422.639786c12.184507-12.1886 18.614963-27.253714 19.291368-45.198411 0.679475-17.944697-5.075599-33.010835-17.260106-45.198411-12.184507-12.1886-27.076682-18.113543-44.677549-17.774829s-32.493042 6.602372-44.678572 18.790972L416.957879 619.688651l-98.495268-97.509824c-12.184507-12.1886-27.076682-18.452257-44.677549-18.790972-17.600867-0.337691-32.494065 5.586229-44.678572 17.775852-12.184507 12.1886-18.446118 26.578332-18.783809 43.167149-0.338714 16.591887 5.584182 30.978549 17.768689 43.167149L369.232924 749.69868c12.18553 12.187577 28.092825 18.114566 47.724954 17.774829 19.631106-0.339738 35.538401-6.602372 47.724954-18.791995l-4.062526 4.065596L790.62837 422.639786z" p-id="1204" fill="#1afa29"></path></svg>