<?xml version="1.0" encoding="utf-8"?>
<!-- Generator: Adobe Illustrator 17.0.0, SVG Export Plug-In . SVG Version: 6.00 Build 0)  -->
<!DOCTYPE svg PUBLIC "-//W3C//DTD SVG 1.1//EN" "http://www.w3.org/Graphics/SVG/1.1/DTD/svg11.dtd">
<svg version="1.1" id="图层_1" xmlns="http://www.w3.org/2000/svg" xmlns:xlink="http://www.w3.org/1999/xlink" x="0px" y="0px"
	 width="165.999px" height="166px" viewBox="0 0 165.999 166" enable-background="new 0 0 165.999 166" xml:space="preserve">
<path fill="#38B48B" d="M146,0H20C8.955,0,0,8.954,0,20v126c0,11.047,8.954,20,20,20H146c11.047,0,20-8.953,20-20V20
	C166,8.954,157.047,0,146,0z M135.433,125.436H30.567v-11.108h46.212V89.443H39.898V77.891h36.881V55.229H35.01V43.675h44.879
	c-2.374-6.512-4.741-12.143-7.109-16.885l12.886-2.666c1.777,3.854,4.145,9.332,7.109,16.441l-12.886,3.11h51.101v11.553H89.22
	v22.662h36.881v11.553H89.22v24.884h46.213V125.436z"/>
</svg>
