<?xml version="1.0" encoding="utf-8"?>
<!-- Generator: Adobe Illustrator 17.0.0, SVG Export Plug-In . SVG Version: 6.00 Build 0)  -->
<!DOCTYPE svg PUBLIC "-//W3C//DTD SVG 1.1//EN" "http://www.w3.org/Graphics/SVG/1.1/DTD/svg11.dtd">
<svg version="1.1" id="图层_1" xmlns="http://www.w3.org/2000/svg" xmlns:xlink="http://www.w3.org/1999/xlink" x="0px" y="0px"
	 width="165.999px" height="166px" viewBox="17 17.869 165.999 166" enable-background="new 17 17.869 165.999 166"
	 xml:space="preserve">
<g id="图层_2">
	<g>
		<rect x="104.914" y="114.27" fill="#E5D7CC" width="28.145" height="8.488"/>
		<rect x="104.916" y="70.936" fill="#E5D7CC" width="26.358" height="8.488"/>
		<rect x="68.728" y="70.936" fill="#E5D7CC" width="25.911" height="8.488"/>
		<rect x="104.914" y="99.081" fill="#E5D7CC" width="28.145" height="8.488"/>
		<path fill="#E5D7CC" d="M162.999,17.869H37c-11.046,0-20,8.954-20,20v126c0,11.047,8.954,20,20,20h125.999
			c11.047,0,20-8.953,20-20v-126C182.999,26.823,174.048,17.869,162.999,17.869z M154.058,114.27h-10.722v20.997h-10.275v-5.809
			h-28.145v2.681c0.594,9.829-4.321,14.743-14.742,14.743l-16.083,0.446c-0.6-3.28-1.34-6.254-2.234-8.935c4.761,0,9.675,0,14.743,0
			c5.654,0.293,8.334-2.087,8.042-7.148v-1.787H52.646v-6.7h41.994v-8.488H46.392v-6.701h48.248v-8.488h-41.1V92.38h41.1v-6.701
			H58.9V64.681h35.74V57.98H46.392v-7.148h48.248v-9.381h10.275v9.381h48.248v7.148h-48.248v6.701h36.187v20.997h-36.187v6.701
			h38.42v15.189h10.722L154.058,114.27L154.058,114.27z"/>
	</g>
</g>
</svg>
