<?xml version="1.0" encoding="utf-8"?>
<!-- Generator: Adobe Illustrator 17.0.0, SVG Export Plug-In . SVG Version: 6.00 Build 0)  -->
<!DOCTYPE svg PUBLIC "-//W3C//DTD SVG 1.1//EN" "http://www.w3.org/Graphics/SVG/1.1/DTD/svg11.dtd">
<svg version="1.1" id="图层_1" xmlns="http://www.w3.org/2000/svg" xmlns:xlink="http://www.w3.org/1999/xlink" x="0px" y="0px"
	 width="165.999px" height="166px" viewBox="17 17.869 165.999 166" enable-background="new 17 17.869 165.999 166"
	 xml:space="preserve">
<g id="图层_3">
	<g>
		<rect x="67.39" y="65.128" fill="#7A826D" width="64.777" height="16.976"/>
		<rect x="67.39" y="116.057" fill="#7A826D" width="64.777" height="16.976"/>
		<rect x="67.39" y="90.593" fill="#7A826D" width="64.777" height="16.977"/>
		<path fill="#7A826D" d="M162.999,17.869H37c-11.046,0-20,8.954-20,20v126c0,11.047,8.954,20,20,20h125.999
			c11.047,0,20-8.953,20-20v-126C182.999,26.823,174.048,17.869,162.999,17.869z M143.336,148.669h-11.169v-7.147H67.39v7.147
			H56.667V55.747h29.485c0.293-1.487,0.894-3.574,1.787-6.254c0.894-3.574,1.487-6.101,1.787-7.595l12.062,0.894
			c-0.3,1.787-1.047,4.467-2.234,8.041c-0.894,2.087-1.494,3.728-1.787,4.915h45.568V148.669z"/>
	</g>
</g>
</svg>
