<?xml version="1.0" encoding="utf-8"?>
<!-- Generator: Adobe Illustrator 16.0.0, SVG Export Plug-In . SVG Version: 6.00 Build 0)  -->
<!DOCTYPE svg PUBLIC "-//W3C//DTD SVG 1.1//EN" "http://www.w3.org/Graphics/SVG/1.1/DTD/svg11.dtd">
<svg version="1.1" id="图层_1" xmlns="http://www.w3.org/2000/svg" xmlns:xlink="http://www.w3.org/1999/xlink" x="0px" y="0px"
	 width="28.35px" height="28.35px" viewBox="0 0 28.35 28.35" enable-background="new 0 0 28.35 28.35" xml:space="preserve">
<path fill="#FFFFFF" d="M19.293,11.117c-0.461,0-0.834,0.375-0.834,0.837c0,0.461,0.373,0.836,0.834,0.836s0.835-0.375,0.835-0.836
	C20.128,11.492,19.754,11.117,19.293,11.117"/>
<path fill="#FFFFFF" d="M20.832,5.73c-0.434,0-0.785,0.351-0.785,0.786s0.352,0.786,0.785,0.786s0.785-0.351,0.785-0.786
	S21.266,5.73,20.832,5.73"/>
<path fill="#FFFFFF" d="M20.832,7.905c-0.434,0-0.785,0.351-0.785,0.786s0.352,0.786,0.785,0.786s0.785-0.351,0.785-0.786
	S21.266,7.905,20.832,7.905"/>
<path fill="#FFFFFF" d="M20.832,10.08c-0.434,0-0.785,0.352-0.785,0.786c0,0.435,0.352,0.787,0.785,0.787s0.785-0.352,0.785-0.787
	C21.617,10.432,21.266,10.08,20.832,10.08"/>
<path fill="#FFFFFF" d="M22.371,8.337c0.404,0,0.734-0.328,0.734-0.733c0-0.405-0.33-0.736-0.734-0.736s-0.73,0.332-0.73,0.736
	C21.641,8.009,21.967,8.337,22.371,8.337"/>
<path fill="#FFFFFF" d="M22.371,9.046c-0.404,0-0.73,0.328-0.73,0.732s0.326,0.732,0.73,0.732s0.734-0.328,0.734-0.732
	S22.775,9.046,22.371,9.046"/>
<path fill="#FFFFFF" d="M16.215,2.518c-0.404,0-0.734,0.332-0.734,0.736s0.33,0.733,0.734,0.733s0.73-0.328,0.73-0.733
	S16.619,2.518,16.215,2.518"/>
<path fill="#FFFFFF" d="M14.676,1.484c-0.377,0-0.685,0.304-0.685,0.683c0,0.378,0.307,0.682,0.685,0.682
	c0.374,0,0.682-0.304,0.682-0.682C15.357,1.789,15.05,1.484,14.676,1.484"/>
<path fill="#FFFFFF" d="M14.676,3.659c-0.377,0-0.685,0.304-0.685,0.683c0,0.378,0.307,0.682,0.685,0.682
	c0.374,0,0.682-0.304,0.682-0.682C15.357,3.963,15.05,3.659,14.676,3.659"/>
<path fill="#FFFFFF" d="M13.137,2.622c-0.351,0-0.631,0.285-0.631,0.633s0.28,0.632,0.631,0.632c0.347,0,0.627-0.284,0.627-0.632
	S13.484,2.622,13.137,2.622"/>
<path fill="#FFFFFF" d="M13.137,4.797c-0.351,0-0.631,0.284-0.631,0.632c0,0.348,0.28,0.632,0.631,0.632
	c0.347,0,0.627-0.285,0.627-0.632C13.764,5.081,13.484,4.797,13.137,4.797"/>
<path fill="#FFFFFF" d="M11.594,3.76c-0.32,0-0.578,0.261-0.578,0.582s0.257,0.582,0.578,0.582s0.581-0.261,0.581-0.582
	S11.915,3.76,11.594,3.76"/>
<path fill="#FFFFFF" d="M10.055,4.9c-0.291,0-0.527,0.238-0.527,0.529c0,0.294,0.237,0.529,0.527,0.529
	c0.294,0,0.531-0.234,0.531-0.529C10.586,5.138,10.349,4.9,10.055,4.9"/>
<path fill="#FFFFFF" d="M5.438,8.313c-0.207,0-0.377,0.171-0.377,0.379c0,0.207,0.17,0.375,0.377,0.375s0.377-0.167,0.377-0.375
	C5.815,8.484,5.645,8.313,5.438,8.313"/>
<path fill="#FFFFFF" d="M5.438,10.488c-0.207,0-0.377,0.17-0.377,0.378s0.17,0.375,0.377,0.375s0.377-0.167,0.377-0.375
	S5.645,10.488,5.438,10.488"/>
<path fill="#FFFFFF" d="M19.293,8.44c0.461,0,0.835-0.375,0.835-0.836s-0.374-0.836-0.835-0.836s-0.834,0.375-0.834,0.836
	S18.832,8.44,19.293,8.44"/>
<path fill="#FFFFFF" d="M18.459,9.779c0,0.461,0.373,0.837,0.834,0.837s0.835-0.375,0.835-0.837c0-0.462-0.374-0.836-0.835-0.836
	S18.459,9.317,18.459,9.779"/>
<path fill="#FFFFFF" d="M17.754,11.652c0.431,0,0.781-0.351,0.781-0.786s-0.351-0.786-0.781-0.786c-0.434,0-0.784,0.351-0.784,0.786
	S17.32,11.652,17.754,11.652"/>
<path fill="#FFFFFF" d="M17.754,9.478c0.431,0,0.781-0.351,0.781-0.786c0-0.436-0.351-0.787-0.781-0.787
	c-0.434,0-0.784,0.351-0.784,0.787C16.97,9.126,17.32,9.478,17.754,9.478"/>
<path fill="#FFFFFF" d="M17.754,12.254c-0.434,0-0.784,0.352-0.784,0.787c0,0.435,0.351,0.787,0.784,0.787
	c0.431,0,0.781-0.352,0.781-0.787C18.535,12.606,18.185,12.254,17.754,12.254"/>
<path fill="#FFFFFF" d="M16.215,13.396c-0.407,0-0.734,0.329-0.734,0.733c0,0.404,0.327,0.732,0.734,0.732
	c0.404,0,0.73-0.328,0.73-0.732C16.945,13.724,16.619,13.396,16.215,13.396"/>
<path fill="#FFFFFF" d="M16.215,11.221c-0.407,0-0.734,0.328-0.734,0.733c0,0.405,0.327,0.733,0.734,0.733
	c0.404,0,0.73-0.328,0.73-0.733C16.945,11.549,16.619,11.221,16.215,11.221"/>
<path fill="#FFFFFF" d="M16.215,9.046c-0.407,0-0.734,0.328-0.734,0.732s0.327,0.732,0.734,0.732c0.404,0,0.73-0.328,0.73-0.732
	S16.619,9.046,16.215,9.046"/>
<path fill="#FFFFFF" d="M14.676,12.359c-0.377,0-0.681,0.304-0.681,0.683c0,0.377,0.304,0.682,0.681,0.682
	c0.374,0,0.682-0.305,0.682-0.682C15.357,12.663,15.05,12.359,14.676,12.359"/>
<path fill="#FFFFFF" d="M14.676,10.184c-0.377,0-0.681,0.305-0.681,0.683c0,0.378,0.304,0.683,0.681,0.683
	c0.374,0,0.682-0.304,0.682-0.683C15.357,10.488,15.05,10.184,14.676,10.184"/>
<path fill="#FFFFFF" d="M14.676,5.834c-0.377,0-0.681,0.305-0.681,0.683s0.304,0.683,0.681,0.683c0.374,0,0.682-0.305,0.682-0.683
	S15.05,5.834,14.676,5.834"/>
<path fill="#FFFFFF" d="M14.676,14.533c-0.377,0-0.681,0.305-0.681,0.683s0.304,0.683,0.681,0.683c0.374,0,0.682-0.305,0.682-0.683
	S15.05,14.533,14.676,14.533"/>
<path fill="#FFFFFF" d="M14.676,8.009c-0.377,0-0.681,0.304-0.681,0.683c0,0.377,0.304,0.683,0.681,0.683
	c0.374,0,0.682-0.305,0.682-0.683C15.357,8.313,15.05,8.009,14.676,8.009"/>
<path fill="#FFFFFF" d="M13.137,9.146c-0.351,0-0.631,0.284-0.631,0.632s0.28,0.632,0.631,0.632c0.347,0,0.627-0.284,0.627-0.632
	S13.484,9.146,13.137,9.146"/>
<path fill="#FFFFFF" d="M13.137,13.496c-0.351,0-0.631,0.281-0.631,0.633c0,0.348,0.28,0.632,0.631,0.632
	c0.347,0,0.627-0.285,0.627-0.632C13.764,13.777,13.484,13.496,13.137,13.496"/>
<path fill="#FFFFFF" d="M13.137,11.321c-0.351,0-0.631,0.285-0.631,0.632c0,0.348,0.28,0.632,0.631,0.632
	c0.347,0,0.627-0.284,0.627-0.632C13.764,11.606,13.484,11.321,13.137,11.321"/>
<path fill="#FFFFFF" d="M13.137,6.972c-0.351,0-0.631,0.284-0.631,0.632s0.28,0.632,0.631,0.632c0.347,0,0.627-0.284,0.627-0.632
	S13.484,6.972,13.137,6.972"/>
<path fill="#FFFFFF" d="M13.137,15.671c-0.351,0-0.631,0.281-0.631,0.633c0,0.348,0.28,0.632,0.631,0.632
	c0.347,0,0.627-0.284,0.627-0.632C13.764,15.952,13.484,15.671,13.137,15.671"/>
<path fill="#FFFFFF" d="M11.594,14.634c-0.32,0-0.578,0.261-0.578,0.582c0,0.321,0.257,0.583,0.578,0.583s0.581-0.262,0.581-0.583
	C12.175,14.895,11.915,14.634,11.594,14.634"/>
<path fill="#FFFFFF" d="M11.594,5.934c-0.32,0-0.578,0.261-0.578,0.583s0.257,0.582,0.578,0.582s0.581-0.261,0.581-0.582
	S11.915,5.934,11.594,5.934"/>
<path fill="#FFFFFF" d="M11.594,8.109c-0.32,0-0.578,0.261-0.578,0.583c0,0.321,0.257,0.578,0.578,0.578s0.581-0.257,0.581-0.578
	C12.175,8.371,11.915,8.109,11.594,8.109"/>
<path fill="#FFFFFF" d="M11.594,10.284c-0.32,0-0.578,0.261-0.578,0.582s0.257,0.579,0.578,0.579s0.581-0.258,0.581-0.579
	S11.915,10.284,11.594,10.284"/>
<path fill="#FFFFFF" d="M10.055,7.075c-0.291,0-0.527,0.234-0.527,0.529c0,0.291,0.237,0.529,0.527,0.529
	c0.294,0,0.531-0.238,0.531-0.529C10.586,7.309,10.349,7.075,10.055,7.075"/>
<path fill="#FFFFFF" d="M8.516,6.038c-0.264,0-0.478,0.214-0.478,0.479c0,0.264,0.213,0.479,0.478,0.479
	c0.264,0,0.478-0.214,0.478-0.479C8.994,6.252,8.78,6.038,8.516,6.038"/>
<path fill="#FFFFFF" d="M8.516,8.213c-0.264,0-0.478,0.214-0.478,0.479c0,0.264,0.213,0.478,0.478,0.478
	c0.264,0,0.478-0.214,0.478-0.478C8.994,8.427,8.78,8.213,8.516,8.213"/>
<path fill="#FFFFFF" d="M6.977,9.351c-0.237,0-0.427,0.191-0.427,0.428c0,0.234,0.19,0.429,0.427,0.429
	c0.237,0,0.428-0.194,0.428-0.429C7.404,9.542,7.214,9.351,6.977,9.351"/>
<path fill="#FFFFFF" d="M6.977,7.176c-0.237,0-0.427,0.19-0.427,0.428s0.19,0.428,0.427,0.428c0.237,0,0.428-0.19,0.428-0.428
	S7.214,7.176,6.977,7.176"/>
<g>
	<path fill="#FFFFFF" d="M7.636,22.403v1.929c0,0.075,0.033,0.127,0.099,0.155c0.066,0.02,0.099,0.053,0.099,0.1
		c0,0.076-0.052,0.113-0.156,0.113h-0.61c-0.123,0-0.18-0.037-0.17-0.113c0-0.047,0.028-0.08,0.085-0.1
		c0.076-0.028,0.113-0.08,0.113-0.155v-0.95H5.835v0.95c0,0.075,0.033,0.127,0.099,0.155c0.066,0.02,0.1,0.053,0.1,0.1
		c0,0.076-0.052,0.113-0.156,0.113H5.268c-0.123,0-0.18-0.037-0.17-0.113c-0.009-0.047,0.019-0.08,0.085-0.1
		c0.076-0.028,0.114-0.08,0.114-0.155v-1.929c0-0.057-0.038-0.099-0.114-0.127c-0.057-0.028-0.085-0.071-0.085-0.128
		c-0.019-0.066,0.038-0.1,0.17-0.1h0.609c0.104,0,0.156,0.033,0.156,0.1c0,0.057-0.033,0.1-0.1,0.128
		c-0.066,0.028-0.099,0.07-0.099,0.127v0.724h1.262v-0.724c0-0.057-0.038-0.099-0.113-0.127c-0.057-0.028-0.085-0.071-0.085-0.128
		c-0.019-0.066,0.038-0.1,0.17-0.1h0.61c0.104,0,0.156,0.033,0.156,0.1c0,0.057-0.033,0.1-0.099,0.128
		C7.668,22.305,7.636,22.347,7.636,22.403z"/>
	<path fill="#FFFFFF" d="M9.678,23.808H8.614c-0.095,0.245-0.151,0.439-0.17,0.581c0,0.038,0.023,0.066,0.071,0.085
		c0.075,0.028,0.113,0.071,0.113,0.128c0,0.065-0.038,0.099-0.113,0.099H8.019c-0.057,0-0.085-0.033-0.085-0.099
		c0-0.057,0.028-0.1,0.085-0.128c0.066-0.028,0.109-0.075,0.128-0.142c0.264-0.86,0.567-1.598,0.907-2.212
		c0.038-0.085,0.113-0.128,0.227-0.128c0.104,0,0.165,0.02,0.184,0.057c0.227,0.407,0.487,1.026,0.78,1.857
		c0.057,0.17,0.113,0.321,0.17,0.454c0.01,0.047,0.038,0.08,0.085,0.099c0.066,0.028,0.099,0.071,0.099,0.128
		c-0.01,0.076-0.052,0.113-0.127,0.113H9.791c-0.076,0-0.109-0.033-0.099-0.099c0-0.057,0.028-0.1,0.085-0.128
		c0.047-0.019,0.071-0.047,0.071-0.085c0-0.028-0.038-0.156-0.113-0.383C9.715,23.949,9.696,23.883,9.678,23.808z M8.699,23.552
		h0.879L9.125,22.46L8.699,23.552z"/>
	<path fill="#FFFFFF" d="M11.294,24.7H10.84c-0.133,0-0.194-0.037-0.185-0.113c0-0.047,0.042-0.08,0.128-0.1
		c0.104-0.028,0.156-0.08,0.156-0.155v-1.929c0-0.057-0.052-0.099-0.156-0.127c-0.085-0.028-0.128-0.071-0.128-0.128
		s0.042-0.09,0.128-0.1h0.539c0.019-0.198,0.491,0.393,1.418,1.772v-1.418c0-0.057-0.038-0.099-0.114-0.127
		c-0.066-0.028-0.099-0.071-0.099-0.128c-0.019-0.066,0.038-0.1,0.17-0.1h0.369c0.104,0,0.156,0.033,0.156,0.1
		c0,0.057-0.038,0.1-0.113,0.128c-0.066,0.028-0.1,0.07-0.1,0.127v2.099c0.019,0.161-0.033,0.231-0.156,0.213
		c-0.085,0-0.142-0.015-0.17-0.043l-1.46-2.069h-0.014v1.729c-0.01,0.075,0.033,0.127,0.127,0.155c0.076,0.02,0.113,0.053,0.113,0.1
		C11.45,24.663,11.398,24.7,11.294,24.7z"/>
	<path fill="#FFFFFF" d="M14.059,24.459h0.468c0.293,0,0.511-0.075,0.652-0.227c0.066-0.065,0.123-0.099,0.17-0.099
		c0.057,0.009,0.085,0.042,0.085,0.099c-0.019,0.303-0.07,0.459-0.155,0.468h-1.702c-0.151,0-0.222-0.062-0.213-0.184
		c0.085-0.265,0.364-0.714,0.836-1.348c0.378-0.501,0.567-0.779,0.567-0.836c-0.01-0.02-0.038-0.033-0.085-0.043
		c-0.35,0-0.577,0.015-0.681,0.043c-0.123,0.019-0.213,0.065-0.27,0.142c-0.057,0.075-0.109,0.113-0.156,0.113
		c-0.066,0-0.1-0.038-0.1-0.113c0-0.265,0.066-0.406,0.199-0.426h1.546c0.104,0.01,0.16,0.048,0.17,0.113
		c0,0.18-0.313,0.69-0.936,1.531c-0.312,0.436-0.468,0.677-0.468,0.724C13.988,24.445,14.011,24.459,14.059,24.459z"/>
	<path fill="#FFFFFF" d="M18.099,22.403v1.929c0,0.075,0.033,0.127,0.1,0.155c0.066,0.02,0.1,0.053,0.1,0.1
		c0,0.076-0.053,0.113-0.156,0.113h-0.609c-0.123,0-0.18-0.037-0.171-0.113c0-0.047,0.029-0.08,0.086-0.1
		c0.075-0.028,0.113-0.08,0.113-0.155v-0.95h-1.262v0.95c0,0.075,0.032,0.127,0.099,0.155c0.066,0.02,0.1,0.053,0.1,0.1
		c0,0.076-0.052,0.113-0.156,0.113h-0.609c-0.123,0-0.18-0.037-0.17-0.113c-0.01-0.047,0.019-0.08,0.085-0.1
		c0.075-0.028,0.113-0.08,0.113-0.155v-1.929c0-0.057-0.038-0.099-0.113-0.127c-0.057-0.028-0.085-0.071-0.085-0.128
		c-0.02-0.066,0.037-0.1,0.17-0.1h0.609c0.104,0,0.156,0.033,0.156,0.1c0,0.057-0.033,0.1-0.1,0.128s-0.099,0.07-0.099,0.127v0.724
		h1.262v-0.724c0-0.057-0.038-0.099-0.113-0.127c-0.057-0.028-0.086-0.071-0.086-0.128c-0.019-0.066,0.038-0.1,0.171-0.1h0.609
		c0.104,0,0.156,0.033,0.156,0.1c0,0.057-0.033,0.1-0.1,0.128S18.099,22.347,18.099,22.403z"/>
	<path fill="#FFFFFF" d="M20.396,24.7h-1.744c-0.123,0-0.18-0.037-0.17-0.113c0-0.047,0.028-0.08,0.085-0.1
		c0.076-0.028,0.113-0.08,0.113-0.155v-1.929c0-0.057-0.037-0.099-0.113-0.127c-0.057-0.028-0.085-0.071-0.085-0.128
		c-0.01-0.066,0.047-0.1,0.17-0.1h1.659c0.16-0.028,0.236,0.095,0.227,0.369c-0.009,0.085-0.033,0.123-0.07,0.113
		c-0.028,0-0.062-0.015-0.1-0.043c-0.028-0.037-0.076-0.08-0.142-0.127c-0.057-0.028-0.128-0.048-0.213-0.057
		c-0.066-0.01-0.189-0.015-0.368-0.015c-0.341-0.028-0.482,0.057-0.426,0.255v0.596h0.638c0.076,0,0.146-0.023,0.213-0.07
		c0.038-0.038,0.071-0.057,0.1-0.057c0.065,0,0.099,0.08,0.099,0.24c0.01,0.208-0.023,0.298-0.099,0.27
		c-0.028,0-0.057-0.014-0.085-0.042c-0.057-0.066-0.133-0.1-0.228-0.1h-0.638v0.652c-0.028,0.34,0.052,0.482,0.241,0.425
		c0.548,0.01,0.855-0.047,0.922-0.17c0.057-0.094,0.113-0.142,0.17-0.142c0.057,0.01,0.09,0.052,0.099,0.128
		C20.66,24.559,20.575,24.7,20.396,24.7z"/>
	<path fill="#FFFFFF" d="M21.402,24.7h-0.453c-0.133,0-0.194-0.037-0.185-0.113c0-0.047,0.043-0.08,0.128-0.1
		c0.104-0.028,0.155-0.08,0.155-0.155v-1.929c0-0.057-0.052-0.099-0.155-0.127c-0.085-0.028-0.128-0.071-0.128-0.128
		s0.043-0.09,0.128-0.1h0.538c0.02-0.198,0.492,0.393,1.418,1.772v-1.418c0-0.057-0.037-0.099-0.113-0.127
		c-0.066-0.028-0.099-0.071-0.099-0.128c-0.02-0.066,0.037-0.1,0.17-0.1h0.368c0.104,0,0.156,0.033,0.156,0.1
		c0,0.057-0.038,0.1-0.113,0.128c-0.066,0.028-0.1,0.07-0.1,0.127v2.099c0.019,0.161-0.033,0.231-0.156,0.213
		c-0.085,0-0.142-0.015-0.17-0.043l-1.46-2.069h-0.015v1.729c-0.009,0.075,0.033,0.127,0.128,0.155
		c0.075,0.02,0.113,0.053,0.113,0.1C21.559,24.663,21.507,24.7,21.402,24.7z"/>
</g>
<g>
	<path fill="#FFFFFF" d="M5.208,21.183v-1.425c0-0.042-0.028-0.073-0.084-0.094c-0.042-0.021-0.063-0.053-0.063-0.095
		c-0.007-0.049,0.035-0.073,0.125-0.073h0.555c0.838,0.007,1.264,0.332,1.278,0.975c-0.028,0.643-0.391,0.971-1.089,0.984H5.187
		c-0.091,0-0.133-0.027-0.125-0.084c0-0.035,0.021-0.059,0.063-0.073C5.18,21.277,5.208,21.238,5.208,21.183z M5.605,19.926v1.1
		c-0.028,0.203,0.045,0.287,0.22,0.252c0.482-0.015,0.737-0.283,0.765-0.807c-0.021-0.51-0.276-0.775-0.765-0.797
		C5.651,19.646,5.578,19.73,5.605,19.926z"/>
	<path fill="#FFFFFF" d="M8.382,21.455H8.172c-0.098,0-0.136-0.049-0.115-0.146h-0.01c-0.084,0.098-0.227,0.15-0.43,0.157
		c-0.3-0.007-0.458-0.133-0.471-0.377c0.021-0.308,0.314-0.476,0.88-0.503c-0.014-0.175-0.102-0.27-0.262-0.283
		c-0.084,0-0.165,0.031-0.241,0.095C7.46,20.438,7.404,20.46,7.355,20.46c-0.077,0-0.115-0.035-0.115-0.104
		c0.021-0.119,0.188-0.188,0.503-0.21c0.412,0.007,0.622,0.164,0.628,0.472v0.576c0,0.056,0.024,0.098,0.073,0.126
		c0.042,0.021,0.063,0.038,0.063,0.052C8.515,21.428,8.473,21.455,8.382,21.455z M8.026,21.036v-0.314
		c-0.308,0.021-0.479,0.14-0.513,0.356c0.014,0.16,0.098,0.244,0.251,0.251C7.911,21.322,7.998,21.225,8.026,21.036z"/>
	<path fill="#FFFFFF" d="M9.115,20.177h0.22c0.063,0,0.098,0.028,0.105,0.084c-0.007,0.063-0.042,0.091-0.105,0.084h-0.22v0.775
		c-0.014,0.125,0.045,0.182,0.178,0.167c0.112,0,0.164,0.025,0.157,0.073c0,0.063-0.031,0.095-0.094,0.095H8.979
		c-0.161,0-0.23-0.06-0.209-0.178v-0.933H8.654c-0.07,0.007-0.102-0.021-0.095-0.084c0-0.056,0.049-0.084,0.147-0.084
		c0.119-0.007,0.203-0.111,0.251-0.314c0.028-0.104,0.059-0.157,0.094-0.157c0.042,0,0.063,0.035,0.063,0.105V20.177z"/>
	<path fill="#FFFFFF" d="M10.76,21.455H10.55c-0.098,0-0.136-0.049-0.115-0.146h-0.01c-0.084,0.098-0.227,0.15-0.43,0.157
		c-0.3-0.007-0.458-0.133-0.471-0.377c0.021-0.308,0.314-0.476,0.88-0.503c-0.014-0.175-0.102-0.27-0.262-0.283
		c-0.084,0-0.165,0.031-0.241,0.095c-0.063,0.041-0.119,0.063-0.167,0.063c-0.077,0-0.115-0.035-0.115-0.104
		c0.021-0.119,0.188-0.188,0.503-0.21c0.412,0.007,0.622,0.164,0.628,0.472v0.576c0,0.056,0.024,0.098,0.073,0.126
		c0.042,0.021,0.063,0.038,0.063,0.052C10.893,21.428,10.851,21.455,10.76,21.455z M10.404,21.036v-0.314
		c-0.308,0.021-0.479,0.14-0.513,0.356c0.014,0.16,0.098,0.244,0.251,0.251C10.289,21.322,10.376,21.225,10.404,21.036z"/>
	<path fill="#FFFFFF" d="M12.007,19.758v1.425c0,0.056,0.028,0.095,0.084,0.115c0.056,0.015,0.083,0.038,0.083,0.073
		c0,0.057-0.039,0.084-0.115,0.084h-0.492c-0.084,0-0.123-0.027-0.115-0.084c0-0.035,0.024-0.059,0.073-0.073
		c0.063-0.021,0.094-0.06,0.094-0.115v-1.425c0-0.056-0.045-0.084-0.136-0.084c-0.133,0-0.251,0.053-0.356,0.157
		c-0.056,0.049-0.098,0.073-0.126,0.073c-0.049,0.008-0.07-0.021-0.063-0.084c0-0.027,0.011-0.098,0.032-0.209
		c0-0.021,0.003-0.035,0.01-0.042c0.007-0.049,0.042-0.073,0.105-0.073h1.456c0.049,0,0.084,0.024,0.105,0.073
		c0,0.007,0,0.021,0,0.042c0.028,0.104,0.042,0.175,0.042,0.209c0,0.063-0.021,0.092-0.063,0.084
		c-0.035,0.008-0.081-0.017-0.136-0.073c-0.105-0.104-0.22-0.157-0.346-0.157C12.045,19.674,12,19.702,12.007,19.758z"/>
	<path fill="#FFFFFF" d="M12.75,20.848c0.014-0.454,0.269-0.688,0.765-0.702c0.335,0.021,0.51,0.146,0.524,0.377
		c-0.014,0.252-0.311,0.398-0.891,0.44c0.042,0.209,0.164,0.317,0.367,0.324c0.133,0,0.258-0.052,0.377-0.157l0.011-0.01
		c0.028-0.035,0.059-0.053,0.094-0.053c0.035,0.007,0.056,0.028,0.063,0.063c-0.084,0.203-0.293,0.314-0.629,0.336
		C13.005,21.444,12.778,21.238,12.75,20.848z M13.494,20.292c-0.245,0.015-0.37,0.188-0.377,0.524
		c0.37-0.028,0.559-0.14,0.565-0.336C13.676,20.362,13.613,20.299,13.494,20.292z"/>
	<path fill="#FFFFFF" d="M14.165,20.837c0.028-0.426,0.262-0.656,0.702-0.691c0.293,0.021,0.458,0.115,0.493,0.283
		c-0.007,0.084-0.063,0.125-0.168,0.125c-0.049,0.008-0.098-0.031-0.146-0.115c-0.056-0.098-0.119-0.146-0.188-0.146
		c-0.209,0.021-0.318,0.203-0.325,0.545c0.014,0.279,0.14,0.43,0.377,0.45c0.105,0,0.209-0.045,0.314-0.136
		c0.049-0.049,0.084-0.073,0.105-0.073c0.042,0.007,0.063,0.031,0.063,0.073c-0.077,0.195-0.262,0.3-0.555,0.314
		C14.409,21.451,14.186,21.242,14.165,20.837z"/>
	<path fill="#FFFFFF" d="M15.977,19.59v0.702c0.119-0.091,0.259-0.14,0.419-0.146c0.321,0,0.482,0.175,0.482,0.523v0.514
		c0,0.07,0.024,0.115,0.073,0.137c0.034,0.014,0.052,0.034,0.052,0.063c0,0.049-0.031,0.073-0.094,0.073H16.5
		c-0.069,0-0.101-0.024-0.094-0.073c0-0.028,0.014-0.049,0.042-0.063c0.049-0.021,0.076-0.066,0.084-0.137V20.69
		c0.014-0.237-0.077-0.353-0.272-0.346c-0.175,0.014-0.27,0.111-0.283,0.293v0.545c-0.007,0.07,0.018,0.115,0.073,0.137
		c0.035,0.014,0.053,0.034,0.053,0.063c0,0.049-0.031,0.073-0.095,0.073H15.6c-0.07,0-0.102-0.024-0.095-0.073
		c0-0.028,0.015-0.049,0.042-0.063c0.056-0.021,0.084-0.066,0.084-0.137v-1.425c0-0.042-0.031-0.08-0.094-0.115
		c-0.035-0.014-0.053-0.035-0.053-0.063c0-0.021,0.014-0.038,0.042-0.053c0.007,0,0.014-0.003,0.021-0.011
		c0.14-0.063,0.252-0.098,0.336-0.104C15.952,19.405,15.983,19.465,15.977,19.59z"/>
</g>
</svg>
